%TF.GenerationSoftware,KiCad,Pcbnew,7.0.8*%
%TF.CreationDate,2023-11-10T17:38:27-07:00*%
%TF.ProjectId,longmon-hatt,6c6f6e67-6d6f-46e2-9d68-6174742e6b69,rev?*%
%TF.SameCoordinates,Original*%
%TF.FileFunction,Drillmap*%
%TF.FilePolarity,Positive*%
%FSLAX45Y45*%
G04 Gerber Fmt 4.5, Leading zero omitted, Abs format (unit mm)*
G04 Created by KiCad (PCBNEW 7.0.8) date 2023-11-10 17:38:27*
%MOMM*%
%LPD*%
G01*
G04 APERTURE LIST*
%ADD10C,0.100000*%
%ADD11C,0.200000*%
%ADD12C,0.076200*%
%ADD13C,0.080000*%
G04 APERTURE END LIST*
D10*
X12850000Y-7900000D02*
X19600000Y-7900000D01*
X19600000Y-11500000D01*
X12850000Y-11500000D01*
X12850000Y-7900000D01*
D11*
D12*
X13061900Y-8961900D02*
X13138100Y-9038100D01*
X13138100Y-8961900D02*
X13061900Y-9038100D01*
X13061900Y-9211900D02*
X13138100Y-9288100D01*
X13138100Y-9211900D02*
X13061900Y-9288100D01*
X13061900Y-9461900D02*
X13138100Y-9538100D01*
X13138100Y-9461900D02*
X13061900Y-9538100D01*
X13461900Y-8961900D02*
X13538100Y-9038100D01*
X13538100Y-8961900D02*
X13461900Y-9038100D01*
X13461900Y-9211900D02*
X13538100Y-9288100D01*
X13538100Y-9211900D02*
X13461900Y-9288100D01*
X13461900Y-9461900D02*
X13538100Y-9538100D01*
X13538100Y-9461900D02*
X13461900Y-9538100D01*
X13461900Y-9711900D02*
X13538100Y-9788100D01*
X13538100Y-9711900D02*
X13461900Y-9788100D01*
X13461900Y-9961900D02*
X13538100Y-10038100D01*
X13538100Y-9961900D02*
X13461900Y-10038100D01*
X13461900Y-10211900D02*
X13538100Y-10288100D01*
X13538100Y-10211900D02*
X13461900Y-10288100D01*
X14961900Y-8711900D02*
X15038100Y-8788100D01*
X15038100Y-8711900D02*
X14961900Y-8788100D01*
X14961900Y-11211900D02*
X15038100Y-11288100D01*
X15038100Y-11211900D02*
X14961900Y-11288100D01*
X15215900Y-8711900D02*
X15292100Y-8788100D01*
X15292100Y-8711900D02*
X15215900Y-8788100D01*
X15215900Y-11211900D02*
X15292100Y-11288100D01*
X15292100Y-11211900D02*
X15215900Y-11288100D01*
X15469900Y-8711900D02*
X15546100Y-8788100D01*
X15546100Y-8711900D02*
X15469900Y-8788100D01*
X15469900Y-11211900D02*
X15546100Y-11288100D01*
X15546100Y-11211900D02*
X15469900Y-11288100D01*
X15723900Y-8711900D02*
X15800100Y-8788100D01*
X15800100Y-8711900D02*
X15723900Y-8788100D01*
X15723900Y-11211900D02*
X15800100Y-11288100D01*
X15800100Y-11211900D02*
X15723900Y-11288100D01*
X15977900Y-8711900D02*
X16054100Y-8788100D01*
X16054100Y-8711900D02*
X15977900Y-8788100D01*
X15977900Y-11211900D02*
X16054100Y-11288100D01*
X16054100Y-11211900D02*
X15977900Y-11288100D01*
X16231900Y-8711900D02*
X16308100Y-8788100D01*
X16308100Y-8711900D02*
X16231900Y-8788100D01*
X16231900Y-11211900D02*
X16308100Y-11288100D01*
X16308100Y-11211900D02*
X16231900Y-11288100D01*
X16485900Y-8711900D02*
X16562100Y-8788100D01*
X16562100Y-8711900D02*
X16485900Y-8788100D01*
X16485900Y-11211900D02*
X16562100Y-11288100D01*
X16562100Y-11211900D02*
X16485900Y-11288100D01*
X16739900Y-8711900D02*
X16816100Y-8788100D01*
X16816100Y-8711900D02*
X16739900Y-8788100D01*
X16739900Y-11211900D02*
X16816100Y-11288100D01*
X16816100Y-11211900D02*
X16739900Y-11288100D01*
X16993900Y-8711900D02*
X17070100Y-8788100D01*
X17070100Y-8711900D02*
X16993900Y-8788100D01*
X16993900Y-11211900D02*
X17070100Y-11288100D01*
X17070100Y-11211900D02*
X16993900Y-11288100D01*
X17247900Y-8711900D02*
X17324100Y-8788100D01*
X17324100Y-8711900D02*
X17247900Y-8788100D01*
X17247900Y-11211900D02*
X17324100Y-11288100D01*
X17324100Y-11211900D02*
X17247900Y-11288100D01*
X17501900Y-8711900D02*
X17578100Y-8788100D01*
X17578100Y-8711900D02*
X17501900Y-8788100D01*
X17501900Y-11211900D02*
X17578100Y-11288100D01*
X17578100Y-11211900D02*
X17501900Y-11288100D01*
X17755900Y-8711900D02*
X17832100Y-8788100D01*
X17832100Y-8711900D02*
X17755900Y-8788100D01*
X17755900Y-11211900D02*
X17832100Y-11288100D01*
X17832100Y-11211900D02*
X17755900Y-11288100D01*
X18009900Y-8711900D02*
X18086100Y-8788100D01*
X18086100Y-8711900D02*
X18009900Y-8788100D01*
X18009900Y-11211900D02*
X18086100Y-11288100D01*
X18086100Y-11211900D02*
X18009900Y-11288100D01*
X18263900Y-8711900D02*
X18340100Y-8788100D01*
X18340100Y-8711900D02*
X18263900Y-8788100D01*
X18263900Y-11211900D02*
X18340100Y-11288100D01*
X18340100Y-11211900D02*
X18263900Y-11288100D01*
X18517900Y-8711900D02*
X18594100Y-8788100D01*
X18594100Y-8711900D02*
X18517900Y-8788100D01*
X18517900Y-11211900D02*
X18594100Y-11288100D01*
X18594100Y-11211900D02*
X18517900Y-11288100D01*
D13*
X13995000Y-8775000D02*
G75*
G03*
X13995000Y-8775000I-40000J0D01*
G01*
X13995000Y-9029000D02*
G75*
G03*
X13995000Y-9029000I-40000J0D01*
G01*
X13995000Y-9283000D02*
G75*
G03*
X13995000Y-9283000I-40000J0D01*
G01*
X13995000Y-9537000D02*
G75*
G03*
X13995000Y-9537000I-40000J0D01*
G01*
X13995000Y-9791000D02*
G75*
G03*
X13995000Y-9791000I-40000J0D01*
G01*
X13995000Y-10045000D02*
G75*
G03*
X13995000Y-10045000I-40000J0D01*
G01*
X13995000Y-10299000D02*
G75*
G03*
X13995000Y-10299000I-40000J0D01*
G01*
X13995000Y-10553000D02*
G75*
G03*
X13995000Y-10553000I-40000J0D01*
G01*
D11*
X13105777Y-11816484D02*
X13105777Y-11616484D01*
X13105777Y-11616484D02*
X13153396Y-11616484D01*
X13153396Y-11616484D02*
X13181967Y-11626008D01*
X13181967Y-11626008D02*
X13201015Y-11645055D01*
X13201015Y-11645055D02*
X13210539Y-11664103D01*
X13210539Y-11664103D02*
X13220062Y-11702198D01*
X13220062Y-11702198D02*
X13220062Y-11730769D01*
X13220062Y-11730769D02*
X13210539Y-11768865D01*
X13210539Y-11768865D02*
X13201015Y-11787912D01*
X13201015Y-11787912D02*
X13181967Y-11806960D01*
X13181967Y-11806960D02*
X13153396Y-11816484D01*
X13153396Y-11816484D02*
X13105777Y-11816484D01*
X13305777Y-11816484D02*
X13305777Y-11683150D01*
X13305777Y-11721246D02*
X13315301Y-11702198D01*
X13315301Y-11702198D02*
X13324824Y-11692674D01*
X13324824Y-11692674D02*
X13343872Y-11683150D01*
X13343872Y-11683150D02*
X13362920Y-11683150D01*
X13429586Y-11816484D02*
X13429586Y-11683150D01*
X13429586Y-11616484D02*
X13420062Y-11626008D01*
X13420062Y-11626008D02*
X13429586Y-11635531D01*
X13429586Y-11635531D02*
X13439110Y-11626008D01*
X13439110Y-11626008D02*
X13429586Y-11616484D01*
X13429586Y-11616484D02*
X13429586Y-11635531D01*
X13553396Y-11816484D02*
X13534348Y-11806960D01*
X13534348Y-11806960D02*
X13524824Y-11787912D01*
X13524824Y-11787912D02*
X13524824Y-11616484D01*
X13658158Y-11816484D02*
X13639110Y-11806960D01*
X13639110Y-11806960D02*
X13629586Y-11787912D01*
X13629586Y-11787912D02*
X13629586Y-11616484D01*
X13886729Y-11816484D02*
X13886729Y-11616484D01*
X13886729Y-11616484D02*
X13953396Y-11759341D01*
X13953396Y-11759341D02*
X14020062Y-11616484D01*
X14020062Y-11616484D02*
X14020062Y-11816484D01*
X14201015Y-11816484D02*
X14201015Y-11711722D01*
X14201015Y-11711722D02*
X14191491Y-11692674D01*
X14191491Y-11692674D02*
X14172443Y-11683150D01*
X14172443Y-11683150D02*
X14134348Y-11683150D01*
X14134348Y-11683150D02*
X14115301Y-11692674D01*
X14201015Y-11806960D02*
X14181967Y-11816484D01*
X14181967Y-11816484D02*
X14134348Y-11816484D01*
X14134348Y-11816484D02*
X14115301Y-11806960D01*
X14115301Y-11806960D02*
X14105777Y-11787912D01*
X14105777Y-11787912D02*
X14105777Y-11768865D01*
X14105777Y-11768865D02*
X14115301Y-11749817D01*
X14115301Y-11749817D02*
X14134348Y-11740293D01*
X14134348Y-11740293D02*
X14181967Y-11740293D01*
X14181967Y-11740293D02*
X14201015Y-11730769D01*
X14296253Y-11683150D02*
X14296253Y-11883150D01*
X14296253Y-11692674D02*
X14315301Y-11683150D01*
X14315301Y-11683150D02*
X14353396Y-11683150D01*
X14353396Y-11683150D02*
X14372443Y-11692674D01*
X14372443Y-11692674D02*
X14381967Y-11702198D01*
X14381967Y-11702198D02*
X14391491Y-11721246D01*
X14391491Y-11721246D02*
X14391491Y-11778388D01*
X14391491Y-11778388D02*
X14381967Y-11797436D01*
X14381967Y-11797436D02*
X14372443Y-11806960D01*
X14372443Y-11806960D02*
X14353396Y-11816484D01*
X14353396Y-11816484D02*
X14315301Y-11816484D01*
X14315301Y-11816484D02*
X14296253Y-11806960D01*
X14477205Y-11797436D02*
X14486729Y-11806960D01*
X14486729Y-11806960D02*
X14477205Y-11816484D01*
X14477205Y-11816484D02*
X14467682Y-11806960D01*
X14467682Y-11806960D02*
X14477205Y-11797436D01*
X14477205Y-11797436D02*
X14477205Y-11816484D01*
X14477205Y-11692674D02*
X14486729Y-11702198D01*
X14486729Y-11702198D02*
X14477205Y-11711722D01*
X14477205Y-11711722D02*
X14467682Y-11702198D01*
X14467682Y-11702198D02*
X14477205Y-11692674D01*
X14477205Y-11692674D02*
X14477205Y-11711722D01*
D12*
X12768800Y-12106900D02*
X12845000Y-12183100D01*
X12845000Y-12106900D02*
X12768800Y-12183100D01*
D11*
X13143872Y-12036484D02*
X13162920Y-12036484D01*
X13162920Y-12036484D02*
X13181967Y-12046008D01*
X13181967Y-12046008D02*
X13191491Y-12055531D01*
X13191491Y-12055531D02*
X13201015Y-12074579D01*
X13201015Y-12074579D02*
X13210539Y-12112674D01*
X13210539Y-12112674D02*
X13210539Y-12160293D01*
X13210539Y-12160293D02*
X13201015Y-12198388D01*
X13201015Y-12198388D02*
X13191491Y-12217436D01*
X13191491Y-12217436D02*
X13181967Y-12226960D01*
X13181967Y-12226960D02*
X13162920Y-12236484D01*
X13162920Y-12236484D02*
X13143872Y-12236484D01*
X13143872Y-12236484D02*
X13124824Y-12226960D01*
X13124824Y-12226960D02*
X13115301Y-12217436D01*
X13115301Y-12217436D02*
X13105777Y-12198388D01*
X13105777Y-12198388D02*
X13096253Y-12160293D01*
X13096253Y-12160293D02*
X13096253Y-12112674D01*
X13096253Y-12112674D02*
X13105777Y-12074579D01*
X13105777Y-12074579D02*
X13115301Y-12055531D01*
X13115301Y-12055531D02*
X13124824Y-12046008D01*
X13124824Y-12046008D02*
X13143872Y-12036484D01*
X13296253Y-12217436D02*
X13305777Y-12226960D01*
X13305777Y-12226960D02*
X13296253Y-12236484D01*
X13296253Y-12236484D02*
X13286729Y-12226960D01*
X13286729Y-12226960D02*
X13296253Y-12217436D01*
X13296253Y-12217436D02*
X13296253Y-12236484D01*
X13372443Y-12036484D02*
X13505777Y-12036484D01*
X13505777Y-12036484D02*
X13420062Y-12236484D01*
X13667682Y-12036484D02*
X13629586Y-12036484D01*
X13629586Y-12036484D02*
X13610539Y-12046008D01*
X13610539Y-12046008D02*
X13601015Y-12055531D01*
X13601015Y-12055531D02*
X13581967Y-12084103D01*
X13581967Y-12084103D02*
X13572443Y-12122198D01*
X13572443Y-12122198D02*
X13572443Y-12198388D01*
X13572443Y-12198388D02*
X13581967Y-12217436D01*
X13581967Y-12217436D02*
X13591491Y-12226960D01*
X13591491Y-12226960D02*
X13610539Y-12236484D01*
X13610539Y-12236484D02*
X13648634Y-12236484D01*
X13648634Y-12236484D02*
X13667682Y-12226960D01*
X13667682Y-12226960D02*
X13677205Y-12217436D01*
X13677205Y-12217436D02*
X13686729Y-12198388D01*
X13686729Y-12198388D02*
X13686729Y-12150769D01*
X13686729Y-12150769D02*
X13677205Y-12131722D01*
X13677205Y-12131722D02*
X13667682Y-12122198D01*
X13667682Y-12122198D02*
X13648634Y-12112674D01*
X13648634Y-12112674D02*
X13610539Y-12112674D01*
X13610539Y-12112674D02*
X13591491Y-12122198D01*
X13591491Y-12122198D02*
X13581967Y-12131722D01*
X13581967Y-12131722D02*
X13572443Y-12150769D01*
X13762920Y-12055531D02*
X13772443Y-12046008D01*
X13772443Y-12046008D02*
X13791491Y-12036484D01*
X13791491Y-12036484D02*
X13839110Y-12036484D01*
X13839110Y-12036484D02*
X13858158Y-12046008D01*
X13858158Y-12046008D02*
X13867682Y-12055531D01*
X13867682Y-12055531D02*
X13877205Y-12074579D01*
X13877205Y-12074579D02*
X13877205Y-12093627D01*
X13877205Y-12093627D02*
X13867682Y-12122198D01*
X13867682Y-12122198D02*
X13753396Y-12236484D01*
X13753396Y-12236484D02*
X13877205Y-12236484D01*
X13962920Y-12236484D02*
X13962920Y-12103150D01*
X13962920Y-12122198D02*
X13972443Y-12112674D01*
X13972443Y-12112674D02*
X13991491Y-12103150D01*
X13991491Y-12103150D02*
X14020063Y-12103150D01*
X14020063Y-12103150D02*
X14039110Y-12112674D01*
X14039110Y-12112674D02*
X14048634Y-12131722D01*
X14048634Y-12131722D02*
X14048634Y-12236484D01*
X14048634Y-12131722D02*
X14058158Y-12112674D01*
X14058158Y-12112674D02*
X14077205Y-12103150D01*
X14077205Y-12103150D02*
X14105777Y-12103150D01*
X14105777Y-12103150D02*
X14124824Y-12112674D01*
X14124824Y-12112674D02*
X14134348Y-12131722D01*
X14134348Y-12131722D02*
X14134348Y-12236484D01*
X14229586Y-12236484D02*
X14229586Y-12103150D01*
X14229586Y-12122198D02*
X14239110Y-12112674D01*
X14239110Y-12112674D02*
X14258158Y-12103150D01*
X14258158Y-12103150D02*
X14286729Y-12103150D01*
X14286729Y-12103150D02*
X14305777Y-12112674D01*
X14305777Y-12112674D02*
X14315301Y-12131722D01*
X14315301Y-12131722D02*
X14315301Y-12236484D01*
X14315301Y-12131722D02*
X14324824Y-12112674D01*
X14324824Y-12112674D02*
X14343872Y-12103150D01*
X14343872Y-12103150D02*
X14372443Y-12103150D01*
X14372443Y-12103150D02*
X14391491Y-12112674D01*
X14391491Y-12112674D02*
X14401015Y-12131722D01*
X14401015Y-12131722D02*
X14401015Y-12236484D01*
X14791491Y-12026960D02*
X14620063Y-12284103D01*
X15048634Y-12036484D02*
X15067682Y-12036484D01*
X15067682Y-12036484D02*
X15086729Y-12046008D01*
X15086729Y-12046008D02*
X15096253Y-12055531D01*
X15096253Y-12055531D02*
X15105777Y-12074579D01*
X15105777Y-12074579D02*
X15115301Y-12112674D01*
X15115301Y-12112674D02*
X15115301Y-12160293D01*
X15115301Y-12160293D02*
X15105777Y-12198388D01*
X15105777Y-12198388D02*
X15096253Y-12217436D01*
X15096253Y-12217436D02*
X15086729Y-12226960D01*
X15086729Y-12226960D02*
X15067682Y-12236484D01*
X15067682Y-12236484D02*
X15048634Y-12236484D01*
X15048634Y-12236484D02*
X15029586Y-12226960D01*
X15029586Y-12226960D02*
X15020063Y-12217436D01*
X15020063Y-12217436D02*
X15010539Y-12198388D01*
X15010539Y-12198388D02*
X15001015Y-12160293D01*
X15001015Y-12160293D02*
X15001015Y-12112674D01*
X15001015Y-12112674D02*
X15010539Y-12074579D01*
X15010539Y-12074579D02*
X15020063Y-12055531D01*
X15020063Y-12055531D02*
X15029586Y-12046008D01*
X15029586Y-12046008D02*
X15048634Y-12036484D01*
X15201015Y-12217436D02*
X15210539Y-12226960D01*
X15210539Y-12226960D02*
X15201015Y-12236484D01*
X15201015Y-12236484D02*
X15191491Y-12226960D01*
X15191491Y-12226960D02*
X15201015Y-12217436D01*
X15201015Y-12217436D02*
X15201015Y-12236484D01*
X15334348Y-12036484D02*
X15353396Y-12036484D01*
X15353396Y-12036484D02*
X15372444Y-12046008D01*
X15372444Y-12046008D02*
X15381967Y-12055531D01*
X15381967Y-12055531D02*
X15391491Y-12074579D01*
X15391491Y-12074579D02*
X15401015Y-12112674D01*
X15401015Y-12112674D02*
X15401015Y-12160293D01*
X15401015Y-12160293D02*
X15391491Y-12198388D01*
X15391491Y-12198388D02*
X15381967Y-12217436D01*
X15381967Y-12217436D02*
X15372444Y-12226960D01*
X15372444Y-12226960D02*
X15353396Y-12236484D01*
X15353396Y-12236484D02*
X15334348Y-12236484D01*
X15334348Y-12236484D02*
X15315301Y-12226960D01*
X15315301Y-12226960D02*
X15305777Y-12217436D01*
X15305777Y-12217436D02*
X15296253Y-12198388D01*
X15296253Y-12198388D02*
X15286729Y-12160293D01*
X15286729Y-12160293D02*
X15286729Y-12112674D01*
X15286729Y-12112674D02*
X15296253Y-12074579D01*
X15296253Y-12074579D02*
X15305777Y-12055531D01*
X15305777Y-12055531D02*
X15315301Y-12046008D01*
X15315301Y-12046008D02*
X15334348Y-12036484D01*
X15467682Y-12036484D02*
X15591491Y-12036484D01*
X15591491Y-12036484D02*
X15524825Y-12112674D01*
X15524825Y-12112674D02*
X15553396Y-12112674D01*
X15553396Y-12112674D02*
X15572444Y-12122198D01*
X15572444Y-12122198D02*
X15581967Y-12131722D01*
X15581967Y-12131722D02*
X15591491Y-12150769D01*
X15591491Y-12150769D02*
X15591491Y-12198388D01*
X15591491Y-12198388D02*
X15581967Y-12217436D01*
X15581967Y-12217436D02*
X15572444Y-12226960D01*
X15572444Y-12226960D02*
X15553396Y-12236484D01*
X15553396Y-12236484D02*
X15496253Y-12236484D01*
X15496253Y-12236484D02*
X15477206Y-12226960D01*
X15477206Y-12226960D02*
X15467682Y-12217436D01*
X15715301Y-12036484D02*
X15734348Y-12036484D01*
X15734348Y-12036484D02*
X15753396Y-12046008D01*
X15753396Y-12046008D02*
X15762920Y-12055531D01*
X15762920Y-12055531D02*
X15772444Y-12074579D01*
X15772444Y-12074579D02*
X15781967Y-12112674D01*
X15781967Y-12112674D02*
X15781967Y-12160293D01*
X15781967Y-12160293D02*
X15772444Y-12198388D01*
X15772444Y-12198388D02*
X15762920Y-12217436D01*
X15762920Y-12217436D02*
X15753396Y-12226960D01*
X15753396Y-12226960D02*
X15734348Y-12236484D01*
X15734348Y-12236484D02*
X15715301Y-12236484D01*
X15715301Y-12236484D02*
X15696253Y-12226960D01*
X15696253Y-12226960D02*
X15686729Y-12217436D01*
X15686729Y-12217436D02*
X15677206Y-12198388D01*
X15677206Y-12198388D02*
X15667682Y-12160293D01*
X15667682Y-12160293D02*
X15667682Y-12112674D01*
X15667682Y-12112674D02*
X15677206Y-12074579D01*
X15677206Y-12074579D02*
X15686729Y-12055531D01*
X15686729Y-12055531D02*
X15696253Y-12046008D01*
X15696253Y-12046008D02*
X15715301Y-12036484D01*
X15905777Y-12036484D02*
X15924825Y-12036484D01*
X15924825Y-12036484D02*
X15943872Y-12046008D01*
X15943872Y-12046008D02*
X15953396Y-12055531D01*
X15953396Y-12055531D02*
X15962920Y-12074579D01*
X15962920Y-12074579D02*
X15972444Y-12112674D01*
X15972444Y-12112674D02*
X15972444Y-12160293D01*
X15972444Y-12160293D02*
X15962920Y-12198388D01*
X15962920Y-12198388D02*
X15953396Y-12217436D01*
X15953396Y-12217436D02*
X15943872Y-12226960D01*
X15943872Y-12226960D02*
X15924825Y-12236484D01*
X15924825Y-12236484D02*
X15905777Y-12236484D01*
X15905777Y-12236484D02*
X15886729Y-12226960D01*
X15886729Y-12226960D02*
X15877206Y-12217436D01*
X15877206Y-12217436D02*
X15867682Y-12198388D01*
X15867682Y-12198388D02*
X15858158Y-12160293D01*
X15858158Y-12160293D02*
X15858158Y-12112674D01*
X15858158Y-12112674D02*
X15867682Y-12074579D01*
X15867682Y-12074579D02*
X15877206Y-12055531D01*
X15877206Y-12055531D02*
X15886729Y-12046008D01*
X15886729Y-12046008D02*
X15905777Y-12036484D01*
X16048634Y-12036484D02*
X16048634Y-12074579D01*
X16124825Y-12036484D02*
X16124825Y-12074579D01*
X16420063Y-12312674D02*
X16410539Y-12303150D01*
X16410539Y-12303150D02*
X16391491Y-12274579D01*
X16391491Y-12274579D02*
X16381968Y-12255531D01*
X16381968Y-12255531D02*
X16372444Y-12226960D01*
X16372444Y-12226960D02*
X16362920Y-12179341D01*
X16362920Y-12179341D02*
X16362920Y-12141246D01*
X16362920Y-12141246D02*
X16372444Y-12093627D01*
X16372444Y-12093627D02*
X16381968Y-12065055D01*
X16381968Y-12065055D02*
X16391491Y-12046008D01*
X16391491Y-12046008D02*
X16410539Y-12017436D01*
X16410539Y-12017436D02*
X16420063Y-12007912D01*
X16477206Y-12036484D02*
X16601015Y-12036484D01*
X16601015Y-12036484D02*
X16534348Y-12112674D01*
X16534348Y-12112674D02*
X16562920Y-12112674D01*
X16562920Y-12112674D02*
X16581968Y-12122198D01*
X16581968Y-12122198D02*
X16591491Y-12131722D01*
X16591491Y-12131722D02*
X16601015Y-12150769D01*
X16601015Y-12150769D02*
X16601015Y-12198388D01*
X16601015Y-12198388D02*
X16591491Y-12217436D01*
X16591491Y-12217436D02*
X16581968Y-12226960D01*
X16581968Y-12226960D02*
X16562920Y-12236484D01*
X16562920Y-12236484D02*
X16505777Y-12236484D01*
X16505777Y-12236484D02*
X16486729Y-12226960D01*
X16486729Y-12226960D02*
X16477206Y-12217436D01*
X16696253Y-12236484D02*
X16734348Y-12236484D01*
X16734348Y-12236484D02*
X16753396Y-12226960D01*
X16753396Y-12226960D02*
X16762920Y-12217436D01*
X16762920Y-12217436D02*
X16781968Y-12188865D01*
X16781968Y-12188865D02*
X16791491Y-12150769D01*
X16791491Y-12150769D02*
X16791491Y-12074579D01*
X16791491Y-12074579D02*
X16781968Y-12055531D01*
X16781968Y-12055531D02*
X16772444Y-12046008D01*
X16772444Y-12046008D02*
X16753396Y-12036484D01*
X16753396Y-12036484D02*
X16715301Y-12036484D01*
X16715301Y-12036484D02*
X16696253Y-12046008D01*
X16696253Y-12046008D02*
X16686729Y-12055531D01*
X16686729Y-12055531D02*
X16677206Y-12074579D01*
X16677206Y-12074579D02*
X16677206Y-12122198D01*
X16677206Y-12122198D02*
X16686729Y-12141246D01*
X16686729Y-12141246D02*
X16696253Y-12150769D01*
X16696253Y-12150769D02*
X16715301Y-12160293D01*
X16715301Y-12160293D02*
X16753396Y-12160293D01*
X16753396Y-12160293D02*
X16772444Y-12150769D01*
X16772444Y-12150769D02*
X16781968Y-12141246D01*
X16781968Y-12141246D02*
X16791491Y-12122198D01*
X17029587Y-12236484D02*
X17029587Y-12036484D01*
X17115301Y-12236484D02*
X17115301Y-12131722D01*
X17115301Y-12131722D02*
X17105777Y-12112674D01*
X17105777Y-12112674D02*
X17086730Y-12103150D01*
X17086730Y-12103150D02*
X17058158Y-12103150D01*
X17058158Y-12103150D02*
X17039111Y-12112674D01*
X17039111Y-12112674D02*
X17029587Y-12122198D01*
X17239111Y-12236484D02*
X17220063Y-12226960D01*
X17220063Y-12226960D02*
X17210539Y-12217436D01*
X17210539Y-12217436D02*
X17201015Y-12198388D01*
X17201015Y-12198388D02*
X17201015Y-12141246D01*
X17201015Y-12141246D02*
X17210539Y-12122198D01*
X17210539Y-12122198D02*
X17220063Y-12112674D01*
X17220063Y-12112674D02*
X17239111Y-12103150D01*
X17239111Y-12103150D02*
X17267682Y-12103150D01*
X17267682Y-12103150D02*
X17286730Y-12112674D01*
X17286730Y-12112674D02*
X17296253Y-12122198D01*
X17296253Y-12122198D02*
X17305777Y-12141246D01*
X17305777Y-12141246D02*
X17305777Y-12198388D01*
X17305777Y-12198388D02*
X17296253Y-12217436D01*
X17296253Y-12217436D02*
X17286730Y-12226960D01*
X17286730Y-12226960D02*
X17267682Y-12236484D01*
X17267682Y-12236484D02*
X17239111Y-12236484D01*
X17420063Y-12236484D02*
X17401015Y-12226960D01*
X17401015Y-12226960D02*
X17391492Y-12207912D01*
X17391492Y-12207912D02*
X17391492Y-12036484D01*
X17572444Y-12226960D02*
X17553396Y-12236484D01*
X17553396Y-12236484D02*
X17515301Y-12236484D01*
X17515301Y-12236484D02*
X17496253Y-12226960D01*
X17496253Y-12226960D02*
X17486730Y-12207912D01*
X17486730Y-12207912D02*
X17486730Y-12131722D01*
X17486730Y-12131722D02*
X17496253Y-12112674D01*
X17496253Y-12112674D02*
X17515301Y-12103150D01*
X17515301Y-12103150D02*
X17553396Y-12103150D01*
X17553396Y-12103150D02*
X17572444Y-12112674D01*
X17572444Y-12112674D02*
X17581968Y-12131722D01*
X17581968Y-12131722D02*
X17581968Y-12150769D01*
X17581968Y-12150769D02*
X17486730Y-12169817D01*
X17658158Y-12226960D02*
X17677206Y-12236484D01*
X17677206Y-12236484D02*
X17715301Y-12236484D01*
X17715301Y-12236484D02*
X17734349Y-12226960D01*
X17734349Y-12226960D02*
X17743873Y-12207912D01*
X17743873Y-12207912D02*
X17743873Y-12198388D01*
X17743873Y-12198388D02*
X17734349Y-12179341D01*
X17734349Y-12179341D02*
X17715301Y-12169817D01*
X17715301Y-12169817D02*
X17686730Y-12169817D01*
X17686730Y-12169817D02*
X17667682Y-12160293D01*
X17667682Y-12160293D02*
X17658158Y-12141246D01*
X17658158Y-12141246D02*
X17658158Y-12131722D01*
X17658158Y-12131722D02*
X17667682Y-12112674D01*
X17667682Y-12112674D02*
X17686730Y-12103150D01*
X17686730Y-12103150D02*
X17715301Y-12103150D01*
X17715301Y-12103150D02*
X17734349Y-12112674D01*
X17810539Y-12312674D02*
X17820063Y-12303150D01*
X17820063Y-12303150D02*
X17839111Y-12274579D01*
X17839111Y-12274579D02*
X17848634Y-12255531D01*
X17848634Y-12255531D02*
X17858158Y-12226960D01*
X17858158Y-12226960D02*
X17867682Y-12179341D01*
X17867682Y-12179341D02*
X17867682Y-12141246D01*
X17867682Y-12141246D02*
X17858158Y-12093627D01*
X17858158Y-12093627D02*
X17848634Y-12065055D01*
X17848634Y-12065055D02*
X17839111Y-12046008D01*
X17839111Y-12046008D02*
X17820063Y-12017436D01*
X17820063Y-12017436D02*
X17810539Y-12007912D01*
D13*
X12845000Y-12409000D02*
G75*
G03*
X12845000Y-12409000I-40000J0D01*
G01*
D11*
X13143872Y-12300484D02*
X13162920Y-12300484D01*
X13162920Y-12300484D02*
X13181967Y-12310008D01*
X13181967Y-12310008D02*
X13191491Y-12319531D01*
X13191491Y-12319531D02*
X13201015Y-12338579D01*
X13201015Y-12338579D02*
X13210539Y-12376674D01*
X13210539Y-12376674D02*
X13210539Y-12424293D01*
X13210539Y-12424293D02*
X13201015Y-12462388D01*
X13201015Y-12462388D02*
X13191491Y-12481436D01*
X13191491Y-12481436D02*
X13181967Y-12490960D01*
X13181967Y-12490960D02*
X13162920Y-12500484D01*
X13162920Y-12500484D02*
X13143872Y-12500484D01*
X13143872Y-12500484D02*
X13124824Y-12490960D01*
X13124824Y-12490960D02*
X13115301Y-12481436D01*
X13115301Y-12481436D02*
X13105777Y-12462388D01*
X13105777Y-12462388D02*
X13096253Y-12424293D01*
X13096253Y-12424293D02*
X13096253Y-12376674D01*
X13096253Y-12376674D02*
X13105777Y-12338579D01*
X13105777Y-12338579D02*
X13115301Y-12319531D01*
X13115301Y-12319531D02*
X13124824Y-12310008D01*
X13124824Y-12310008D02*
X13143872Y-12300484D01*
X13296253Y-12481436D02*
X13305777Y-12490960D01*
X13305777Y-12490960D02*
X13296253Y-12500484D01*
X13296253Y-12500484D02*
X13286729Y-12490960D01*
X13286729Y-12490960D02*
X13296253Y-12481436D01*
X13296253Y-12481436D02*
X13296253Y-12500484D01*
X13420062Y-12386198D02*
X13401015Y-12376674D01*
X13401015Y-12376674D02*
X13391491Y-12367150D01*
X13391491Y-12367150D02*
X13381967Y-12348103D01*
X13381967Y-12348103D02*
X13381967Y-12338579D01*
X13381967Y-12338579D02*
X13391491Y-12319531D01*
X13391491Y-12319531D02*
X13401015Y-12310008D01*
X13401015Y-12310008D02*
X13420062Y-12300484D01*
X13420062Y-12300484D02*
X13458158Y-12300484D01*
X13458158Y-12300484D02*
X13477205Y-12310008D01*
X13477205Y-12310008D02*
X13486729Y-12319531D01*
X13486729Y-12319531D02*
X13496253Y-12338579D01*
X13496253Y-12338579D02*
X13496253Y-12348103D01*
X13496253Y-12348103D02*
X13486729Y-12367150D01*
X13486729Y-12367150D02*
X13477205Y-12376674D01*
X13477205Y-12376674D02*
X13458158Y-12386198D01*
X13458158Y-12386198D02*
X13420062Y-12386198D01*
X13420062Y-12386198D02*
X13401015Y-12395722D01*
X13401015Y-12395722D02*
X13391491Y-12405246D01*
X13391491Y-12405246D02*
X13381967Y-12424293D01*
X13381967Y-12424293D02*
X13381967Y-12462388D01*
X13381967Y-12462388D02*
X13391491Y-12481436D01*
X13391491Y-12481436D02*
X13401015Y-12490960D01*
X13401015Y-12490960D02*
X13420062Y-12500484D01*
X13420062Y-12500484D02*
X13458158Y-12500484D01*
X13458158Y-12500484D02*
X13477205Y-12490960D01*
X13477205Y-12490960D02*
X13486729Y-12481436D01*
X13486729Y-12481436D02*
X13496253Y-12462388D01*
X13496253Y-12462388D02*
X13496253Y-12424293D01*
X13496253Y-12424293D02*
X13486729Y-12405246D01*
X13486729Y-12405246D02*
X13477205Y-12395722D01*
X13477205Y-12395722D02*
X13458158Y-12386198D01*
X13620062Y-12300484D02*
X13639110Y-12300484D01*
X13639110Y-12300484D02*
X13658158Y-12310008D01*
X13658158Y-12310008D02*
X13667682Y-12319531D01*
X13667682Y-12319531D02*
X13677205Y-12338579D01*
X13677205Y-12338579D02*
X13686729Y-12376674D01*
X13686729Y-12376674D02*
X13686729Y-12424293D01*
X13686729Y-12424293D02*
X13677205Y-12462388D01*
X13677205Y-12462388D02*
X13667682Y-12481436D01*
X13667682Y-12481436D02*
X13658158Y-12490960D01*
X13658158Y-12490960D02*
X13639110Y-12500484D01*
X13639110Y-12500484D02*
X13620062Y-12500484D01*
X13620062Y-12500484D02*
X13601015Y-12490960D01*
X13601015Y-12490960D02*
X13591491Y-12481436D01*
X13591491Y-12481436D02*
X13581967Y-12462388D01*
X13581967Y-12462388D02*
X13572443Y-12424293D01*
X13572443Y-12424293D02*
X13572443Y-12376674D01*
X13572443Y-12376674D02*
X13581967Y-12338579D01*
X13581967Y-12338579D02*
X13591491Y-12319531D01*
X13591491Y-12319531D02*
X13601015Y-12310008D01*
X13601015Y-12310008D02*
X13620062Y-12300484D01*
X13810539Y-12300484D02*
X13829586Y-12300484D01*
X13829586Y-12300484D02*
X13848634Y-12310008D01*
X13848634Y-12310008D02*
X13858158Y-12319531D01*
X13858158Y-12319531D02*
X13867682Y-12338579D01*
X13867682Y-12338579D02*
X13877205Y-12376674D01*
X13877205Y-12376674D02*
X13877205Y-12424293D01*
X13877205Y-12424293D02*
X13867682Y-12462388D01*
X13867682Y-12462388D02*
X13858158Y-12481436D01*
X13858158Y-12481436D02*
X13848634Y-12490960D01*
X13848634Y-12490960D02*
X13829586Y-12500484D01*
X13829586Y-12500484D02*
X13810539Y-12500484D01*
X13810539Y-12500484D02*
X13791491Y-12490960D01*
X13791491Y-12490960D02*
X13781967Y-12481436D01*
X13781967Y-12481436D02*
X13772443Y-12462388D01*
X13772443Y-12462388D02*
X13762920Y-12424293D01*
X13762920Y-12424293D02*
X13762920Y-12376674D01*
X13762920Y-12376674D02*
X13772443Y-12338579D01*
X13772443Y-12338579D02*
X13781967Y-12319531D01*
X13781967Y-12319531D02*
X13791491Y-12310008D01*
X13791491Y-12310008D02*
X13810539Y-12300484D01*
X13962920Y-12500484D02*
X13962920Y-12367150D01*
X13962920Y-12386198D02*
X13972443Y-12376674D01*
X13972443Y-12376674D02*
X13991491Y-12367150D01*
X13991491Y-12367150D02*
X14020063Y-12367150D01*
X14020063Y-12367150D02*
X14039110Y-12376674D01*
X14039110Y-12376674D02*
X14048634Y-12395722D01*
X14048634Y-12395722D02*
X14048634Y-12500484D01*
X14048634Y-12395722D02*
X14058158Y-12376674D01*
X14058158Y-12376674D02*
X14077205Y-12367150D01*
X14077205Y-12367150D02*
X14105777Y-12367150D01*
X14105777Y-12367150D02*
X14124824Y-12376674D01*
X14124824Y-12376674D02*
X14134348Y-12395722D01*
X14134348Y-12395722D02*
X14134348Y-12500484D01*
X14229586Y-12500484D02*
X14229586Y-12367150D01*
X14229586Y-12386198D02*
X14239110Y-12376674D01*
X14239110Y-12376674D02*
X14258158Y-12367150D01*
X14258158Y-12367150D02*
X14286729Y-12367150D01*
X14286729Y-12367150D02*
X14305777Y-12376674D01*
X14305777Y-12376674D02*
X14315301Y-12395722D01*
X14315301Y-12395722D02*
X14315301Y-12500484D01*
X14315301Y-12395722D02*
X14324824Y-12376674D01*
X14324824Y-12376674D02*
X14343872Y-12367150D01*
X14343872Y-12367150D02*
X14372443Y-12367150D01*
X14372443Y-12367150D02*
X14391491Y-12376674D01*
X14391491Y-12376674D02*
X14401015Y-12395722D01*
X14401015Y-12395722D02*
X14401015Y-12500484D01*
X14791491Y-12290960D02*
X14620063Y-12548103D01*
X15048634Y-12300484D02*
X15067682Y-12300484D01*
X15067682Y-12300484D02*
X15086729Y-12310008D01*
X15086729Y-12310008D02*
X15096253Y-12319531D01*
X15096253Y-12319531D02*
X15105777Y-12338579D01*
X15105777Y-12338579D02*
X15115301Y-12376674D01*
X15115301Y-12376674D02*
X15115301Y-12424293D01*
X15115301Y-12424293D02*
X15105777Y-12462388D01*
X15105777Y-12462388D02*
X15096253Y-12481436D01*
X15096253Y-12481436D02*
X15086729Y-12490960D01*
X15086729Y-12490960D02*
X15067682Y-12500484D01*
X15067682Y-12500484D02*
X15048634Y-12500484D01*
X15048634Y-12500484D02*
X15029586Y-12490960D01*
X15029586Y-12490960D02*
X15020063Y-12481436D01*
X15020063Y-12481436D02*
X15010539Y-12462388D01*
X15010539Y-12462388D02*
X15001015Y-12424293D01*
X15001015Y-12424293D02*
X15001015Y-12376674D01*
X15001015Y-12376674D02*
X15010539Y-12338579D01*
X15010539Y-12338579D02*
X15020063Y-12319531D01*
X15020063Y-12319531D02*
X15029586Y-12310008D01*
X15029586Y-12310008D02*
X15048634Y-12300484D01*
X15201015Y-12481436D02*
X15210539Y-12490960D01*
X15210539Y-12490960D02*
X15201015Y-12500484D01*
X15201015Y-12500484D02*
X15191491Y-12490960D01*
X15191491Y-12490960D02*
X15201015Y-12481436D01*
X15201015Y-12481436D02*
X15201015Y-12500484D01*
X15334348Y-12300484D02*
X15353396Y-12300484D01*
X15353396Y-12300484D02*
X15372444Y-12310008D01*
X15372444Y-12310008D02*
X15381967Y-12319531D01*
X15381967Y-12319531D02*
X15391491Y-12338579D01*
X15391491Y-12338579D02*
X15401015Y-12376674D01*
X15401015Y-12376674D02*
X15401015Y-12424293D01*
X15401015Y-12424293D02*
X15391491Y-12462388D01*
X15391491Y-12462388D02*
X15381967Y-12481436D01*
X15381967Y-12481436D02*
X15372444Y-12490960D01*
X15372444Y-12490960D02*
X15353396Y-12500484D01*
X15353396Y-12500484D02*
X15334348Y-12500484D01*
X15334348Y-12500484D02*
X15315301Y-12490960D01*
X15315301Y-12490960D02*
X15305777Y-12481436D01*
X15305777Y-12481436D02*
X15296253Y-12462388D01*
X15296253Y-12462388D02*
X15286729Y-12424293D01*
X15286729Y-12424293D02*
X15286729Y-12376674D01*
X15286729Y-12376674D02*
X15296253Y-12338579D01*
X15296253Y-12338579D02*
X15305777Y-12319531D01*
X15305777Y-12319531D02*
X15315301Y-12310008D01*
X15315301Y-12310008D02*
X15334348Y-12300484D01*
X15467682Y-12300484D02*
X15591491Y-12300484D01*
X15591491Y-12300484D02*
X15524825Y-12376674D01*
X15524825Y-12376674D02*
X15553396Y-12376674D01*
X15553396Y-12376674D02*
X15572444Y-12386198D01*
X15572444Y-12386198D02*
X15581967Y-12395722D01*
X15581967Y-12395722D02*
X15591491Y-12414769D01*
X15591491Y-12414769D02*
X15591491Y-12462388D01*
X15591491Y-12462388D02*
X15581967Y-12481436D01*
X15581967Y-12481436D02*
X15572444Y-12490960D01*
X15572444Y-12490960D02*
X15553396Y-12500484D01*
X15553396Y-12500484D02*
X15496253Y-12500484D01*
X15496253Y-12500484D02*
X15477206Y-12490960D01*
X15477206Y-12490960D02*
X15467682Y-12481436D01*
X15781967Y-12500484D02*
X15667682Y-12500484D01*
X15724825Y-12500484D02*
X15724825Y-12300484D01*
X15724825Y-12300484D02*
X15705777Y-12329055D01*
X15705777Y-12329055D02*
X15686729Y-12348103D01*
X15686729Y-12348103D02*
X15667682Y-12357627D01*
X15962920Y-12300484D02*
X15867682Y-12300484D01*
X15867682Y-12300484D02*
X15858158Y-12395722D01*
X15858158Y-12395722D02*
X15867682Y-12386198D01*
X15867682Y-12386198D02*
X15886729Y-12376674D01*
X15886729Y-12376674D02*
X15934348Y-12376674D01*
X15934348Y-12376674D02*
X15953396Y-12386198D01*
X15953396Y-12386198D02*
X15962920Y-12395722D01*
X15962920Y-12395722D02*
X15972444Y-12414769D01*
X15972444Y-12414769D02*
X15972444Y-12462388D01*
X15972444Y-12462388D02*
X15962920Y-12481436D01*
X15962920Y-12481436D02*
X15953396Y-12490960D01*
X15953396Y-12490960D02*
X15934348Y-12500484D01*
X15934348Y-12500484D02*
X15886729Y-12500484D01*
X15886729Y-12500484D02*
X15867682Y-12490960D01*
X15867682Y-12490960D02*
X15858158Y-12481436D01*
X16048634Y-12300484D02*
X16048634Y-12338579D01*
X16124825Y-12300484D02*
X16124825Y-12338579D01*
X16420063Y-12576674D02*
X16410539Y-12567150D01*
X16410539Y-12567150D02*
X16391491Y-12538579D01*
X16391491Y-12538579D02*
X16381968Y-12519531D01*
X16381968Y-12519531D02*
X16372444Y-12490960D01*
X16372444Y-12490960D02*
X16362920Y-12443341D01*
X16362920Y-12443341D02*
X16362920Y-12405246D01*
X16362920Y-12405246D02*
X16372444Y-12357627D01*
X16372444Y-12357627D02*
X16381968Y-12329055D01*
X16381968Y-12329055D02*
X16391491Y-12310008D01*
X16391491Y-12310008D02*
X16410539Y-12281436D01*
X16410539Y-12281436D02*
X16420063Y-12271912D01*
X16524825Y-12386198D02*
X16505777Y-12376674D01*
X16505777Y-12376674D02*
X16496253Y-12367150D01*
X16496253Y-12367150D02*
X16486729Y-12348103D01*
X16486729Y-12348103D02*
X16486729Y-12338579D01*
X16486729Y-12338579D02*
X16496253Y-12319531D01*
X16496253Y-12319531D02*
X16505777Y-12310008D01*
X16505777Y-12310008D02*
X16524825Y-12300484D01*
X16524825Y-12300484D02*
X16562920Y-12300484D01*
X16562920Y-12300484D02*
X16581968Y-12310008D01*
X16581968Y-12310008D02*
X16591491Y-12319531D01*
X16591491Y-12319531D02*
X16601015Y-12338579D01*
X16601015Y-12338579D02*
X16601015Y-12348103D01*
X16601015Y-12348103D02*
X16591491Y-12367150D01*
X16591491Y-12367150D02*
X16581968Y-12376674D01*
X16581968Y-12376674D02*
X16562920Y-12386198D01*
X16562920Y-12386198D02*
X16524825Y-12386198D01*
X16524825Y-12386198D02*
X16505777Y-12395722D01*
X16505777Y-12395722D02*
X16496253Y-12405246D01*
X16496253Y-12405246D02*
X16486729Y-12424293D01*
X16486729Y-12424293D02*
X16486729Y-12462388D01*
X16486729Y-12462388D02*
X16496253Y-12481436D01*
X16496253Y-12481436D02*
X16505777Y-12490960D01*
X16505777Y-12490960D02*
X16524825Y-12500484D01*
X16524825Y-12500484D02*
X16562920Y-12500484D01*
X16562920Y-12500484D02*
X16581968Y-12490960D01*
X16581968Y-12490960D02*
X16591491Y-12481436D01*
X16591491Y-12481436D02*
X16601015Y-12462388D01*
X16601015Y-12462388D02*
X16601015Y-12424293D01*
X16601015Y-12424293D02*
X16591491Y-12405246D01*
X16591491Y-12405246D02*
X16581968Y-12395722D01*
X16581968Y-12395722D02*
X16562920Y-12386198D01*
X16839111Y-12500484D02*
X16839111Y-12300484D01*
X16924825Y-12500484D02*
X16924825Y-12395722D01*
X16924825Y-12395722D02*
X16915301Y-12376674D01*
X16915301Y-12376674D02*
X16896253Y-12367150D01*
X16896253Y-12367150D02*
X16867682Y-12367150D01*
X16867682Y-12367150D02*
X16848634Y-12376674D01*
X16848634Y-12376674D02*
X16839111Y-12386198D01*
X17048634Y-12500484D02*
X17029587Y-12490960D01*
X17029587Y-12490960D02*
X17020063Y-12481436D01*
X17020063Y-12481436D02*
X17010539Y-12462388D01*
X17010539Y-12462388D02*
X17010539Y-12405246D01*
X17010539Y-12405246D02*
X17020063Y-12386198D01*
X17020063Y-12386198D02*
X17029587Y-12376674D01*
X17029587Y-12376674D02*
X17048634Y-12367150D01*
X17048634Y-12367150D02*
X17077206Y-12367150D01*
X17077206Y-12367150D02*
X17096253Y-12376674D01*
X17096253Y-12376674D02*
X17105777Y-12386198D01*
X17105777Y-12386198D02*
X17115301Y-12405246D01*
X17115301Y-12405246D02*
X17115301Y-12462388D01*
X17115301Y-12462388D02*
X17105777Y-12481436D01*
X17105777Y-12481436D02*
X17096253Y-12490960D01*
X17096253Y-12490960D02*
X17077206Y-12500484D01*
X17077206Y-12500484D02*
X17048634Y-12500484D01*
X17229587Y-12500484D02*
X17210539Y-12490960D01*
X17210539Y-12490960D02*
X17201015Y-12471912D01*
X17201015Y-12471912D02*
X17201015Y-12300484D01*
X17381968Y-12490960D02*
X17362920Y-12500484D01*
X17362920Y-12500484D02*
X17324825Y-12500484D01*
X17324825Y-12500484D02*
X17305777Y-12490960D01*
X17305777Y-12490960D02*
X17296253Y-12471912D01*
X17296253Y-12471912D02*
X17296253Y-12395722D01*
X17296253Y-12395722D02*
X17305777Y-12376674D01*
X17305777Y-12376674D02*
X17324825Y-12367150D01*
X17324825Y-12367150D02*
X17362920Y-12367150D01*
X17362920Y-12367150D02*
X17381968Y-12376674D01*
X17381968Y-12376674D02*
X17391492Y-12395722D01*
X17391492Y-12395722D02*
X17391492Y-12414769D01*
X17391492Y-12414769D02*
X17296253Y-12433817D01*
X17467682Y-12490960D02*
X17486730Y-12500484D01*
X17486730Y-12500484D02*
X17524825Y-12500484D01*
X17524825Y-12500484D02*
X17543873Y-12490960D01*
X17543873Y-12490960D02*
X17553396Y-12471912D01*
X17553396Y-12471912D02*
X17553396Y-12462388D01*
X17553396Y-12462388D02*
X17543873Y-12443341D01*
X17543873Y-12443341D02*
X17524825Y-12433817D01*
X17524825Y-12433817D02*
X17496253Y-12433817D01*
X17496253Y-12433817D02*
X17477206Y-12424293D01*
X17477206Y-12424293D02*
X17467682Y-12405246D01*
X17467682Y-12405246D02*
X17467682Y-12395722D01*
X17467682Y-12395722D02*
X17477206Y-12376674D01*
X17477206Y-12376674D02*
X17496253Y-12367150D01*
X17496253Y-12367150D02*
X17524825Y-12367150D01*
X17524825Y-12367150D02*
X17543873Y-12376674D01*
X17620063Y-12576674D02*
X17629587Y-12567150D01*
X17629587Y-12567150D02*
X17648634Y-12538579D01*
X17648634Y-12538579D02*
X17658158Y-12519531D01*
X17658158Y-12519531D02*
X17667682Y-12490960D01*
X17667682Y-12490960D02*
X17677206Y-12443341D01*
X17677206Y-12443341D02*
X17677206Y-12405246D01*
X17677206Y-12405246D02*
X17667682Y-12357627D01*
X17667682Y-12357627D02*
X17658158Y-12329055D01*
X17658158Y-12329055D02*
X17648634Y-12310008D01*
X17648634Y-12310008D02*
X17629587Y-12281436D01*
X17629587Y-12281436D02*
X17620063Y-12271912D01*
M02*
