G04 #@! TF.GenerationSoftware,KiCad,Pcbnew,7.0.8*
G04 #@! TF.CreationDate,2023-11-10T17:37:59-07:00*
G04 #@! TF.ProjectId,longmon-hatt,6c6f6e67-6d6f-46e2-9d68-6174742e6b69,rev?*
G04 #@! TF.SameCoordinates,Original*
G04 #@! TF.FileFunction,Legend,Bot*
G04 #@! TF.FilePolarity,Positive*
%FSLAX46Y46*%
G04 Gerber Fmt 4.6, Leading zero omitted, Abs format (unit mm)*
G04 Created by KiCad (PCBNEW 7.0.8) date 2023-11-10 17:37:59*
%MOMM*%
%LPD*%
G01*
G04 APERTURE LIST*
%ADD10C,0.153000*%
%ADD11C,0.150000*%
%ADD12C,3.240000*%
%ADD13C,1.524000*%
%ADD14C,3.000000*%
%ADD15C,1.540000*%
G04 APERTURE END LIST*
D10*
X188661247Y-81869663D02*
X188661247Y-80869663D01*
X188661247Y-80869663D02*
X188423152Y-80869663D01*
X188423152Y-80869663D02*
X188280295Y-80917282D01*
X188280295Y-80917282D02*
X188185057Y-81012520D01*
X188185057Y-81012520D02*
X188137438Y-81107758D01*
X188137438Y-81107758D02*
X188089819Y-81298234D01*
X188089819Y-81298234D02*
X188089819Y-81441091D01*
X188089819Y-81441091D02*
X188137438Y-81631567D01*
X188137438Y-81631567D02*
X188185057Y-81726805D01*
X188185057Y-81726805D02*
X188280295Y-81822044D01*
X188280295Y-81822044D02*
X188423152Y-81869663D01*
X188423152Y-81869663D02*
X188661247Y-81869663D01*
X187280295Y-81822044D02*
X187375533Y-81869663D01*
X187375533Y-81869663D02*
X187566009Y-81869663D01*
X187566009Y-81869663D02*
X187661247Y-81822044D01*
X187661247Y-81822044D02*
X187708866Y-81726805D01*
X187708866Y-81726805D02*
X187708866Y-81345853D01*
X187708866Y-81345853D02*
X187661247Y-81250615D01*
X187661247Y-81250615D02*
X187566009Y-81202996D01*
X187566009Y-81202996D02*
X187375533Y-81202996D01*
X187375533Y-81202996D02*
X187280295Y-81250615D01*
X187280295Y-81250615D02*
X187232676Y-81345853D01*
X187232676Y-81345853D02*
X187232676Y-81441091D01*
X187232676Y-81441091D02*
X187708866Y-81536329D01*
X186851723Y-81822044D02*
X186756485Y-81869663D01*
X186756485Y-81869663D02*
X186566009Y-81869663D01*
X186566009Y-81869663D02*
X186470771Y-81822044D01*
X186470771Y-81822044D02*
X186423152Y-81726805D01*
X186423152Y-81726805D02*
X186423152Y-81679186D01*
X186423152Y-81679186D02*
X186470771Y-81583948D01*
X186470771Y-81583948D02*
X186566009Y-81536329D01*
X186566009Y-81536329D02*
X186708866Y-81536329D01*
X186708866Y-81536329D02*
X186804104Y-81488710D01*
X186804104Y-81488710D02*
X186851723Y-81393472D01*
X186851723Y-81393472D02*
X186851723Y-81345853D01*
X186851723Y-81345853D02*
X186804104Y-81250615D01*
X186804104Y-81250615D02*
X186708866Y-81202996D01*
X186708866Y-81202996D02*
X186566009Y-81202996D01*
X186566009Y-81202996D02*
X186470771Y-81250615D01*
X185994580Y-81869663D02*
X185994580Y-81202996D01*
X185994580Y-80869663D02*
X186042199Y-80917282D01*
X186042199Y-80917282D02*
X185994580Y-80964901D01*
X185994580Y-80964901D02*
X185946961Y-80917282D01*
X185946961Y-80917282D02*
X185994580Y-80869663D01*
X185994580Y-80869663D02*
X185994580Y-80964901D01*
X185089819Y-81202996D02*
X185089819Y-82012520D01*
X185089819Y-82012520D02*
X185137438Y-82107758D01*
X185137438Y-82107758D02*
X185185057Y-82155377D01*
X185185057Y-82155377D02*
X185280295Y-82202996D01*
X185280295Y-82202996D02*
X185423152Y-82202996D01*
X185423152Y-82202996D02*
X185518390Y-82155377D01*
X185089819Y-81822044D02*
X185185057Y-81869663D01*
X185185057Y-81869663D02*
X185375533Y-81869663D01*
X185375533Y-81869663D02*
X185470771Y-81822044D01*
X185470771Y-81822044D02*
X185518390Y-81774424D01*
X185518390Y-81774424D02*
X185566009Y-81679186D01*
X185566009Y-81679186D02*
X185566009Y-81393472D01*
X185566009Y-81393472D02*
X185518390Y-81298234D01*
X185518390Y-81298234D02*
X185470771Y-81250615D01*
X185470771Y-81250615D02*
X185375533Y-81202996D01*
X185375533Y-81202996D02*
X185185057Y-81202996D01*
X185185057Y-81202996D02*
X185089819Y-81250615D01*
X184613628Y-81202996D02*
X184613628Y-81869663D01*
X184613628Y-81298234D02*
X184566009Y-81250615D01*
X184566009Y-81250615D02*
X184470771Y-81202996D01*
X184470771Y-81202996D02*
X184327914Y-81202996D01*
X184327914Y-81202996D02*
X184232676Y-81250615D01*
X184232676Y-81250615D02*
X184185057Y-81345853D01*
X184185057Y-81345853D02*
X184185057Y-81869663D01*
X183327914Y-81822044D02*
X183423152Y-81869663D01*
X183423152Y-81869663D02*
X183613628Y-81869663D01*
X183613628Y-81869663D02*
X183708866Y-81822044D01*
X183708866Y-81822044D02*
X183756485Y-81726805D01*
X183756485Y-81726805D02*
X183756485Y-81345853D01*
X183756485Y-81345853D02*
X183708866Y-81250615D01*
X183708866Y-81250615D02*
X183613628Y-81202996D01*
X183613628Y-81202996D02*
X183423152Y-81202996D01*
X183423152Y-81202996D02*
X183327914Y-81250615D01*
X183327914Y-81250615D02*
X183280295Y-81345853D01*
X183280295Y-81345853D02*
X183280295Y-81441091D01*
X183280295Y-81441091D02*
X183756485Y-81536329D01*
X182423152Y-81869663D02*
X182423152Y-80869663D01*
X182423152Y-81822044D02*
X182518390Y-81869663D01*
X182518390Y-81869663D02*
X182708866Y-81869663D01*
X182708866Y-81869663D02*
X182804104Y-81822044D01*
X182804104Y-81822044D02*
X182851723Y-81774424D01*
X182851723Y-81774424D02*
X182899342Y-81679186D01*
X182899342Y-81679186D02*
X182899342Y-81393472D01*
X182899342Y-81393472D02*
X182851723Y-81298234D01*
X182851723Y-81298234D02*
X182804104Y-81250615D01*
X182804104Y-81250615D02*
X182708866Y-81202996D01*
X182708866Y-81202996D02*
X182518390Y-81202996D01*
X182518390Y-81202996D02*
X182423152Y-81250615D01*
X181185056Y-81869663D02*
X181185056Y-80869663D01*
X181185056Y-81250615D02*
X181089818Y-81202996D01*
X181089818Y-81202996D02*
X180899342Y-81202996D01*
X180899342Y-81202996D02*
X180804104Y-81250615D01*
X180804104Y-81250615D02*
X180756485Y-81298234D01*
X180756485Y-81298234D02*
X180708866Y-81393472D01*
X180708866Y-81393472D02*
X180708866Y-81679186D01*
X180708866Y-81679186D02*
X180756485Y-81774424D01*
X180756485Y-81774424D02*
X180804104Y-81822044D01*
X180804104Y-81822044D02*
X180899342Y-81869663D01*
X180899342Y-81869663D02*
X181089818Y-81869663D01*
X181089818Y-81869663D02*
X181185056Y-81822044D01*
X180375532Y-81202996D02*
X180137437Y-81869663D01*
X179899342Y-81202996D02*
X180137437Y-81869663D01*
X180137437Y-81869663D02*
X180232675Y-82107758D01*
X180232675Y-82107758D02*
X180280294Y-82155377D01*
X180280294Y-82155377D02*
X180375532Y-82202996D01*
X178185056Y-81774424D02*
X178232675Y-81822044D01*
X178232675Y-81822044D02*
X178375532Y-81869663D01*
X178375532Y-81869663D02*
X178470770Y-81869663D01*
X178470770Y-81869663D02*
X178613627Y-81822044D01*
X178613627Y-81822044D02*
X178708865Y-81726805D01*
X178708865Y-81726805D02*
X178756484Y-81631567D01*
X178756484Y-81631567D02*
X178804103Y-81441091D01*
X178804103Y-81441091D02*
X178804103Y-81298234D01*
X178804103Y-81298234D02*
X178756484Y-81107758D01*
X178756484Y-81107758D02*
X178708865Y-81012520D01*
X178708865Y-81012520D02*
X178613627Y-80917282D01*
X178613627Y-80917282D02*
X178470770Y-80869663D01*
X178470770Y-80869663D02*
X178375532Y-80869663D01*
X178375532Y-80869663D02*
X178232675Y-80917282D01*
X178232675Y-80917282D02*
X178185056Y-80964901D01*
X177327913Y-81869663D02*
X177327913Y-81345853D01*
X177327913Y-81345853D02*
X177375532Y-81250615D01*
X177375532Y-81250615D02*
X177470770Y-81202996D01*
X177470770Y-81202996D02*
X177661246Y-81202996D01*
X177661246Y-81202996D02*
X177756484Y-81250615D01*
X177327913Y-81822044D02*
X177423151Y-81869663D01*
X177423151Y-81869663D02*
X177661246Y-81869663D01*
X177661246Y-81869663D02*
X177756484Y-81822044D01*
X177756484Y-81822044D02*
X177804103Y-81726805D01*
X177804103Y-81726805D02*
X177804103Y-81631567D01*
X177804103Y-81631567D02*
X177756484Y-81536329D01*
X177756484Y-81536329D02*
X177661246Y-81488710D01*
X177661246Y-81488710D02*
X177423151Y-81488710D01*
X177423151Y-81488710D02*
X177327913Y-81441091D01*
X176851722Y-81869663D02*
X176851722Y-81202996D01*
X176851722Y-81393472D02*
X176804103Y-81298234D01*
X176804103Y-81298234D02*
X176756484Y-81250615D01*
X176756484Y-81250615D02*
X176661246Y-81202996D01*
X176661246Y-81202996D02*
X176566008Y-81202996D01*
X176280293Y-81822044D02*
X176185055Y-81869663D01*
X176185055Y-81869663D02*
X175994579Y-81869663D01*
X175994579Y-81869663D02*
X175899341Y-81822044D01*
X175899341Y-81822044D02*
X175851722Y-81726805D01*
X175851722Y-81726805D02*
X175851722Y-81679186D01*
X175851722Y-81679186D02*
X175899341Y-81583948D01*
X175899341Y-81583948D02*
X175994579Y-81536329D01*
X175994579Y-81536329D02*
X176137436Y-81536329D01*
X176137436Y-81536329D02*
X176232674Y-81488710D01*
X176232674Y-81488710D02*
X176280293Y-81393472D01*
X176280293Y-81393472D02*
X176280293Y-81345853D01*
X176280293Y-81345853D02*
X176232674Y-81250615D01*
X176232674Y-81250615D02*
X176137436Y-81202996D01*
X176137436Y-81202996D02*
X175994579Y-81202996D01*
X175994579Y-81202996D02*
X175899341Y-81250615D01*
X175280293Y-81869663D02*
X175375531Y-81822044D01*
X175375531Y-81822044D02*
X175423150Y-81774424D01*
X175423150Y-81774424D02*
X175470769Y-81679186D01*
X175470769Y-81679186D02*
X175470769Y-81393472D01*
X175470769Y-81393472D02*
X175423150Y-81298234D01*
X175423150Y-81298234D02*
X175375531Y-81250615D01*
X175375531Y-81250615D02*
X175280293Y-81202996D01*
X175280293Y-81202996D02*
X175137436Y-81202996D01*
X175137436Y-81202996D02*
X175042198Y-81250615D01*
X175042198Y-81250615D02*
X174994579Y-81298234D01*
X174994579Y-81298234D02*
X174946960Y-81393472D01*
X174946960Y-81393472D02*
X174946960Y-81679186D01*
X174946960Y-81679186D02*
X174994579Y-81774424D01*
X174994579Y-81774424D02*
X175042198Y-81822044D01*
X175042198Y-81822044D02*
X175137436Y-81869663D01*
X175137436Y-81869663D02*
X175280293Y-81869663D01*
X174518388Y-81202996D02*
X174518388Y-81869663D01*
X174518388Y-81298234D02*
X174470769Y-81250615D01*
X174470769Y-81250615D02*
X174375531Y-81202996D01*
X174375531Y-81202996D02*
X174232674Y-81202996D01*
X174232674Y-81202996D02*
X174137436Y-81250615D01*
X174137436Y-81250615D02*
X174089817Y-81345853D01*
X174089817Y-81345853D02*
X174089817Y-81869663D01*
X172518388Y-81345853D02*
X172375531Y-81393472D01*
X172375531Y-81393472D02*
X172327912Y-81441091D01*
X172327912Y-81441091D02*
X172280293Y-81536329D01*
X172280293Y-81536329D02*
X172280293Y-81679186D01*
X172280293Y-81679186D02*
X172327912Y-81774424D01*
X172327912Y-81774424D02*
X172375531Y-81822044D01*
X172375531Y-81822044D02*
X172470769Y-81869663D01*
X172470769Y-81869663D02*
X172851721Y-81869663D01*
X172851721Y-81869663D02*
X172851721Y-80869663D01*
X172851721Y-80869663D02*
X172518388Y-80869663D01*
X172518388Y-80869663D02*
X172423150Y-80917282D01*
X172423150Y-80917282D02*
X172375531Y-80964901D01*
X172375531Y-80964901D02*
X172327912Y-81060139D01*
X172327912Y-81060139D02*
X172327912Y-81155377D01*
X172327912Y-81155377D02*
X172375531Y-81250615D01*
X172375531Y-81250615D02*
X172423150Y-81298234D01*
X172423150Y-81298234D02*
X172518388Y-81345853D01*
X172518388Y-81345853D02*
X172851721Y-81345853D01*
X171423150Y-81202996D02*
X171423150Y-81869663D01*
X171851721Y-81202996D02*
X171851721Y-81726805D01*
X171851721Y-81726805D02*
X171804102Y-81822044D01*
X171804102Y-81822044D02*
X171708864Y-81869663D01*
X171708864Y-81869663D02*
X171566007Y-81869663D01*
X171566007Y-81869663D02*
X171470769Y-81822044D01*
X171470769Y-81822044D02*
X171423150Y-81774424D01*
X170994578Y-81822044D02*
X170899340Y-81869663D01*
X170899340Y-81869663D02*
X170708864Y-81869663D01*
X170708864Y-81869663D02*
X170613626Y-81822044D01*
X170613626Y-81822044D02*
X170566007Y-81726805D01*
X170566007Y-81726805D02*
X170566007Y-81679186D01*
X170566007Y-81679186D02*
X170613626Y-81583948D01*
X170613626Y-81583948D02*
X170708864Y-81536329D01*
X170708864Y-81536329D02*
X170851721Y-81536329D01*
X170851721Y-81536329D02*
X170946959Y-81488710D01*
X170946959Y-81488710D02*
X170994578Y-81393472D01*
X170994578Y-81393472D02*
X170994578Y-81345853D01*
X170994578Y-81345853D02*
X170946959Y-81250615D01*
X170946959Y-81250615D02*
X170851721Y-81202996D01*
X170851721Y-81202996D02*
X170708864Y-81202996D01*
X170708864Y-81202996D02*
X170613626Y-81250615D01*
X170137435Y-81869663D02*
X170137435Y-80869663D01*
X169708864Y-81869663D02*
X169708864Y-81345853D01*
X169708864Y-81345853D02*
X169756483Y-81250615D01*
X169756483Y-81250615D02*
X169851721Y-81202996D01*
X169851721Y-81202996D02*
X169994578Y-81202996D01*
X169994578Y-81202996D02*
X170089816Y-81250615D01*
X170089816Y-81250615D02*
X170137435Y-81298234D01*
X167661244Y-81869663D02*
X167708864Y-81869663D01*
X167708864Y-81869663D02*
X167804102Y-81822044D01*
X167804102Y-81822044D02*
X167946959Y-81679186D01*
X167946959Y-81679186D02*
X168185054Y-81393472D01*
X168185054Y-81393472D02*
X168280292Y-81250615D01*
X168280292Y-81250615D02*
X168327911Y-81107758D01*
X168327911Y-81107758D02*
X168327911Y-81012520D01*
X168327911Y-81012520D02*
X168280292Y-80917282D01*
X168280292Y-80917282D02*
X168185054Y-80869663D01*
X168185054Y-80869663D02*
X168137435Y-80869663D01*
X168137435Y-80869663D02*
X168042197Y-80917282D01*
X168042197Y-80917282D02*
X167994578Y-81012520D01*
X167994578Y-81012520D02*
X167994578Y-81060139D01*
X167994578Y-81060139D02*
X168042197Y-81155377D01*
X168042197Y-81155377D02*
X168089816Y-81202996D01*
X168089816Y-81202996D02*
X168375530Y-81393472D01*
X168375530Y-81393472D02*
X168423149Y-81441091D01*
X168423149Y-81441091D02*
X168470768Y-81536329D01*
X168470768Y-81536329D02*
X168470768Y-81679186D01*
X168470768Y-81679186D02*
X168423149Y-81774424D01*
X168423149Y-81774424D02*
X168375530Y-81822044D01*
X168375530Y-81822044D02*
X168280292Y-81869663D01*
X168280292Y-81869663D02*
X168137435Y-81869663D01*
X168137435Y-81869663D02*
X168042197Y-81822044D01*
X168042197Y-81822044D02*
X167994578Y-81774424D01*
X167994578Y-81774424D02*
X167851721Y-81583948D01*
X167851721Y-81583948D02*
X167804102Y-81441091D01*
X167804102Y-81441091D02*
X167804102Y-81345853D01*
X166470768Y-81869663D02*
X166470768Y-80869663D01*
X166470768Y-80869663D02*
X166232673Y-80869663D01*
X166232673Y-80869663D02*
X166089816Y-80917282D01*
X166089816Y-80917282D02*
X165994578Y-81012520D01*
X165994578Y-81012520D02*
X165946959Y-81107758D01*
X165946959Y-81107758D02*
X165899340Y-81298234D01*
X165899340Y-81298234D02*
X165899340Y-81441091D01*
X165899340Y-81441091D02*
X165946959Y-81631567D01*
X165946959Y-81631567D02*
X165994578Y-81726805D01*
X165994578Y-81726805D02*
X166089816Y-81822044D01*
X166089816Y-81822044D02*
X166232673Y-81869663D01*
X166232673Y-81869663D02*
X166470768Y-81869663D01*
X165566006Y-81202996D02*
X165327911Y-81869663D01*
X165089816Y-81202996D02*
X165327911Y-81869663D01*
X165327911Y-81869663D02*
X165423149Y-82107758D01*
X165423149Y-82107758D02*
X165470768Y-82155377D01*
X165470768Y-82155377D02*
X165566006Y-82202996D01*
X164566006Y-81869663D02*
X164661244Y-81822044D01*
X164661244Y-81822044D02*
X164708863Y-81726805D01*
X164708863Y-81726805D02*
X164708863Y-80869663D01*
X163756482Y-81869663D02*
X163756482Y-81345853D01*
X163756482Y-81345853D02*
X163804101Y-81250615D01*
X163804101Y-81250615D02*
X163899339Y-81202996D01*
X163899339Y-81202996D02*
X164089815Y-81202996D01*
X164089815Y-81202996D02*
X164185053Y-81250615D01*
X163756482Y-81822044D02*
X163851720Y-81869663D01*
X163851720Y-81869663D02*
X164089815Y-81869663D01*
X164089815Y-81869663D02*
X164185053Y-81822044D01*
X164185053Y-81822044D02*
X164232672Y-81726805D01*
X164232672Y-81726805D02*
X164232672Y-81631567D01*
X164232672Y-81631567D02*
X164185053Y-81536329D01*
X164185053Y-81536329D02*
X164089815Y-81488710D01*
X164089815Y-81488710D02*
X163851720Y-81488710D01*
X163851720Y-81488710D02*
X163756482Y-81441091D01*
X163280291Y-81202996D02*
X163280291Y-81869663D01*
X163280291Y-81298234D02*
X163232672Y-81250615D01*
X163232672Y-81250615D02*
X163137434Y-81202996D01*
X163137434Y-81202996D02*
X162994577Y-81202996D01*
X162994577Y-81202996D02*
X162899339Y-81250615D01*
X162899339Y-81250615D02*
X162851720Y-81345853D01*
X162851720Y-81345853D02*
X162851720Y-81869663D01*
X161613624Y-81869663D02*
X161613624Y-80869663D01*
X161613624Y-81345853D02*
X161042196Y-81345853D01*
X161042196Y-81869663D02*
X161042196Y-80869663D01*
X160137434Y-81869663D02*
X160137434Y-81345853D01*
X160137434Y-81345853D02*
X160185053Y-81250615D01*
X160185053Y-81250615D02*
X160280291Y-81202996D01*
X160280291Y-81202996D02*
X160470767Y-81202996D01*
X160470767Y-81202996D02*
X160566005Y-81250615D01*
X160137434Y-81822044D02*
X160232672Y-81869663D01*
X160232672Y-81869663D02*
X160470767Y-81869663D01*
X160470767Y-81869663D02*
X160566005Y-81822044D01*
X160566005Y-81822044D02*
X160613624Y-81726805D01*
X160613624Y-81726805D02*
X160613624Y-81631567D01*
X160613624Y-81631567D02*
X160566005Y-81536329D01*
X160566005Y-81536329D02*
X160470767Y-81488710D01*
X160470767Y-81488710D02*
X160232672Y-81488710D01*
X160232672Y-81488710D02*
X160137434Y-81441091D01*
X159661243Y-81202996D02*
X159661243Y-81869663D01*
X159661243Y-81298234D02*
X159613624Y-81250615D01*
X159613624Y-81250615D02*
X159518386Y-81202996D01*
X159518386Y-81202996D02*
X159375529Y-81202996D01*
X159375529Y-81202996D02*
X159280291Y-81250615D01*
X159280291Y-81250615D02*
X159232672Y-81345853D01*
X159232672Y-81345853D02*
X159232672Y-81869663D01*
X158804100Y-81822044D02*
X158708862Y-81869663D01*
X158708862Y-81869663D02*
X158518386Y-81869663D01*
X158518386Y-81869663D02*
X158423148Y-81822044D01*
X158423148Y-81822044D02*
X158375529Y-81726805D01*
X158375529Y-81726805D02*
X158375529Y-81679186D01*
X158375529Y-81679186D02*
X158423148Y-81583948D01*
X158423148Y-81583948D02*
X158518386Y-81536329D01*
X158518386Y-81536329D02*
X158661243Y-81536329D01*
X158661243Y-81536329D02*
X158756481Y-81488710D01*
X158756481Y-81488710D02*
X158804100Y-81393472D01*
X158804100Y-81393472D02*
X158804100Y-81345853D01*
X158804100Y-81345853D02*
X158756481Y-81250615D01*
X158756481Y-81250615D02*
X158661243Y-81202996D01*
X158661243Y-81202996D02*
X158518386Y-81202996D01*
X158518386Y-81202996D02*
X158423148Y-81250615D01*
X157566005Y-81822044D02*
X157661243Y-81869663D01*
X157661243Y-81869663D02*
X157851719Y-81869663D01*
X157851719Y-81869663D02*
X157946957Y-81822044D01*
X157946957Y-81822044D02*
X157994576Y-81726805D01*
X157994576Y-81726805D02*
X157994576Y-81345853D01*
X157994576Y-81345853D02*
X157946957Y-81250615D01*
X157946957Y-81250615D02*
X157851719Y-81202996D01*
X157851719Y-81202996D02*
X157661243Y-81202996D01*
X157661243Y-81202996D02*
X157566005Y-81250615D01*
X157566005Y-81250615D02*
X157518386Y-81345853D01*
X157518386Y-81345853D02*
X157518386Y-81441091D01*
X157518386Y-81441091D02*
X157994576Y-81536329D01*
X157089814Y-81202996D02*
X157089814Y-81869663D01*
X157089814Y-81298234D02*
X157042195Y-81250615D01*
X157042195Y-81250615D02*
X156946957Y-81202996D01*
X156946957Y-81202996D02*
X156804100Y-81202996D01*
X156804100Y-81202996D02*
X156708862Y-81250615D01*
X156708862Y-81250615D02*
X156661243Y-81345853D01*
X156661243Y-81345853D02*
X156661243Y-81869663D01*
X179943390Y-93340853D02*
X179806485Y-93388472D01*
X179806485Y-93388472D02*
X179764819Y-93436091D01*
X179764819Y-93436091D02*
X179729104Y-93531329D01*
X179729104Y-93531329D02*
X179746962Y-93674186D01*
X179746962Y-93674186D02*
X179806485Y-93769424D01*
X179806485Y-93769424D02*
X179860057Y-93817044D01*
X179860057Y-93817044D02*
X179961247Y-93864663D01*
X179961247Y-93864663D02*
X180342200Y-93864663D01*
X180342200Y-93864663D02*
X180217200Y-92864663D01*
X180217200Y-92864663D02*
X179883866Y-92864663D01*
X179883866Y-92864663D02*
X179794581Y-92912282D01*
X179794581Y-92912282D02*
X179752914Y-92959901D01*
X179752914Y-92959901D02*
X179717200Y-93055139D01*
X179717200Y-93055139D02*
X179729104Y-93150377D01*
X179729104Y-93150377D02*
X179788628Y-93245615D01*
X179788628Y-93245615D02*
X179842200Y-93293234D01*
X179842200Y-93293234D02*
X179943390Y-93340853D01*
X179943390Y-93340853D02*
X180276723Y-93340853D01*
X178830295Y-93197996D02*
X178913628Y-93864663D01*
X179258866Y-93197996D02*
X179324343Y-93721805D01*
X179324343Y-93721805D02*
X179288628Y-93817044D01*
X179288628Y-93817044D02*
X179199343Y-93864663D01*
X179199343Y-93864663D02*
X179056485Y-93864663D01*
X179056485Y-93864663D02*
X178955295Y-93817044D01*
X178955295Y-93817044D02*
X178901723Y-93769424D01*
X178496961Y-93197996D02*
X178116009Y-93197996D01*
X178312438Y-92864663D02*
X178419581Y-93721805D01*
X178419581Y-93721805D02*
X178383866Y-93817044D01*
X178383866Y-93817044D02*
X178294581Y-93864663D01*
X178294581Y-93864663D02*
X178199342Y-93864663D01*
X177812437Y-93817044D02*
X177818390Y-93864663D01*
X177818390Y-93864663D02*
X177877913Y-93959901D01*
X177877913Y-93959901D02*
X177931485Y-94007520D01*
X176627914Y-93864663D02*
X176502914Y-92864663D01*
X176550533Y-93245615D02*
X176449342Y-93197996D01*
X176449342Y-93197996D02*
X176258866Y-93197996D01*
X176258866Y-93197996D02*
X176169580Y-93245615D01*
X176169580Y-93245615D02*
X176127914Y-93293234D01*
X176127914Y-93293234D02*
X176092199Y-93388472D01*
X176092199Y-93388472D02*
X176127914Y-93674186D01*
X176127914Y-93674186D02*
X176187437Y-93769424D01*
X176187437Y-93769424D02*
X176241009Y-93817044D01*
X176241009Y-93817044D02*
X176342199Y-93864663D01*
X176342199Y-93864663D02*
X176532676Y-93864663D01*
X176532676Y-93864663D02*
X176621961Y-93817044D01*
X175336247Y-93817044D02*
X175437437Y-93864663D01*
X175437437Y-93864663D02*
X175627914Y-93864663D01*
X175627914Y-93864663D02*
X175717199Y-93817044D01*
X175717199Y-93817044D02*
X175752914Y-93721805D01*
X175752914Y-93721805D02*
X175705295Y-93340853D01*
X175705295Y-93340853D02*
X175645771Y-93245615D01*
X175645771Y-93245615D02*
X175544580Y-93197996D01*
X175544580Y-93197996D02*
X175354104Y-93197996D01*
X175354104Y-93197996D02*
X175264818Y-93245615D01*
X175264818Y-93245615D02*
X175229104Y-93340853D01*
X175229104Y-93340853D02*
X175241009Y-93436091D01*
X175241009Y-93436091D02*
X175729104Y-93531329D01*
X174866009Y-93864663D02*
X174741009Y-92864663D01*
X174437437Y-93864663D02*
X174371961Y-93340853D01*
X174371961Y-93340853D02*
X174407675Y-93245615D01*
X174407675Y-93245615D02*
X174496961Y-93197996D01*
X174496961Y-93197996D02*
X174639818Y-93197996D01*
X174639818Y-93197996D02*
X174741009Y-93245615D01*
X174741009Y-93245615D02*
X174794580Y-93293234D01*
X173818390Y-93864663D02*
X173907675Y-93817044D01*
X173907675Y-93817044D02*
X173949342Y-93769424D01*
X173949342Y-93769424D02*
X173985056Y-93674186D01*
X173985056Y-93674186D02*
X173949342Y-93388472D01*
X173949342Y-93388472D02*
X173889818Y-93293234D01*
X173889818Y-93293234D02*
X173836247Y-93245615D01*
X173836247Y-93245615D02*
X173735056Y-93197996D01*
X173735056Y-93197996D02*
X173592199Y-93197996D01*
X173592199Y-93197996D02*
X173502913Y-93245615D01*
X173502913Y-93245615D02*
X173461247Y-93293234D01*
X173461247Y-93293234D02*
X173425532Y-93388472D01*
X173425532Y-93388472D02*
X173461247Y-93674186D01*
X173461247Y-93674186D02*
X173520770Y-93769424D01*
X173520770Y-93769424D02*
X173574342Y-93817044D01*
X173574342Y-93817044D02*
X173675532Y-93864663D01*
X173675532Y-93864663D02*
X173818390Y-93864663D01*
X172913628Y-93864663D02*
X173002913Y-93817044D01*
X173002913Y-93817044D02*
X173038628Y-93721805D01*
X173038628Y-93721805D02*
X172931485Y-92864663D01*
X172104103Y-93864663D02*
X171979103Y-92864663D01*
X172098151Y-93817044D02*
X172199341Y-93864663D01*
X172199341Y-93864663D02*
X172389818Y-93864663D01*
X172389818Y-93864663D02*
X172479103Y-93817044D01*
X172479103Y-93817044D02*
X172520770Y-93769424D01*
X172520770Y-93769424D02*
X172556484Y-93674186D01*
X172556484Y-93674186D02*
X172520770Y-93388472D01*
X172520770Y-93388472D02*
X172461246Y-93293234D01*
X172461246Y-93293234D02*
X172407675Y-93245615D01*
X172407675Y-93245615D02*
X172306484Y-93197996D01*
X172306484Y-93197996D02*
X172116008Y-93197996D01*
X172116008Y-93197996D02*
X172026722Y-93245615D01*
X171574341Y-93817044D02*
X171580294Y-93864663D01*
X171580294Y-93864663D02*
X171639817Y-93959901D01*
X171639817Y-93959901D02*
X171693389Y-94007520D01*
X170360056Y-92864663D02*
X169693389Y-92864663D01*
X169693389Y-92864663D02*
X170485056Y-93864663D01*
X170485056Y-93864663D02*
X169818389Y-93864663D01*
X169437437Y-93864663D02*
X169354103Y-93197996D01*
X169312437Y-92864663D02*
X169366008Y-92912282D01*
X169366008Y-92912282D02*
X169324341Y-92959901D01*
X169324341Y-92959901D02*
X169270770Y-92912282D01*
X169270770Y-92912282D02*
X169312437Y-92864663D01*
X169312437Y-92864663D02*
X169324341Y-92959901D01*
X168818390Y-93864663D02*
X168907675Y-93817044D01*
X168907675Y-93817044D02*
X168949342Y-93769424D01*
X168949342Y-93769424D02*
X168985056Y-93674186D01*
X168985056Y-93674186D02*
X168949342Y-93388472D01*
X168949342Y-93388472D02*
X168889818Y-93293234D01*
X168889818Y-93293234D02*
X168836247Y-93245615D01*
X168836247Y-93245615D02*
X168735056Y-93197996D01*
X168735056Y-93197996D02*
X168592199Y-93197996D01*
X168592199Y-93197996D02*
X168502913Y-93245615D01*
X168502913Y-93245615D02*
X168461247Y-93293234D01*
X168461247Y-93293234D02*
X168425532Y-93388472D01*
X168425532Y-93388472D02*
X168461247Y-93674186D01*
X168461247Y-93674186D02*
X168520770Y-93769424D01*
X168520770Y-93769424D02*
X168574342Y-93817044D01*
X168574342Y-93817044D02*
X168675532Y-93864663D01*
X168675532Y-93864663D02*
X168818390Y-93864663D01*
X167973151Y-93197996D02*
X168056485Y-93864663D01*
X167985056Y-93293234D02*
X167931485Y-93245615D01*
X167931485Y-93245615D02*
X167830294Y-93197996D01*
X167830294Y-93197996D02*
X167687437Y-93197996D01*
X167687437Y-93197996D02*
X167598151Y-93245615D01*
X167598151Y-93245615D02*
X167562437Y-93340853D01*
X167562437Y-93340853D02*
X167627913Y-93864663D01*
X166389818Y-93864663D02*
X166264818Y-92864663D01*
X165961246Y-93864663D02*
X165895770Y-93340853D01*
X165895770Y-93340853D02*
X165931484Y-93245615D01*
X165931484Y-93245615D02*
X166020770Y-93197996D01*
X166020770Y-93197996D02*
X166163627Y-93197996D01*
X166163627Y-93197996D02*
X166264818Y-93245615D01*
X166264818Y-93245615D02*
X166318389Y-93293234D01*
X165056484Y-93864663D02*
X164991008Y-93340853D01*
X164991008Y-93340853D02*
X165026722Y-93245615D01*
X165026722Y-93245615D02*
X165116008Y-93197996D01*
X165116008Y-93197996D02*
X165306484Y-93197996D01*
X165306484Y-93197996D02*
X165407675Y-93245615D01*
X165050532Y-93817044D02*
X165151722Y-93864663D01*
X165151722Y-93864663D02*
X165389818Y-93864663D01*
X165389818Y-93864663D02*
X165479103Y-93817044D01*
X165479103Y-93817044D02*
X165514818Y-93721805D01*
X165514818Y-93721805D02*
X165502913Y-93626567D01*
X165502913Y-93626567D02*
X165443389Y-93531329D01*
X165443389Y-93531329D02*
X165342199Y-93483710D01*
X165342199Y-93483710D02*
X165104103Y-93483710D01*
X165104103Y-93483710D02*
X165002913Y-93436091D01*
X164639817Y-93197996D02*
X164258865Y-93197996D01*
X164455294Y-92864663D02*
X164562437Y-93721805D01*
X164562437Y-93721805D02*
X164526722Y-93817044D01*
X164526722Y-93817044D02*
X164437437Y-93864663D01*
X164437437Y-93864663D02*
X164342198Y-93864663D01*
X164008865Y-93864663D02*
X163883865Y-92864663D01*
X163580293Y-93864663D02*
X163514817Y-93340853D01*
X163514817Y-93340853D02*
X163550531Y-93245615D01*
X163550531Y-93245615D02*
X163639817Y-93197996D01*
X163639817Y-93197996D02*
X163782674Y-93197996D01*
X163782674Y-93197996D02*
X163883865Y-93245615D01*
X163883865Y-93245615D02*
X163937436Y-93293234D01*
X162383864Y-93817044D02*
X162294579Y-93864663D01*
X162294579Y-93864663D02*
X162104102Y-93864663D01*
X162104102Y-93864663D02*
X162002912Y-93817044D01*
X162002912Y-93817044D02*
X161943388Y-93721805D01*
X161943388Y-93721805D02*
X161937436Y-93674186D01*
X161937436Y-93674186D02*
X161973150Y-93578948D01*
X161973150Y-93578948D02*
X162062436Y-93531329D01*
X162062436Y-93531329D02*
X162205293Y-93531329D01*
X162205293Y-93531329D02*
X162294579Y-93483710D01*
X162294579Y-93483710D02*
X162330293Y-93388472D01*
X162330293Y-93388472D02*
X162324341Y-93340853D01*
X162324341Y-93340853D02*
X162264817Y-93245615D01*
X162264817Y-93245615D02*
X162163626Y-93197996D01*
X162163626Y-93197996D02*
X162020769Y-93197996D01*
X162020769Y-93197996D02*
X161931483Y-93245615D01*
X161104102Y-93864663D02*
X161038626Y-93340853D01*
X161038626Y-93340853D02*
X161074340Y-93245615D01*
X161074340Y-93245615D02*
X161163626Y-93197996D01*
X161163626Y-93197996D02*
X161354102Y-93197996D01*
X161354102Y-93197996D02*
X161455293Y-93245615D01*
X161098150Y-93817044D02*
X161199340Y-93864663D01*
X161199340Y-93864663D02*
X161437436Y-93864663D01*
X161437436Y-93864663D02*
X161526721Y-93817044D01*
X161526721Y-93817044D02*
X161562436Y-93721805D01*
X161562436Y-93721805D02*
X161550531Y-93626567D01*
X161550531Y-93626567D02*
X161491007Y-93531329D01*
X161491007Y-93531329D02*
X161389817Y-93483710D01*
X161389817Y-93483710D02*
X161151721Y-93483710D01*
X161151721Y-93483710D02*
X161050531Y-93436091D01*
X160627912Y-93864663D02*
X160544578Y-93197996D01*
X160502912Y-92864663D02*
X160556483Y-92912282D01*
X160556483Y-92912282D02*
X160514816Y-92959901D01*
X160514816Y-92959901D02*
X160461245Y-92912282D01*
X160461245Y-92912282D02*
X160502912Y-92864663D01*
X160502912Y-92864663D02*
X160514816Y-92959901D01*
X159723150Y-93864663D02*
X159598150Y-92864663D01*
X159717198Y-93817044D02*
X159818388Y-93864663D01*
X159818388Y-93864663D02*
X160008865Y-93864663D01*
X160008865Y-93864663D02*
X160098150Y-93817044D01*
X160098150Y-93817044D02*
X160139817Y-93769424D01*
X160139817Y-93769424D02*
X160175531Y-93674186D01*
X160175531Y-93674186D02*
X160139817Y-93388472D01*
X160139817Y-93388472D02*
X160080293Y-93293234D01*
X160080293Y-93293234D02*
X160026722Y-93245615D01*
X160026722Y-93245615D02*
X159925531Y-93197996D01*
X159925531Y-93197996D02*
X159735055Y-93197996D01*
X159735055Y-93197996D02*
X159645769Y-93245615D01*
X159235055Y-93769424D02*
X159193388Y-93817044D01*
X159193388Y-93817044D02*
X159246960Y-93864663D01*
X159246960Y-93864663D02*
X159288626Y-93817044D01*
X159288626Y-93817044D02*
X159235055Y-93769424D01*
X159235055Y-93769424D02*
X159246960Y-93864663D01*
X159169579Y-93245615D02*
X159127912Y-93293234D01*
X159127912Y-93293234D02*
X159181483Y-93340853D01*
X159181483Y-93340853D02*
X159223150Y-93293234D01*
X159223150Y-93293234D02*
X159169579Y-93245615D01*
X159169579Y-93245615D02*
X159181483Y-93340853D01*
X158026722Y-92864663D02*
X157455293Y-92864663D01*
X157866008Y-93864663D02*
X157741008Y-92864663D01*
X157246960Y-93864663D02*
X157121960Y-92864663D01*
X156818388Y-93864663D02*
X156752912Y-93340853D01*
X156752912Y-93340853D02*
X156788626Y-93245615D01*
X156788626Y-93245615D02*
X156877912Y-93197996D01*
X156877912Y-93197996D02*
X157020769Y-93197996D01*
X157020769Y-93197996D02*
X157121960Y-93245615D01*
X157121960Y-93245615D02*
X157175531Y-93293234D01*
X155955293Y-93817044D02*
X156056483Y-93864663D01*
X156056483Y-93864663D02*
X156246960Y-93864663D01*
X156246960Y-93864663D02*
X156336245Y-93817044D01*
X156336245Y-93817044D02*
X156371960Y-93721805D01*
X156371960Y-93721805D02*
X156324341Y-93340853D01*
X156324341Y-93340853D02*
X156264817Y-93245615D01*
X156264817Y-93245615D02*
X156163626Y-93197996D01*
X156163626Y-93197996D02*
X155973150Y-93197996D01*
X155973150Y-93197996D02*
X155883864Y-93245615D01*
X155883864Y-93245615D02*
X155848150Y-93340853D01*
X155848150Y-93340853D02*
X155860055Y-93436091D01*
X155860055Y-93436091D02*
X156348150Y-93531329D01*
X179866009Y-95474663D02*
X180342200Y-95474663D01*
X180342200Y-95474663D02*
X180217200Y-94474663D01*
X179389819Y-95474663D02*
X179479104Y-95427044D01*
X179479104Y-95427044D02*
X179520771Y-95379424D01*
X179520771Y-95379424D02*
X179556485Y-95284186D01*
X179556485Y-95284186D02*
X179520771Y-94998472D01*
X179520771Y-94998472D02*
X179461247Y-94903234D01*
X179461247Y-94903234D02*
X179407676Y-94855615D01*
X179407676Y-94855615D02*
X179306485Y-94807996D01*
X179306485Y-94807996D02*
X179163628Y-94807996D01*
X179163628Y-94807996D02*
X179074342Y-94855615D01*
X179074342Y-94855615D02*
X179032676Y-94903234D01*
X179032676Y-94903234D02*
X178996961Y-94998472D01*
X178996961Y-94998472D02*
X179032676Y-95284186D01*
X179032676Y-95284186D02*
X179092199Y-95379424D01*
X179092199Y-95379424D02*
X179145771Y-95427044D01*
X179145771Y-95427044D02*
X179246961Y-95474663D01*
X179246961Y-95474663D02*
X179389819Y-95474663D01*
X178627914Y-95474663D02*
X178544580Y-94807996D01*
X178568390Y-94998472D02*
X178508866Y-94903234D01*
X178508866Y-94903234D02*
X178455295Y-94855615D01*
X178455295Y-94855615D02*
X178354104Y-94807996D01*
X178354104Y-94807996D02*
X178258866Y-94807996D01*
X177580294Y-95474663D02*
X177455294Y-94474663D01*
X177574342Y-95427044D02*
X177675532Y-95474663D01*
X177675532Y-95474663D02*
X177866009Y-95474663D01*
X177866009Y-95474663D02*
X177955294Y-95427044D01*
X177955294Y-95427044D02*
X177996961Y-95379424D01*
X177996961Y-95379424D02*
X178032675Y-95284186D01*
X178032675Y-95284186D02*
X177996961Y-94998472D01*
X177996961Y-94998472D02*
X177937437Y-94903234D01*
X177937437Y-94903234D02*
X177883866Y-94855615D01*
X177883866Y-94855615D02*
X177782675Y-94807996D01*
X177782675Y-94807996D02*
X177592199Y-94807996D01*
X177592199Y-94807996D02*
X177502913Y-94855615D01*
X176342199Y-95474663D02*
X176217199Y-94474663D01*
X175913627Y-95474663D02*
X175848151Y-94950853D01*
X175848151Y-94950853D02*
X175883865Y-94855615D01*
X175883865Y-94855615D02*
X175973151Y-94807996D01*
X175973151Y-94807996D02*
X176116008Y-94807996D01*
X176116008Y-94807996D02*
X176217199Y-94855615D01*
X176217199Y-94855615D02*
X176270770Y-94903234D01*
X175008865Y-95474663D02*
X174943389Y-94950853D01*
X174943389Y-94950853D02*
X174979103Y-94855615D01*
X174979103Y-94855615D02*
X175068389Y-94807996D01*
X175068389Y-94807996D02*
X175258865Y-94807996D01*
X175258865Y-94807996D02*
X175360056Y-94855615D01*
X175002913Y-95427044D02*
X175104103Y-95474663D01*
X175104103Y-95474663D02*
X175342199Y-95474663D01*
X175342199Y-95474663D02*
X175431484Y-95427044D01*
X175431484Y-95427044D02*
X175467199Y-95331805D01*
X175467199Y-95331805D02*
X175455294Y-95236567D01*
X175455294Y-95236567D02*
X175395770Y-95141329D01*
X175395770Y-95141329D02*
X175294580Y-95093710D01*
X175294580Y-95093710D02*
X175056484Y-95093710D01*
X175056484Y-95093710D02*
X174955294Y-95046091D01*
X174592198Y-94807996D02*
X174211246Y-94807996D01*
X174407675Y-94474663D02*
X174514818Y-95331805D01*
X174514818Y-95331805D02*
X174479103Y-95427044D01*
X174479103Y-95427044D02*
X174389818Y-95474663D01*
X174389818Y-95474663D02*
X174294579Y-95474663D01*
X173961246Y-95474663D02*
X173836246Y-94474663D01*
X173532674Y-95474663D02*
X173467198Y-94950853D01*
X173467198Y-94950853D02*
X173502912Y-94855615D01*
X173502912Y-94855615D02*
X173592198Y-94807996D01*
X173592198Y-94807996D02*
X173735055Y-94807996D01*
X173735055Y-94807996D02*
X173836246Y-94855615D01*
X173836246Y-94855615D02*
X173889817Y-94903234D01*
X172354102Y-94807996D02*
X171973150Y-94807996D01*
X172294579Y-95474663D02*
X172187436Y-94617520D01*
X172187436Y-94617520D02*
X172127912Y-94522282D01*
X172127912Y-94522282D02*
X172026722Y-94474663D01*
X172026722Y-94474663D02*
X171931483Y-94474663D01*
X171580293Y-95474663D02*
X171669578Y-95427044D01*
X171669578Y-95427044D02*
X171711245Y-95379424D01*
X171711245Y-95379424D02*
X171746959Y-95284186D01*
X171746959Y-95284186D02*
X171711245Y-94998472D01*
X171711245Y-94998472D02*
X171651721Y-94903234D01*
X171651721Y-94903234D02*
X171598150Y-94855615D01*
X171598150Y-94855615D02*
X171496959Y-94807996D01*
X171496959Y-94807996D02*
X171354102Y-94807996D01*
X171354102Y-94807996D02*
X171264816Y-94855615D01*
X171264816Y-94855615D02*
X171223150Y-94903234D01*
X171223150Y-94903234D02*
X171187435Y-94998472D01*
X171187435Y-94998472D02*
X171223150Y-95284186D01*
X171223150Y-95284186D02*
X171282673Y-95379424D01*
X171282673Y-95379424D02*
X171336245Y-95427044D01*
X171336245Y-95427044D02*
X171437435Y-95474663D01*
X171437435Y-95474663D02*
X171580293Y-95474663D01*
X170818388Y-95474663D02*
X170735054Y-94807996D01*
X170758864Y-94998472D02*
X170699340Y-94903234D01*
X170699340Y-94903234D02*
X170645769Y-94855615D01*
X170645769Y-94855615D02*
X170544578Y-94807996D01*
X170544578Y-94807996D02*
X170449340Y-94807996D01*
X170241006Y-95427044D02*
X170151721Y-95474663D01*
X170151721Y-95474663D02*
X169961244Y-95474663D01*
X169961244Y-95474663D02*
X169860054Y-95427044D01*
X169860054Y-95427044D02*
X169800530Y-95331805D01*
X169800530Y-95331805D02*
X169794578Y-95284186D01*
X169794578Y-95284186D02*
X169830292Y-95188948D01*
X169830292Y-95188948D02*
X169919578Y-95141329D01*
X169919578Y-95141329D02*
X170062435Y-95141329D01*
X170062435Y-95141329D02*
X170151721Y-95093710D01*
X170151721Y-95093710D02*
X170187435Y-94998472D01*
X170187435Y-94998472D02*
X170181483Y-94950853D01*
X170181483Y-94950853D02*
X170121959Y-94855615D01*
X170121959Y-94855615D02*
X170020768Y-94807996D01*
X170020768Y-94807996D02*
X169877911Y-94807996D01*
X169877911Y-94807996D02*
X169788625Y-94855615D01*
X168961244Y-95474663D02*
X168895768Y-94950853D01*
X168895768Y-94950853D02*
X168931482Y-94855615D01*
X168931482Y-94855615D02*
X169020768Y-94807996D01*
X169020768Y-94807996D02*
X169211244Y-94807996D01*
X169211244Y-94807996D02*
X169312435Y-94855615D01*
X168955292Y-95427044D02*
X169056482Y-95474663D01*
X169056482Y-95474663D02*
X169294578Y-95474663D01*
X169294578Y-95474663D02*
X169383863Y-95427044D01*
X169383863Y-95427044D02*
X169419578Y-95331805D01*
X169419578Y-95331805D02*
X169407673Y-95236567D01*
X169407673Y-95236567D02*
X169348149Y-95141329D01*
X169348149Y-95141329D02*
X169246959Y-95093710D01*
X169246959Y-95093710D02*
X169008863Y-95093710D01*
X169008863Y-95093710D02*
X168907673Y-95046091D01*
X168485054Y-95474663D02*
X168360054Y-94474663D01*
X168342197Y-95093710D02*
X168104101Y-95474663D01*
X168020768Y-94807996D02*
X168449339Y-95188948D01*
X167288625Y-95427044D02*
X167389815Y-95474663D01*
X167389815Y-95474663D02*
X167580292Y-95474663D01*
X167580292Y-95474663D02*
X167669577Y-95427044D01*
X167669577Y-95427044D02*
X167705292Y-95331805D01*
X167705292Y-95331805D02*
X167657673Y-94950853D01*
X167657673Y-94950853D02*
X167598149Y-94855615D01*
X167598149Y-94855615D02*
X167496958Y-94807996D01*
X167496958Y-94807996D02*
X167306482Y-94807996D01*
X167306482Y-94807996D02*
X167217196Y-94855615D01*
X167217196Y-94855615D02*
X167181482Y-94950853D01*
X167181482Y-94950853D02*
X167193387Y-95046091D01*
X167193387Y-95046091D02*
X167681482Y-95141329D01*
X166735053Y-94807996D02*
X166818387Y-95474663D01*
X166746958Y-94903234D02*
X166693387Y-94855615D01*
X166693387Y-94855615D02*
X166592196Y-94807996D01*
X166592196Y-94807996D02*
X166449339Y-94807996D01*
X166449339Y-94807996D02*
X166360053Y-94855615D01*
X166360053Y-94855615D02*
X166324339Y-94950853D01*
X166324339Y-94950853D02*
X166389815Y-95474663D01*
X165151720Y-95474663D02*
X165068386Y-94807996D01*
X165080291Y-94903234D02*
X165026720Y-94855615D01*
X165026720Y-94855615D02*
X164925529Y-94807996D01*
X164925529Y-94807996D02*
X164782672Y-94807996D01*
X164782672Y-94807996D02*
X164693386Y-94855615D01*
X164693386Y-94855615D02*
X164657672Y-94950853D01*
X164657672Y-94950853D02*
X164723148Y-95474663D01*
X164657672Y-94950853D02*
X164598148Y-94855615D01*
X164598148Y-94855615D02*
X164496958Y-94807996D01*
X164496958Y-94807996D02*
X164354101Y-94807996D01*
X164354101Y-94807996D02*
X164264815Y-94855615D01*
X164264815Y-94855615D02*
X164229101Y-94950853D01*
X164229101Y-94950853D02*
X164294577Y-95474663D01*
X163431482Y-95427044D02*
X163532672Y-95474663D01*
X163532672Y-95474663D02*
X163723149Y-95474663D01*
X163723149Y-95474663D02*
X163812434Y-95427044D01*
X163812434Y-95427044D02*
X163848149Y-95331805D01*
X163848149Y-95331805D02*
X163800530Y-94950853D01*
X163800530Y-94950853D02*
X163741006Y-94855615D01*
X163741006Y-94855615D02*
X163639815Y-94807996D01*
X163639815Y-94807996D02*
X163449339Y-94807996D01*
X163449339Y-94807996D02*
X163360053Y-94855615D01*
X163360053Y-94855615D02*
X163324339Y-94950853D01*
X163324339Y-94950853D02*
X163336244Y-95046091D01*
X163336244Y-95046091D02*
X163824339Y-95141329D01*
X162907672Y-95427044D02*
X162913625Y-95474663D01*
X162913625Y-95474663D02*
X162973148Y-95569901D01*
X162973148Y-95569901D02*
X163026720Y-95617520D01*
X161294577Y-95474663D02*
X161229101Y-94950853D01*
X161229101Y-94950853D02*
X161264815Y-94855615D01*
X161264815Y-94855615D02*
X161354101Y-94807996D01*
X161354101Y-94807996D02*
X161544577Y-94807996D01*
X161544577Y-94807996D02*
X161645768Y-94855615D01*
X161288625Y-95427044D02*
X161389815Y-95474663D01*
X161389815Y-95474663D02*
X161627911Y-95474663D01*
X161627911Y-95474663D02*
X161717196Y-95427044D01*
X161717196Y-95427044D02*
X161752911Y-95331805D01*
X161752911Y-95331805D02*
X161741006Y-95236567D01*
X161741006Y-95236567D02*
X161681482Y-95141329D01*
X161681482Y-95141329D02*
X161580292Y-95093710D01*
X161580292Y-95093710D02*
X161342196Y-95093710D01*
X161342196Y-95093710D02*
X161241006Y-95046091D01*
X160735053Y-94807996D02*
X160818387Y-95474663D01*
X160746958Y-94903234D02*
X160693387Y-94855615D01*
X160693387Y-94855615D02*
X160592196Y-94807996D01*
X160592196Y-94807996D02*
X160449339Y-94807996D01*
X160449339Y-94807996D02*
X160360053Y-94855615D01*
X160360053Y-94855615D02*
X160324339Y-94950853D01*
X160324339Y-94950853D02*
X160389815Y-95474663D01*
X159485053Y-95474663D02*
X159360053Y-94474663D01*
X159479101Y-95427044D02*
X159580291Y-95474663D01*
X159580291Y-95474663D02*
X159770768Y-95474663D01*
X159770768Y-95474663D02*
X159860053Y-95427044D01*
X159860053Y-95427044D02*
X159901720Y-95379424D01*
X159901720Y-95379424D02*
X159937434Y-95284186D01*
X159937434Y-95284186D02*
X159901720Y-94998472D01*
X159901720Y-94998472D02*
X159842196Y-94903234D01*
X159842196Y-94903234D02*
X159788625Y-94855615D01*
X159788625Y-94855615D02*
X159687434Y-94807996D01*
X159687434Y-94807996D02*
X159496958Y-94807996D01*
X159496958Y-94807996D02*
X159407672Y-94855615D01*
X158246958Y-95474663D02*
X158163624Y-94807996D01*
X158175529Y-94903234D02*
X158121958Y-94855615D01*
X158121958Y-94855615D02*
X158020767Y-94807996D01*
X158020767Y-94807996D02*
X157877910Y-94807996D01*
X157877910Y-94807996D02*
X157788624Y-94855615D01*
X157788624Y-94855615D02*
X157752910Y-94950853D01*
X157752910Y-94950853D02*
X157818386Y-95474663D01*
X157752910Y-94950853D02*
X157693386Y-94855615D01*
X157693386Y-94855615D02*
X157592196Y-94807996D01*
X157592196Y-94807996D02*
X157449339Y-94807996D01*
X157449339Y-94807996D02*
X157360053Y-94855615D01*
X157360053Y-94855615D02*
X157324339Y-94950853D01*
X157324339Y-94950853D02*
X157389815Y-95474663D01*
X156925529Y-94807996D02*
X156770768Y-95474663D01*
X156449339Y-94807996D02*
X156770768Y-95474663D01*
X156770768Y-95474663D02*
X156895768Y-95712758D01*
X156895768Y-95712758D02*
X156949339Y-95760377D01*
X156949339Y-95760377D02*
X157050529Y-95807996D01*
X179866009Y-97084663D02*
X180342200Y-97084663D01*
X180342200Y-97084663D02*
X180217200Y-96084663D01*
X179389819Y-97084663D02*
X179479104Y-97037044D01*
X179479104Y-97037044D02*
X179520771Y-96989424D01*
X179520771Y-96989424D02*
X179556485Y-96894186D01*
X179556485Y-96894186D02*
X179520771Y-96608472D01*
X179520771Y-96608472D02*
X179461247Y-96513234D01*
X179461247Y-96513234D02*
X179407676Y-96465615D01*
X179407676Y-96465615D02*
X179306485Y-96417996D01*
X179306485Y-96417996D02*
X179163628Y-96417996D01*
X179163628Y-96417996D02*
X179074342Y-96465615D01*
X179074342Y-96465615D02*
X179032676Y-96513234D01*
X179032676Y-96513234D02*
X178996961Y-96608472D01*
X178996961Y-96608472D02*
X179032676Y-96894186D01*
X179032676Y-96894186D02*
X179092199Y-96989424D01*
X179092199Y-96989424D02*
X179145771Y-97037044D01*
X179145771Y-97037044D02*
X179246961Y-97084663D01*
X179246961Y-97084663D02*
X179389819Y-97084663D01*
X178627914Y-97084663D02*
X178544580Y-96417996D01*
X178568390Y-96608472D02*
X178508866Y-96513234D01*
X178508866Y-96513234D02*
X178455295Y-96465615D01*
X178455295Y-96465615D02*
X178354104Y-96417996D01*
X178354104Y-96417996D02*
X178258866Y-96417996D01*
X177580294Y-97084663D02*
X177455294Y-96084663D01*
X177574342Y-97037044D02*
X177675532Y-97084663D01*
X177675532Y-97084663D02*
X177866009Y-97084663D01*
X177866009Y-97084663D02*
X177955294Y-97037044D01*
X177955294Y-97037044D02*
X177996961Y-96989424D01*
X177996961Y-96989424D02*
X178032675Y-96894186D01*
X178032675Y-96894186D02*
X177996961Y-96608472D01*
X177996961Y-96608472D02*
X177937437Y-96513234D01*
X177937437Y-96513234D02*
X177883866Y-96465615D01*
X177883866Y-96465615D02*
X177782675Y-96417996D01*
X177782675Y-96417996D02*
X177592199Y-96417996D01*
X177592199Y-96417996D02*
X177502913Y-96465615D01*
X176342199Y-97084663D02*
X176217199Y-96084663D01*
X175913627Y-97084663D02*
X175848151Y-96560853D01*
X175848151Y-96560853D02*
X175883865Y-96465615D01*
X175883865Y-96465615D02*
X175973151Y-96417996D01*
X175973151Y-96417996D02*
X176116008Y-96417996D01*
X176116008Y-96417996D02*
X176217199Y-96465615D01*
X176217199Y-96465615D02*
X176270770Y-96513234D01*
X175008865Y-97084663D02*
X174943389Y-96560853D01*
X174943389Y-96560853D02*
X174979103Y-96465615D01*
X174979103Y-96465615D02*
X175068389Y-96417996D01*
X175068389Y-96417996D02*
X175258865Y-96417996D01*
X175258865Y-96417996D02*
X175360056Y-96465615D01*
X175002913Y-97037044D02*
X175104103Y-97084663D01*
X175104103Y-97084663D02*
X175342199Y-97084663D01*
X175342199Y-97084663D02*
X175431484Y-97037044D01*
X175431484Y-97037044D02*
X175467199Y-96941805D01*
X175467199Y-96941805D02*
X175455294Y-96846567D01*
X175455294Y-96846567D02*
X175395770Y-96751329D01*
X175395770Y-96751329D02*
X175294580Y-96703710D01*
X175294580Y-96703710D02*
X175056484Y-96703710D01*
X175056484Y-96703710D02*
X174955294Y-96656091D01*
X174592198Y-96417996D02*
X174211246Y-96417996D01*
X174407675Y-96084663D02*
X174514818Y-96941805D01*
X174514818Y-96941805D02*
X174479103Y-97037044D01*
X174479103Y-97037044D02*
X174389818Y-97084663D01*
X174389818Y-97084663D02*
X174294579Y-97084663D01*
X173961246Y-97084663D02*
X173836246Y-96084663D01*
X173532674Y-97084663D02*
X173467198Y-96560853D01*
X173467198Y-96560853D02*
X173502912Y-96465615D01*
X173502912Y-96465615D02*
X173592198Y-96417996D01*
X173592198Y-96417996D02*
X173735055Y-96417996D01*
X173735055Y-96417996D02*
X173836246Y-96465615D01*
X173836246Y-96465615D02*
X173889817Y-96513234D01*
X172354102Y-96417996D02*
X171973150Y-96417996D01*
X172294579Y-97084663D02*
X172187436Y-96227520D01*
X172187436Y-96227520D02*
X172127912Y-96132282D01*
X172127912Y-96132282D02*
X172026722Y-96084663D01*
X172026722Y-96084663D02*
X171931483Y-96084663D01*
X171580293Y-97084663D02*
X171669578Y-97037044D01*
X171669578Y-97037044D02*
X171711245Y-96989424D01*
X171711245Y-96989424D02*
X171746959Y-96894186D01*
X171746959Y-96894186D02*
X171711245Y-96608472D01*
X171711245Y-96608472D02*
X171651721Y-96513234D01*
X171651721Y-96513234D02*
X171598150Y-96465615D01*
X171598150Y-96465615D02*
X171496959Y-96417996D01*
X171496959Y-96417996D02*
X171354102Y-96417996D01*
X171354102Y-96417996D02*
X171264816Y-96465615D01*
X171264816Y-96465615D02*
X171223150Y-96513234D01*
X171223150Y-96513234D02*
X171187435Y-96608472D01*
X171187435Y-96608472D02*
X171223150Y-96894186D01*
X171223150Y-96894186D02*
X171282673Y-96989424D01*
X171282673Y-96989424D02*
X171336245Y-97037044D01*
X171336245Y-97037044D02*
X171437435Y-97084663D01*
X171437435Y-97084663D02*
X171580293Y-97084663D01*
X170818388Y-97084663D02*
X170735054Y-96417996D01*
X170758864Y-96608472D02*
X170699340Y-96513234D01*
X170699340Y-96513234D02*
X170645769Y-96465615D01*
X170645769Y-96465615D02*
X170544578Y-96417996D01*
X170544578Y-96417996D02*
X170449340Y-96417996D01*
X169687435Y-96417996D02*
X169788625Y-97227520D01*
X169788625Y-97227520D02*
X169848149Y-97322758D01*
X169848149Y-97322758D02*
X169901721Y-97370377D01*
X169901721Y-97370377D02*
X170002911Y-97417996D01*
X170002911Y-97417996D02*
X170145768Y-97417996D01*
X170145768Y-97417996D02*
X170235054Y-97370377D01*
X169764816Y-97037044D02*
X169866006Y-97084663D01*
X169866006Y-97084663D02*
X170056483Y-97084663D01*
X170056483Y-97084663D02*
X170145768Y-97037044D01*
X170145768Y-97037044D02*
X170187435Y-96989424D01*
X170187435Y-96989424D02*
X170223149Y-96894186D01*
X170223149Y-96894186D02*
X170187435Y-96608472D01*
X170187435Y-96608472D02*
X170127911Y-96513234D01*
X170127911Y-96513234D02*
X170074340Y-96465615D01*
X170074340Y-96465615D02*
X169973149Y-96417996D01*
X169973149Y-96417996D02*
X169782673Y-96417996D01*
X169782673Y-96417996D02*
X169693387Y-96465615D01*
X169151721Y-97084663D02*
X169241006Y-97037044D01*
X169241006Y-97037044D02*
X169282673Y-96989424D01*
X169282673Y-96989424D02*
X169318387Y-96894186D01*
X169318387Y-96894186D02*
X169282673Y-96608472D01*
X169282673Y-96608472D02*
X169223149Y-96513234D01*
X169223149Y-96513234D02*
X169169578Y-96465615D01*
X169169578Y-96465615D02*
X169068387Y-96417996D01*
X169068387Y-96417996D02*
X168925530Y-96417996D01*
X168925530Y-96417996D02*
X168836244Y-96465615D01*
X168836244Y-96465615D02*
X168794578Y-96513234D01*
X168794578Y-96513234D02*
X168758863Y-96608472D01*
X168758863Y-96608472D02*
X168794578Y-96894186D01*
X168794578Y-96894186D02*
X168854101Y-96989424D01*
X168854101Y-96989424D02*
X168907673Y-97037044D01*
X168907673Y-97037044D02*
X169008863Y-97084663D01*
X169008863Y-97084663D02*
X169151721Y-97084663D01*
X168449339Y-96417996D02*
X168068387Y-96417996D01*
X168264816Y-96084663D02*
X168371959Y-96941805D01*
X168371959Y-96941805D02*
X168336244Y-97037044D01*
X168336244Y-97037044D02*
X168246959Y-97084663D01*
X168246959Y-97084663D02*
X168151720Y-97084663D01*
X167877910Y-96417996D02*
X167496958Y-96417996D01*
X167693387Y-96084663D02*
X167800530Y-96941805D01*
X167800530Y-96941805D02*
X167764815Y-97037044D01*
X167764815Y-97037044D02*
X167675530Y-97084663D01*
X167675530Y-97084663D02*
X167580291Y-97084663D01*
X166860053Y-97037044D02*
X166961243Y-97084663D01*
X166961243Y-97084663D02*
X167151720Y-97084663D01*
X167151720Y-97084663D02*
X167241005Y-97037044D01*
X167241005Y-97037044D02*
X167276720Y-96941805D01*
X167276720Y-96941805D02*
X167229101Y-96560853D01*
X167229101Y-96560853D02*
X167169577Y-96465615D01*
X167169577Y-96465615D02*
X167068386Y-96417996D01*
X167068386Y-96417996D02*
X166877910Y-96417996D01*
X166877910Y-96417996D02*
X166788624Y-96465615D01*
X166788624Y-96465615D02*
X166752910Y-96560853D01*
X166752910Y-96560853D02*
X166764815Y-96656091D01*
X166764815Y-96656091D02*
X167252910Y-96751329D01*
X166306481Y-96417996D02*
X166389815Y-97084663D01*
X166318386Y-96513234D02*
X166264815Y-96465615D01*
X166264815Y-96465615D02*
X166163624Y-96417996D01*
X166163624Y-96417996D02*
X166020767Y-96417996D01*
X166020767Y-96417996D02*
X165931481Y-96465615D01*
X165931481Y-96465615D02*
X165895767Y-96560853D01*
X165895767Y-96560853D02*
X165961243Y-97084663D01*
X164723148Y-97084663D02*
X164639814Y-96417996D01*
X164651719Y-96513234D02*
X164598148Y-96465615D01*
X164598148Y-96465615D02*
X164496957Y-96417996D01*
X164496957Y-96417996D02*
X164354100Y-96417996D01*
X164354100Y-96417996D02*
X164264814Y-96465615D01*
X164264814Y-96465615D02*
X164229100Y-96560853D01*
X164229100Y-96560853D02*
X164294576Y-97084663D01*
X164229100Y-96560853D02*
X164169576Y-96465615D01*
X164169576Y-96465615D02*
X164068386Y-96417996D01*
X164068386Y-96417996D02*
X163925529Y-96417996D01*
X163925529Y-96417996D02*
X163836243Y-96465615D01*
X163836243Y-96465615D02*
X163800529Y-96560853D01*
X163800529Y-96560853D02*
X163866005Y-97084663D01*
X163002910Y-97037044D02*
X163104100Y-97084663D01*
X163104100Y-97084663D02*
X163294577Y-97084663D01*
X163294577Y-97084663D02*
X163383862Y-97037044D01*
X163383862Y-97037044D02*
X163419577Y-96941805D01*
X163419577Y-96941805D02*
X163371958Y-96560853D01*
X163371958Y-96560853D02*
X163312434Y-96465615D01*
X163312434Y-96465615D02*
X163211243Y-96417996D01*
X163211243Y-96417996D02*
X163020767Y-96417996D01*
X163020767Y-96417996D02*
X162931481Y-96465615D01*
X162931481Y-96465615D02*
X162895767Y-96560853D01*
X162895767Y-96560853D02*
X162907672Y-96656091D01*
X162907672Y-96656091D02*
X163395767Y-96751329D01*
X162485053Y-96703710D02*
X161723148Y-96703710D01*
X161294577Y-97084663D02*
X161169577Y-96084663D01*
X161217196Y-96465615D02*
X161116005Y-96417996D01*
X161116005Y-96417996D02*
X160925529Y-96417996D01*
X160925529Y-96417996D02*
X160836243Y-96465615D01*
X160836243Y-96465615D02*
X160794577Y-96513234D01*
X160794577Y-96513234D02*
X160758862Y-96608472D01*
X160758862Y-96608472D02*
X160794577Y-96894186D01*
X160794577Y-96894186D02*
X160854100Y-96989424D01*
X160854100Y-96989424D02*
X160907672Y-97037044D01*
X160907672Y-97037044D02*
X161008862Y-97084663D01*
X161008862Y-97084663D02*
X161199339Y-97084663D01*
X161199339Y-97084663D02*
X161288624Y-97037044D01*
X159877910Y-96417996D02*
X159961243Y-97084663D01*
X160306481Y-96417996D02*
X160371958Y-96941805D01*
X160371958Y-96941805D02*
X160336243Y-97037044D01*
X160336243Y-97037044D02*
X160246958Y-97084663D01*
X160246958Y-97084663D02*
X160104100Y-97084663D01*
X160104100Y-97084663D02*
X160002910Y-97037044D01*
X160002910Y-97037044D02*
X159949338Y-96989424D01*
X159544576Y-96417996D02*
X159163624Y-96417996D01*
X159360053Y-96084663D02*
X159467196Y-96941805D01*
X159467196Y-96941805D02*
X159431481Y-97037044D01*
X159431481Y-97037044D02*
X159342196Y-97084663D01*
X159342196Y-97084663D02*
X159246957Y-97084663D01*
X158151719Y-97084663D02*
X158026719Y-96084663D01*
X157723147Y-97084663D02*
X157657671Y-96560853D01*
X157657671Y-96560853D02*
X157693385Y-96465615D01*
X157693385Y-96465615D02*
X157782671Y-96417996D01*
X157782671Y-96417996D02*
X157925528Y-96417996D01*
X157925528Y-96417996D02*
X158026719Y-96465615D01*
X158026719Y-96465615D02*
X158080290Y-96513234D01*
X156860052Y-97037044D02*
X156961242Y-97084663D01*
X156961242Y-97084663D02*
X157151719Y-97084663D01*
X157151719Y-97084663D02*
X157241004Y-97037044D01*
X157241004Y-97037044D02*
X157276719Y-96941805D01*
X157276719Y-96941805D02*
X157229100Y-96560853D01*
X157229100Y-96560853D02*
X157169576Y-96465615D01*
X157169576Y-96465615D02*
X157068385Y-96417996D01*
X157068385Y-96417996D02*
X156877909Y-96417996D01*
X156877909Y-96417996D02*
X156788623Y-96465615D01*
X156788623Y-96465615D02*
X156752909Y-96560853D01*
X156752909Y-96560853D02*
X156764814Y-96656091D01*
X156764814Y-96656091D02*
X157252909Y-96751329D01*
X180354104Y-98027996D02*
X180246962Y-98694663D01*
X180246962Y-98694663D02*
X179996962Y-98218472D01*
X179996962Y-98218472D02*
X179866009Y-98694663D01*
X179866009Y-98694663D02*
X179592200Y-98027996D01*
X179294581Y-98694663D02*
X179211247Y-98027996D01*
X179169581Y-97694663D02*
X179223152Y-97742282D01*
X179223152Y-97742282D02*
X179181485Y-97789901D01*
X179181485Y-97789901D02*
X179127914Y-97742282D01*
X179127914Y-97742282D02*
X179169581Y-97694663D01*
X179169581Y-97694663D02*
X179181485Y-97789901D01*
X178675534Y-98694663D02*
X178764819Y-98647044D01*
X178764819Y-98647044D02*
X178800534Y-98551805D01*
X178800534Y-98551805D02*
X178693391Y-97694663D01*
X178151724Y-98694663D02*
X178241009Y-98647044D01*
X178241009Y-98647044D02*
X178276724Y-98551805D01*
X178276724Y-98551805D02*
X178169581Y-97694663D01*
X177050532Y-98647044D02*
X176961247Y-98694663D01*
X176961247Y-98694663D02*
X176770770Y-98694663D01*
X176770770Y-98694663D02*
X176669580Y-98647044D01*
X176669580Y-98647044D02*
X176610056Y-98551805D01*
X176610056Y-98551805D02*
X176604104Y-98504186D01*
X176604104Y-98504186D02*
X176639818Y-98408948D01*
X176639818Y-98408948D02*
X176729104Y-98361329D01*
X176729104Y-98361329D02*
X176871961Y-98361329D01*
X176871961Y-98361329D02*
X176961247Y-98313710D01*
X176961247Y-98313710D02*
X176996961Y-98218472D01*
X176996961Y-98218472D02*
X176991009Y-98170853D01*
X176991009Y-98170853D02*
X176931485Y-98075615D01*
X176931485Y-98075615D02*
X176830294Y-98027996D01*
X176830294Y-98027996D02*
X176687437Y-98027996D01*
X176687437Y-98027996D02*
X176598151Y-98075615D01*
X176199342Y-98694663D02*
X176074342Y-97694663D01*
X175770770Y-98694663D02*
X175705294Y-98170853D01*
X175705294Y-98170853D02*
X175741008Y-98075615D01*
X175741008Y-98075615D02*
X175830294Y-98027996D01*
X175830294Y-98027996D02*
X175973151Y-98027996D01*
X175973151Y-98027996D02*
X176074342Y-98075615D01*
X176074342Y-98075615D02*
X176127913Y-98123234D01*
X175151723Y-98694663D02*
X175241008Y-98647044D01*
X175241008Y-98647044D02*
X175282675Y-98599424D01*
X175282675Y-98599424D02*
X175318389Y-98504186D01*
X175318389Y-98504186D02*
X175282675Y-98218472D01*
X175282675Y-98218472D02*
X175223151Y-98123234D01*
X175223151Y-98123234D02*
X175169580Y-98075615D01*
X175169580Y-98075615D02*
X175068389Y-98027996D01*
X175068389Y-98027996D02*
X174925532Y-98027996D01*
X174925532Y-98027996D02*
X174836246Y-98075615D01*
X174836246Y-98075615D02*
X174794580Y-98123234D01*
X174794580Y-98123234D02*
X174758865Y-98218472D01*
X174758865Y-98218472D02*
X174794580Y-98504186D01*
X174794580Y-98504186D02*
X174854103Y-98599424D01*
X174854103Y-98599424D02*
X174907675Y-98647044D01*
X174907675Y-98647044D02*
X175008865Y-98694663D01*
X175008865Y-98694663D02*
X175151723Y-98694663D01*
X174401722Y-98027996D02*
X174294580Y-98694663D01*
X174294580Y-98694663D02*
X174044580Y-98218472D01*
X174044580Y-98218472D02*
X173913627Y-98694663D01*
X173913627Y-98694663D02*
X173639818Y-98027996D01*
X172639817Y-98027996D02*
X172258865Y-98027996D01*
X172455294Y-97694663D02*
X172562437Y-98551805D01*
X172562437Y-98551805D02*
X172526722Y-98647044D01*
X172526722Y-98647044D02*
X172437437Y-98694663D01*
X172437437Y-98694663D02*
X172342198Y-98694663D01*
X172008865Y-98694663D02*
X171883865Y-97694663D01*
X171580293Y-98694663D02*
X171514817Y-98170853D01*
X171514817Y-98170853D02*
X171550531Y-98075615D01*
X171550531Y-98075615D02*
X171639817Y-98027996D01*
X171639817Y-98027996D02*
X171782674Y-98027996D01*
X171782674Y-98027996D02*
X171883865Y-98075615D01*
X171883865Y-98075615D02*
X171937436Y-98123234D01*
X170675531Y-98694663D02*
X170610055Y-98170853D01*
X170610055Y-98170853D02*
X170645769Y-98075615D01*
X170645769Y-98075615D02*
X170735055Y-98027996D01*
X170735055Y-98027996D02*
X170925531Y-98027996D01*
X170925531Y-98027996D02*
X171026722Y-98075615D01*
X170669579Y-98647044D02*
X170770769Y-98694663D01*
X170770769Y-98694663D02*
X171008865Y-98694663D01*
X171008865Y-98694663D02*
X171098150Y-98647044D01*
X171098150Y-98647044D02*
X171133865Y-98551805D01*
X171133865Y-98551805D02*
X171121960Y-98456567D01*
X171121960Y-98456567D02*
X171062436Y-98361329D01*
X171062436Y-98361329D02*
X170961246Y-98313710D01*
X170961246Y-98313710D02*
X170723150Y-98313710D01*
X170723150Y-98313710D02*
X170621960Y-98266091D01*
X170258864Y-98027996D02*
X169877912Y-98027996D01*
X170074341Y-97694663D02*
X170181484Y-98551805D01*
X170181484Y-98551805D02*
X170145769Y-98647044D01*
X170145769Y-98647044D02*
X170056484Y-98694663D01*
X170056484Y-98694663D02*
X169961245Y-98694663D01*
X168866007Y-98694663D02*
X168741007Y-97694663D01*
X168437435Y-98694663D02*
X168371959Y-98170853D01*
X168371959Y-98170853D02*
X168407673Y-98075615D01*
X168407673Y-98075615D02*
X168496959Y-98027996D01*
X168496959Y-98027996D02*
X168639816Y-98027996D01*
X168639816Y-98027996D02*
X168741007Y-98075615D01*
X168741007Y-98075615D02*
X168794578Y-98123234D01*
X167574340Y-98647044D02*
X167675530Y-98694663D01*
X167675530Y-98694663D02*
X167866007Y-98694663D01*
X167866007Y-98694663D02*
X167955292Y-98647044D01*
X167955292Y-98647044D02*
X167991007Y-98551805D01*
X167991007Y-98551805D02*
X167943388Y-98170853D01*
X167943388Y-98170853D02*
X167883864Y-98075615D01*
X167883864Y-98075615D02*
X167782673Y-98027996D01*
X167782673Y-98027996D02*
X167592197Y-98027996D01*
X167592197Y-98027996D02*
X167502911Y-98075615D01*
X167502911Y-98075615D02*
X167467197Y-98170853D01*
X167467197Y-98170853D02*
X167479102Y-98266091D01*
X167479102Y-98266091D02*
X167967197Y-98361329D01*
X166342197Y-98694663D02*
X166217197Y-97694663D01*
X165913625Y-98694663D02*
X165848149Y-98170853D01*
X165848149Y-98170853D02*
X165883863Y-98075615D01*
X165883863Y-98075615D02*
X165973149Y-98027996D01*
X165973149Y-98027996D02*
X166116006Y-98027996D01*
X166116006Y-98027996D02*
X166217197Y-98075615D01*
X166217197Y-98075615D02*
X166270768Y-98123234D01*
X165008863Y-98694663D02*
X164943387Y-98170853D01*
X164943387Y-98170853D02*
X164979101Y-98075615D01*
X164979101Y-98075615D02*
X165068387Y-98027996D01*
X165068387Y-98027996D02*
X165258863Y-98027996D01*
X165258863Y-98027996D02*
X165360054Y-98075615D01*
X165002911Y-98647044D02*
X165104101Y-98694663D01*
X165104101Y-98694663D02*
X165342197Y-98694663D01*
X165342197Y-98694663D02*
X165431482Y-98647044D01*
X165431482Y-98647044D02*
X165467197Y-98551805D01*
X165467197Y-98551805D02*
X165455292Y-98456567D01*
X165455292Y-98456567D02*
X165395768Y-98361329D01*
X165395768Y-98361329D02*
X165294578Y-98313710D01*
X165294578Y-98313710D02*
X165056482Y-98313710D01*
X165056482Y-98313710D02*
X164955292Y-98266091D01*
X164592196Y-98027996D02*
X164211244Y-98027996D01*
X164407673Y-97694663D02*
X164514816Y-98551805D01*
X164514816Y-98551805D02*
X164479101Y-98647044D01*
X164479101Y-98647044D02*
X164389816Y-98694663D01*
X164389816Y-98694663D02*
X164294577Y-98694663D01*
X163961244Y-98694663D02*
X163836244Y-97694663D01*
X163532672Y-98694663D02*
X163467196Y-98170853D01*
X163467196Y-98170853D02*
X163502910Y-98075615D01*
X163502910Y-98075615D02*
X163592196Y-98027996D01*
X163592196Y-98027996D02*
X163735053Y-98027996D01*
X163735053Y-98027996D02*
X163836244Y-98075615D01*
X163836244Y-98075615D02*
X163889815Y-98123234D01*
X162211243Y-98027996D02*
X162294577Y-98694663D01*
X162223148Y-98123234D02*
X162169577Y-98075615D01*
X162169577Y-98075615D02*
X162068386Y-98027996D01*
X162068386Y-98027996D02*
X161925529Y-98027996D01*
X161925529Y-98027996D02*
X161836243Y-98075615D01*
X161836243Y-98075615D02*
X161800529Y-98170853D01*
X161800529Y-98170853D02*
X161866005Y-98694663D01*
X161246958Y-98694663D02*
X161336243Y-98647044D01*
X161336243Y-98647044D02*
X161377910Y-98599424D01*
X161377910Y-98599424D02*
X161413624Y-98504186D01*
X161413624Y-98504186D02*
X161377910Y-98218472D01*
X161377910Y-98218472D02*
X161318386Y-98123234D01*
X161318386Y-98123234D02*
X161264815Y-98075615D01*
X161264815Y-98075615D02*
X161163624Y-98027996D01*
X161163624Y-98027996D02*
X161020767Y-98027996D01*
X161020767Y-98027996D02*
X160931481Y-98075615D01*
X160931481Y-98075615D02*
X160889815Y-98123234D01*
X160889815Y-98123234D02*
X160854100Y-98218472D01*
X160854100Y-98218472D02*
X160889815Y-98504186D01*
X160889815Y-98504186D02*
X160949338Y-98599424D01*
X160949338Y-98599424D02*
X161002910Y-98647044D01*
X161002910Y-98647044D02*
X161104100Y-98694663D01*
X161104100Y-98694663D02*
X161246958Y-98694663D01*
X160544576Y-98027996D02*
X160163624Y-98027996D01*
X160360053Y-97694663D02*
X160467196Y-98551805D01*
X160467196Y-98551805D02*
X160431481Y-98647044D01*
X160431481Y-98647044D02*
X160342196Y-98694663D01*
X160342196Y-98694663D02*
X160246957Y-98694663D01*
X159901719Y-98599424D02*
X159860052Y-98647044D01*
X159860052Y-98647044D02*
X159913624Y-98694663D01*
X159913624Y-98694663D02*
X159955290Y-98647044D01*
X159955290Y-98647044D02*
X159901719Y-98599424D01*
X159901719Y-98599424D02*
X159913624Y-98694663D01*
X179818390Y-101914663D02*
X180389819Y-101914663D01*
X180104104Y-101914663D02*
X179979104Y-100914663D01*
X179979104Y-100914663D02*
X180092200Y-101057520D01*
X180092200Y-101057520D02*
X180199343Y-101152758D01*
X180199343Y-101152758D02*
X180300533Y-101200377D01*
X178627914Y-101914663D02*
X178502914Y-100914663D01*
X178502914Y-100914663D02*
X178056485Y-101914663D01*
X178056485Y-101914663D02*
X177931485Y-100914663D01*
X177193390Y-101867044D02*
X177294580Y-101914663D01*
X177294580Y-101914663D02*
X177485057Y-101914663D01*
X177485057Y-101914663D02*
X177574342Y-101867044D01*
X177574342Y-101867044D02*
X177610057Y-101771805D01*
X177610057Y-101771805D02*
X177562438Y-101390853D01*
X177562438Y-101390853D02*
X177502914Y-101295615D01*
X177502914Y-101295615D02*
X177401723Y-101247996D01*
X177401723Y-101247996D02*
X177211247Y-101247996D01*
X177211247Y-101247996D02*
X177121961Y-101295615D01*
X177121961Y-101295615D02*
X177086247Y-101390853D01*
X177086247Y-101390853D02*
X177098152Y-101486091D01*
X177098152Y-101486091D02*
X177586247Y-101581329D01*
X176639818Y-101247996D02*
X176764818Y-102247996D01*
X176645771Y-101295615D02*
X176544580Y-101247996D01*
X176544580Y-101247996D02*
X176354104Y-101247996D01*
X176354104Y-101247996D02*
X176264818Y-101295615D01*
X176264818Y-101295615D02*
X176223152Y-101343234D01*
X176223152Y-101343234D02*
X176187437Y-101438472D01*
X176187437Y-101438472D02*
X176223152Y-101724186D01*
X176223152Y-101724186D02*
X176282675Y-101819424D01*
X176282675Y-101819424D02*
X176336247Y-101867044D01*
X176336247Y-101867044D02*
X176437437Y-101914663D01*
X176437437Y-101914663D02*
X176627914Y-101914663D01*
X176627914Y-101914663D02*
X176717199Y-101867044D01*
X175818390Y-101914663D02*
X175693390Y-100914663D01*
X175389818Y-101914663D02*
X175324342Y-101390853D01*
X175324342Y-101390853D02*
X175360056Y-101295615D01*
X175360056Y-101295615D02*
X175449342Y-101247996D01*
X175449342Y-101247996D02*
X175592199Y-101247996D01*
X175592199Y-101247996D02*
X175693390Y-101295615D01*
X175693390Y-101295615D02*
X175746961Y-101343234D01*
X174913628Y-101914663D02*
X174830294Y-101247996D01*
X174788628Y-100914663D02*
X174842199Y-100962282D01*
X174842199Y-100962282D02*
X174800532Y-101009901D01*
X174800532Y-101009901D02*
X174746961Y-100962282D01*
X174746961Y-100962282D02*
X174788628Y-100914663D01*
X174788628Y-100914663D02*
X174800532Y-101009901D01*
X173610056Y-101009901D02*
X173556485Y-100962282D01*
X173556485Y-100962282D02*
X173455295Y-100914663D01*
X173455295Y-100914663D02*
X173217199Y-100914663D01*
X173217199Y-100914663D02*
X173127914Y-100962282D01*
X173127914Y-100962282D02*
X173086247Y-101009901D01*
X173086247Y-101009901D02*
X173050533Y-101105139D01*
X173050533Y-101105139D02*
X173062437Y-101200377D01*
X173062437Y-101200377D02*
X173127914Y-101343234D01*
X173127914Y-101343234D02*
X173770771Y-101914663D01*
X173770771Y-101914663D02*
X173151723Y-101914663D01*
X172199342Y-101914663D02*
X172770771Y-101914663D01*
X172485056Y-101914663D02*
X172360056Y-100914663D01*
X172360056Y-100914663D02*
X172473152Y-101057520D01*
X172473152Y-101057520D02*
X172580295Y-101152758D01*
X172580295Y-101152758D02*
X172681485Y-101200377D01*
X171758866Y-101819424D02*
X171717199Y-101867044D01*
X171717199Y-101867044D02*
X171770771Y-101914663D01*
X171770771Y-101914663D02*
X171812437Y-101867044D01*
X171812437Y-101867044D02*
X171758866Y-101819424D01*
X171758866Y-101819424D02*
X171770771Y-101914663D01*
X171693390Y-101295615D02*
X171651723Y-101343234D01*
X171651723Y-101343234D02*
X171705294Y-101390853D01*
X171705294Y-101390853D02*
X171746961Y-101343234D01*
X171746961Y-101343234D02*
X171693390Y-101295615D01*
X171693390Y-101295615D02*
X171705294Y-101390853D01*
X170770771Y-101914663D02*
X171342200Y-101914663D01*
X171056485Y-101914663D02*
X170931485Y-100914663D01*
X170931485Y-100914663D02*
X171044581Y-101057520D01*
X171044581Y-101057520D02*
X171151724Y-101152758D01*
X171151724Y-101152758D02*
X171252914Y-101200377D01*
X169830295Y-101247996D02*
X169913628Y-101914663D01*
X170020771Y-100867044D02*
X170348152Y-101581329D01*
X170348152Y-101581329D02*
X169729104Y-101581329D01*
D11*
X154500000Y-92000000D02*
X181500000Y-92000000D01*
X181500000Y-103000000D01*
X154500000Y-103000000D01*
X154500000Y-92000000D01*
%LPC*%
D12*
X146000000Y-111642000D03*
X192540000Y-111642000D03*
X146000000Y-88358000D03*
X192540000Y-88358000D03*
D13*
X185560000Y-87500000D03*
X152540000Y-112500000D03*
X155080000Y-112500000D03*
X150000000Y-112500000D03*
X157620000Y-112500000D03*
X160160000Y-112500000D03*
X162700000Y-112500000D03*
X165240000Y-112500000D03*
X167780000Y-112500000D03*
X170320000Y-112500000D03*
X172860000Y-112500000D03*
X175400000Y-112500000D03*
X177940000Y-112500000D03*
X180480000Y-112500000D03*
X180480000Y-87500000D03*
X177940000Y-87500000D03*
X175400000Y-87500000D03*
X172860000Y-87500000D03*
X170320000Y-87500000D03*
X167780000Y-87500000D03*
X165240000Y-87500000D03*
X150000000Y-87500000D03*
X162700000Y-87500000D03*
X152540000Y-87500000D03*
X157620000Y-87500000D03*
X155080000Y-87500000D03*
X160160000Y-87500000D03*
X183020000Y-112500000D03*
X183020000Y-87500000D03*
X185560000Y-112500000D03*
X135000000Y-90000000D03*
X135000000Y-92500000D03*
X135000000Y-95000000D03*
X135000000Y-97500000D03*
X135000000Y-100000000D03*
X135000000Y-102500000D03*
X131000000Y-92500000D03*
X131000000Y-95000000D03*
X131000000Y-90000000D03*
D14*
X139550000Y-81640000D03*
X139550000Y-111640000D03*
X192550000Y-81640000D03*
D15*
X139550000Y-87750000D03*
X139550000Y-90290000D03*
X139550000Y-92830000D03*
X139550000Y-95370000D03*
X139550000Y-97910000D03*
X139550000Y-100450000D03*
X139550000Y-102990000D03*
X139550000Y-105530000D03*
%LPD*%
M02*
