G04 #@! TF.GenerationSoftware,KiCad,Pcbnew,7.0.8*
G04 #@! TF.CreationDate,2023-11-10T17:37:59-07:00*
G04 #@! TF.ProjectId,longmon-hatt,6c6f6e67-6d6f-46e2-9d68-6174742e6b69,rev?*
G04 #@! TF.SameCoordinates,Original*
G04 #@! TF.FileFunction,Legend,Top*
G04 #@! TF.FilePolarity,Positive*
%FSLAX46Y46*%
G04 Gerber Fmt 4.6, Leading zero omitted, Abs format (unit mm)*
G04 Created by KiCad (PCBNEW 7.0.8) date 2023-11-10 17:37:59*
%MOMM*%
%LPD*%
G01*
G04 APERTURE LIST*
%ADD10C,0.153000*%
%ADD11C,3.240000*%
%ADD12C,1.524000*%
%ADD13C,3.000000*%
%ADD14C,1.540000*%
G04 APERTURE END LIST*
D10*
X195069146Y-97809524D02*
X195069146Y-98142857D01*
X194545336Y-98285714D02*
X194545336Y-97809524D01*
X194545336Y-97809524D02*
X195545336Y-97809524D01*
X195545336Y-97809524D02*
X195545336Y-98285714D01*
X194592956Y-98666667D02*
X194545336Y-98809524D01*
X194545336Y-98809524D02*
X194545336Y-99047619D01*
X194545336Y-99047619D02*
X194592956Y-99142857D01*
X194592956Y-99142857D02*
X194640575Y-99190476D01*
X194640575Y-99190476D02*
X194735813Y-99238095D01*
X194735813Y-99238095D02*
X194831051Y-99238095D01*
X194831051Y-99238095D02*
X194926289Y-99190476D01*
X194926289Y-99190476D02*
X194973908Y-99142857D01*
X194973908Y-99142857D02*
X195021527Y-99047619D01*
X195021527Y-99047619D02*
X195069146Y-98857143D01*
X195069146Y-98857143D02*
X195116765Y-98761905D01*
X195116765Y-98761905D02*
X195164384Y-98714286D01*
X195164384Y-98714286D02*
X195259622Y-98666667D01*
X195259622Y-98666667D02*
X195354860Y-98666667D01*
X195354860Y-98666667D02*
X195450098Y-98714286D01*
X195450098Y-98714286D02*
X195497717Y-98761905D01*
X195497717Y-98761905D02*
X195545336Y-98857143D01*
X195545336Y-98857143D02*
X195545336Y-99095238D01*
X195545336Y-99095238D02*
X195497717Y-99238095D01*
X194545336Y-99666667D02*
X195545336Y-99666667D01*
X195545336Y-99666667D02*
X195545336Y-100047619D01*
X195545336Y-100047619D02*
X195497717Y-100142857D01*
X195497717Y-100142857D02*
X195450098Y-100190476D01*
X195450098Y-100190476D02*
X195354860Y-100238095D01*
X195354860Y-100238095D02*
X195212003Y-100238095D01*
X195212003Y-100238095D02*
X195116765Y-100190476D01*
X195116765Y-100190476D02*
X195069146Y-100142857D01*
X195069146Y-100142857D02*
X195021527Y-100047619D01*
X195021527Y-100047619D02*
X195021527Y-99666667D01*
X194545336Y-100666667D02*
X195545336Y-100666667D01*
X195069146Y-100666667D02*
X195069146Y-101238095D01*
X194545336Y-101238095D02*
X195545336Y-101238095D01*
X194545336Y-102238095D02*
X194545336Y-101666667D01*
X194545336Y-101952381D02*
X195545336Y-101952381D01*
X195545336Y-101952381D02*
X195402479Y-101857143D01*
X195402479Y-101857143D02*
X195307241Y-101761905D01*
X195307241Y-101761905D02*
X195259622Y-101666667D01*
X134545336Y-83880952D02*
X134545336Y-83404762D01*
X134545336Y-83404762D02*
X135545336Y-83404762D01*
X135545336Y-84404762D02*
X135545336Y-84595238D01*
X135545336Y-84595238D02*
X135497717Y-84690476D01*
X135497717Y-84690476D02*
X135402479Y-84785714D01*
X135402479Y-84785714D02*
X135212003Y-84833333D01*
X135212003Y-84833333D02*
X134878670Y-84833333D01*
X134878670Y-84833333D02*
X134688194Y-84785714D01*
X134688194Y-84785714D02*
X134592956Y-84690476D01*
X134592956Y-84690476D02*
X134545336Y-84595238D01*
X134545336Y-84595238D02*
X134545336Y-84404762D01*
X134545336Y-84404762D02*
X134592956Y-84309524D01*
X134592956Y-84309524D02*
X134688194Y-84214286D01*
X134688194Y-84214286D02*
X134878670Y-84166667D01*
X134878670Y-84166667D02*
X135212003Y-84166667D01*
X135212003Y-84166667D02*
X135402479Y-84214286D01*
X135402479Y-84214286D02*
X135497717Y-84309524D01*
X135497717Y-84309524D02*
X135545336Y-84404762D01*
X134545336Y-85833333D02*
X135021527Y-85500000D01*
X134545336Y-85261905D02*
X135545336Y-85261905D01*
X135545336Y-85261905D02*
X135545336Y-85642857D01*
X135545336Y-85642857D02*
X135497717Y-85738095D01*
X135497717Y-85738095D02*
X135450098Y-85785714D01*
X135450098Y-85785714D02*
X135354860Y-85833333D01*
X135354860Y-85833333D02*
X135212003Y-85833333D01*
X135212003Y-85833333D02*
X135116765Y-85785714D01*
X135116765Y-85785714D02*
X135069146Y-85738095D01*
X135069146Y-85738095D02*
X135021527Y-85642857D01*
X135021527Y-85642857D02*
X135021527Y-85261905D01*
X134831051Y-86214286D02*
X134831051Y-86690476D01*
X134545336Y-86119048D02*
X135545336Y-86452381D01*
X135545336Y-86452381D02*
X134545336Y-86785714D01*
X134545336Y-87642857D02*
X134545336Y-87071429D01*
X134545336Y-87357143D02*
X135545336Y-87357143D01*
X135545336Y-87357143D02*
X135402479Y-87261905D01*
X135402479Y-87261905D02*
X135307241Y-87166667D01*
X135307241Y-87166667D02*
X135259622Y-87071429D01*
X130545336Y-82833333D02*
X131545336Y-82833333D01*
X131545336Y-82833333D02*
X131545336Y-83214285D01*
X131545336Y-83214285D02*
X131497717Y-83309523D01*
X131497717Y-83309523D02*
X131450098Y-83357142D01*
X131450098Y-83357142D02*
X131354860Y-83404761D01*
X131354860Y-83404761D02*
X131212003Y-83404761D01*
X131212003Y-83404761D02*
X131116765Y-83357142D01*
X131116765Y-83357142D02*
X131069146Y-83309523D01*
X131069146Y-83309523D02*
X131021527Y-83214285D01*
X131021527Y-83214285D02*
X131021527Y-82833333D01*
X131545336Y-84023809D02*
X131545336Y-84214285D01*
X131545336Y-84214285D02*
X131497717Y-84309523D01*
X131497717Y-84309523D02*
X131402479Y-84404761D01*
X131402479Y-84404761D02*
X131212003Y-84452380D01*
X131212003Y-84452380D02*
X130878670Y-84452380D01*
X130878670Y-84452380D02*
X130688194Y-84404761D01*
X130688194Y-84404761D02*
X130592956Y-84309523D01*
X130592956Y-84309523D02*
X130545336Y-84214285D01*
X130545336Y-84214285D02*
X130545336Y-84023809D01*
X130545336Y-84023809D02*
X130592956Y-83928571D01*
X130592956Y-83928571D02*
X130688194Y-83833333D01*
X130688194Y-83833333D02*
X130878670Y-83785714D01*
X130878670Y-83785714D02*
X131212003Y-83785714D01*
X131212003Y-83785714D02*
X131402479Y-83833333D01*
X131402479Y-83833333D02*
X131497717Y-83928571D01*
X131497717Y-83928571D02*
X131545336Y-84023809D01*
X131545336Y-84738095D02*
X131545336Y-85309523D01*
X130545336Y-85023809D02*
X131545336Y-85023809D01*
X130545336Y-85642857D02*
X131545336Y-85642857D01*
X131069146Y-85642857D02*
X131069146Y-86214285D01*
X130545336Y-86214285D02*
X131545336Y-86214285D01*
X130545336Y-87214285D02*
X130545336Y-86642857D01*
X130545336Y-86928571D02*
X131545336Y-86928571D01*
X131545336Y-86928571D02*
X131402479Y-86833333D01*
X131402479Y-86833333D02*
X131307241Y-86738095D01*
X131307241Y-86738095D02*
X131259622Y-86642857D01*
X141465336Y-95513333D02*
X141465336Y-95037143D01*
X141465336Y-95037143D02*
X142465336Y-95037143D01*
X141560575Y-96418095D02*
X141512956Y-96370476D01*
X141512956Y-96370476D02*
X141465336Y-96227619D01*
X141465336Y-96227619D02*
X141465336Y-96132381D01*
X141465336Y-96132381D02*
X141512956Y-95989524D01*
X141512956Y-95989524D02*
X141608194Y-95894286D01*
X141608194Y-95894286D02*
X141703432Y-95846667D01*
X141703432Y-95846667D02*
X141893908Y-95799048D01*
X141893908Y-95799048D02*
X142036765Y-95799048D01*
X142036765Y-95799048D02*
X142227241Y-95846667D01*
X142227241Y-95846667D02*
X142322479Y-95894286D01*
X142322479Y-95894286D02*
X142417717Y-95989524D01*
X142417717Y-95989524D02*
X142465336Y-96132381D01*
X142465336Y-96132381D02*
X142465336Y-96227619D01*
X142465336Y-96227619D02*
X142417717Y-96370476D01*
X142417717Y-96370476D02*
X142370098Y-96418095D01*
X141465336Y-96846667D02*
X142465336Y-96846667D01*
X142465336Y-96846667D02*
X142465336Y-97084762D01*
X142465336Y-97084762D02*
X142417717Y-97227619D01*
X142417717Y-97227619D02*
X142322479Y-97322857D01*
X142322479Y-97322857D02*
X142227241Y-97370476D01*
X142227241Y-97370476D02*
X142036765Y-97418095D01*
X142036765Y-97418095D02*
X141893908Y-97418095D01*
X141893908Y-97418095D02*
X141703432Y-97370476D01*
X141703432Y-97370476D02*
X141608194Y-97322857D01*
X141608194Y-97322857D02*
X141512956Y-97227619D01*
X141512956Y-97227619D02*
X141465336Y-97084762D01*
X141465336Y-97084762D02*
X141465336Y-96846667D01*
X141465336Y-98370476D02*
X141465336Y-97799048D01*
X141465336Y-98084762D02*
X142465336Y-98084762D01*
X142465336Y-98084762D02*
X142322479Y-97989524D01*
X142322479Y-97989524D02*
X142227241Y-97894286D01*
X142227241Y-97894286D02*
X142179622Y-97799048D01*
%LPC*%
D11*
X146000000Y-111642000D03*
X192540000Y-111642000D03*
X146000000Y-88358000D03*
X192540000Y-88358000D03*
D12*
X185560000Y-87500000D03*
X152540000Y-112500000D03*
X155080000Y-112500000D03*
X150000000Y-112500000D03*
X157620000Y-112500000D03*
X160160000Y-112500000D03*
X162700000Y-112500000D03*
X165240000Y-112500000D03*
X167780000Y-112500000D03*
X170320000Y-112500000D03*
X172860000Y-112500000D03*
X175400000Y-112500000D03*
X177940000Y-112500000D03*
X180480000Y-112500000D03*
X180480000Y-87500000D03*
X177940000Y-87500000D03*
X175400000Y-87500000D03*
X172860000Y-87500000D03*
X170320000Y-87500000D03*
X167780000Y-87500000D03*
X165240000Y-87500000D03*
X150000000Y-87500000D03*
X162700000Y-87500000D03*
X152540000Y-87500000D03*
X157620000Y-87500000D03*
X155080000Y-87500000D03*
X160160000Y-87500000D03*
X183020000Y-112500000D03*
X183020000Y-87500000D03*
X185560000Y-112500000D03*
X135000000Y-90000000D03*
X135000000Y-92500000D03*
X135000000Y-95000000D03*
X135000000Y-97500000D03*
X135000000Y-100000000D03*
X135000000Y-102500000D03*
X131000000Y-92500000D03*
X131000000Y-95000000D03*
X131000000Y-90000000D03*
D13*
X139550000Y-81640000D03*
X139550000Y-111640000D03*
X192550000Y-81640000D03*
D14*
X139550000Y-87750000D03*
X139550000Y-90290000D03*
X139550000Y-92830000D03*
X139550000Y-95370000D03*
X139550000Y-97910000D03*
X139550000Y-100450000D03*
X139550000Y-102990000D03*
X139550000Y-105530000D03*
%LPD*%
M02*
