G04 #@! TF.GenerationSoftware,KiCad,Pcbnew,7.0.8*
G04 #@! TF.CreationDate,2023-11-10T17:37:59-07:00*
G04 #@! TF.ProjectId,longmon-hatt,6c6f6e67-6d6f-46e2-9d68-6174742e6b69,rev?*
G04 #@! TF.SameCoordinates,Original*
G04 #@! TF.FileFunction,Copper,L1,Top*
G04 #@! TF.FilePolarity,Positive*
%FSLAX46Y46*%
G04 Gerber Fmt 4.6, Leading zero omitted, Abs format (unit mm)*
G04 Created by KiCad (PCBNEW 7.0.8) date 2023-11-10 17:37:59*
%MOMM*%
%LPD*%
G01*
G04 APERTURE LIST*
G04 #@! TA.AperFunction,ComponentPad*
%ADD10C,1.524000*%
G04 #@! TD*
G04 #@! TA.AperFunction,WasherPad*
%ADD11C,3.000000*%
G04 #@! TD*
G04 #@! TA.AperFunction,ComponentPad*
%ADD12C,1.540000*%
G04 #@! TD*
G04 #@! TA.AperFunction,Conductor*
%ADD13C,0.250000*%
G04 #@! TD*
G04 APERTURE END LIST*
D10*
X185560000Y-87500000D03*
X152540000Y-112500000D03*
X155080000Y-112500000D03*
X150000000Y-112500000D03*
X157620000Y-112500000D03*
X160160000Y-112500000D03*
X162700000Y-112500000D03*
X165240000Y-112500000D03*
X167780000Y-112500000D03*
X170320000Y-112500000D03*
X172860000Y-112500000D03*
X175400000Y-112500000D03*
X177940000Y-112500000D03*
X180480000Y-112500000D03*
X180480000Y-87500000D03*
X177940000Y-87500000D03*
X175400000Y-87500000D03*
X172860000Y-87500000D03*
X170320000Y-87500000D03*
X167780000Y-87500000D03*
X165240000Y-87500000D03*
X150000000Y-87500000D03*
X162700000Y-87500000D03*
X152540000Y-87500000D03*
X157620000Y-87500000D03*
X155080000Y-87500000D03*
X160160000Y-87500000D03*
X183020000Y-112500000D03*
X183020000Y-87500000D03*
X185560000Y-112500000D03*
X135000000Y-90000000D03*
X135000000Y-92500000D03*
X135000000Y-95000000D03*
X135000000Y-97500000D03*
X135000000Y-100000000D03*
X135000000Y-102500000D03*
X131000000Y-92500000D03*
X131000000Y-95000000D03*
X131000000Y-90000000D03*
D11*
X139550000Y-81640000D03*
X139550000Y-111640000D03*
X192550000Y-81640000D03*
D12*
X139550000Y-87750000D03*
X139550000Y-90290000D03*
X139550000Y-92830000D03*
X139550000Y-95370000D03*
X139550000Y-97910000D03*
X139550000Y-100450000D03*
X139550000Y-102990000D03*
X139550000Y-105530000D03*
D13*
X139550000Y-87750000D02*
X141851800Y-85448200D01*
X183508200Y-85448200D02*
X185560000Y-87500000D01*
X141851800Y-85448200D02*
X183508200Y-85448200D01*
X149380000Y-104260000D02*
X157620000Y-112500000D01*
X131000000Y-92500000D02*
X129840500Y-93659500D01*
X138362900Y-104260000D02*
X149380000Y-104260000D01*
X129840500Y-96426000D02*
X134664500Y-101250000D01*
X129840500Y-93659500D02*
X129840500Y-96426000D01*
X135352900Y-101250000D02*
X138362900Y-104260000D01*
X134664500Y-101250000D02*
X135352900Y-101250000D01*
X139550000Y-102990000D02*
X159910000Y-102990000D01*
X159910000Y-102990000D02*
X175400000Y-87500000D01*
X171285900Y-85925900D02*
X172860000Y-87500000D01*
X138274600Y-91725400D02*
X149860700Y-91725400D01*
X155100800Y-85925900D02*
X171285900Y-85925900D01*
X149860700Y-91725400D02*
X153810000Y-87776100D01*
X153810000Y-87776100D02*
X153810000Y-87216700D01*
X153810000Y-87216700D02*
X155100800Y-85925900D01*
X135000000Y-95000000D02*
X138274600Y-91725400D01*
X169217900Y-86397900D02*
X170320000Y-87500000D01*
X152566100Y-94100000D02*
X158890000Y-87776100D01*
X135000000Y-97500000D02*
X138400000Y-94100000D01*
X138400000Y-94100000D02*
X152566100Y-94100000D01*
X159671700Y-86397900D02*
X169217900Y-86397900D01*
X158890000Y-87179600D02*
X159671700Y-86397900D01*
X158890000Y-87776100D02*
X158890000Y-87179600D01*
X157370000Y-97910000D02*
X167780000Y-87500000D01*
X139550000Y-97910000D02*
X157370000Y-97910000D01*
X139550000Y-95370000D02*
X157370000Y-95370000D01*
X157370000Y-95370000D02*
X165240000Y-87500000D01*
X139550000Y-90290000D02*
X135290000Y-90290000D01*
X135290000Y-90290000D02*
X135000000Y-90000000D01*
X135290000Y-90290000D02*
X131000000Y-94580000D01*
X131000000Y-94580000D02*
X131000000Y-95000000D01*
M02*
