%TF.GenerationSoftware,KiCad,Pcbnew,7.0.8*%
%TF.CreationDate,2023-11-10T17:38:27-07:00*%
%TF.ProjectId,longmon-hatt,6c6f6e67-6d6f-46e2-9d68-6174742e6b69,rev?*%
%TF.SameCoordinates,Original*%
%TF.FileFunction,Drillmap*%
%TF.FilePolarity,Positive*%
%FSLAX45Y45*%
G04 Gerber Fmt 4.5, Leading zero omitted, Abs format (unit mm)*
G04 Created by KiCad (PCBNEW 7.0.8) date 2023-11-10 17:38:27*
%MOMM*%
%LPD*%
G01*
G04 APERTURE LIST*
%ADD10C,0.100000*%
%ADD11C,0.200000*%
%ADD12C,0.324000*%
G04 APERTURE END LIST*
D10*
X12850000Y-7900000D02*
X19600000Y-7900000D01*
X19600000Y-11500000D01*
X12850000Y-11500000D01*
X12850000Y-7900000D01*
D11*
X13855000Y-8064000D02*
X14055000Y-8264000D01*
X14055000Y-8064000D02*
X13855000Y-8264000D01*
X13855000Y-11064000D02*
X14055000Y-11264000D01*
X14055000Y-11064000D02*
X13855000Y-11264000D01*
X19155000Y-8064000D02*
X19355000Y-8264000D01*
X19355000Y-8064000D02*
X19155000Y-8264000D01*
D12*
X14762000Y-8835800D02*
G75*
G03*
X14762000Y-8835800I-162000J0D01*
G01*
X14762000Y-11164200D02*
G75*
G03*
X14762000Y-11164200I-162000J0D01*
G01*
X19416000Y-8835800D02*
G75*
G03*
X19416000Y-8835800I-162000J0D01*
G01*
X19416000Y-11164200D02*
G75*
G03*
X19416000Y-11164200I-162000J0D01*
G01*
D11*
X13105777Y-11816484D02*
X13105777Y-11616484D01*
X13105777Y-11616484D02*
X13153396Y-11616484D01*
X13153396Y-11616484D02*
X13181967Y-11626008D01*
X13181967Y-11626008D02*
X13201015Y-11645055D01*
X13201015Y-11645055D02*
X13210539Y-11664103D01*
X13210539Y-11664103D02*
X13220062Y-11702198D01*
X13220062Y-11702198D02*
X13220062Y-11730769D01*
X13220062Y-11730769D02*
X13210539Y-11768865D01*
X13210539Y-11768865D02*
X13201015Y-11787912D01*
X13201015Y-11787912D02*
X13181967Y-11806960D01*
X13181967Y-11806960D02*
X13153396Y-11816484D01*
X13153396Y-11816484D02*
X13105777Y-11816484D01*
X13305777Y-11816484D02*
X13305777Y-11683150D01*
X13305777Y-11721246D02*
X13315301Y-11702198D01*
X13315301Y-11702198D02*
X13324824Y-11692674D01*
X13324824Y-11692674D02*
X13343872Y-11683150D01*
X13343872Y-11683150D02*
X13362920Y-11683150D01*
X13429586Y-11816484D02*
X13429586Y-11683150D01*
X13429586Y-11616484D02*
X13420062Y-11626008D01*
X13420062Y-11626008D02*
X13429586Y-11635531D01*
X13429586Y-11635531D02*
X13439110Y-11626008D01*
X13439110Y-11626008D02*
X13429586Y-11616484D01*
X13429586Y-11616484D02*
X13429586Y-11635531D01*
X13553396Y-11816484D02*
X13534348Y-11806960D01*
X13534348Y-11806960D02*
X13524824Y-11787912D01*
X13524824Y-11787912D02*
X13524824Y-11616484D01*
X13658158Y-11816484D02*
X13639110Y-11806960D01*
X13639110Y-11806960D02*
X13629586Y-11787912D01*
X13629586Y-11787912D02*
X13629586Y-11616484D01*
X13886729Y-11816484D02*
X13886729Y-11616484D01*
X13886729Y-11616484D02*
X13953396Y-11759341D01*
X13953396Y-11759341D02*
X14020062Y-11616484D01*
X14020062Y-11616484D02*
X14020062Y-11816484D01*
X14201015Y-11816484D02*
X14201015Y-11711722D01*
X14201015Y-11711722D02*
X14191491Y-11692674D01*
X14191491Y-11692674D02*
X14172443Y-11683150D01*
X14172443Y-11683150D02*
X14134348Y-11683150D01*
X14134348Y-11683150D02*
X14115301Y-11692674D01*
X14201015Y-11806960D02*
X14181967Y-11816484D01*
X14181967Y-11816484D02*
X14134348Y-11816484D01*
X14134348Y-11816484D02*
X14115301Y-11806960D01*
X14115301Y-11806960D02*
X14105777Y-11787912D01*
X14105777Y-11787912D02*
X14105777Y-11768865D01*
X14105777Y-11768865D02*
X14115301Y-11749817D01*
X14115301Y-11749817D02*
X14134348Y-11740293D01*
X14134348Y-11740293D02*
X14181967Y-11740293D01*
X14181967Y-11740293D02*
X14201015Y-11730769D01*
X14296253Y-11683150D02*
X14296253Y-11883150D01*
X14296253Y-11692674D02*
X14315301Y-11683150D01*
X14315301Y-11683150D02*
X14353396Y-11683150D01*
X14353396Y-11683150D02*
X14372443Y-11692674D01*
X14372443Y-11692674D02*
X14381967Y-11702198D01*
X14381967Y-11702198D02*
X14391491Y-11721246D01*
X14391491Y-11721246D02*
X14391491Y-11778388D01*
X14391491Y-11778388D02*
X14381967Y-11797436D01*
X14381967Y-11797436D02*
X14372443Y-11806960D01*
X14372443Y-11806960D02*
X14353396Y-11816484D01*
X14353396Y-11816484D02*
X14315301Y-11816484D01*
X14315301Y-11816484D02*
X14296253Y-11806960D01*
X14477205Y-11797436D02*
X14486729Y-11806960D01*
X14486729Y-11806960D02*
X14477205Y-11816484D01*
X14477205Y-11816484D02*
X14467682Y-11806960D01*
X14467682Y-11806960D02*
X14477205Y-11797436D01*
X14477205Y-11797436D02*
X14477205Y-11816484D01*
X14477205Y-11692674D02*
X14486729Y-11702198D01*
X14486729Y-11702198D02*
X14477205Y-11711722D01*
X14477205Y-11711722D02*
X14467682Y-11702198D01*
X14467682Y-11702198D02*
X14477205Y-11692674D01*
X14477205Y-11692674D02*
X14477205Y-11711722D01*
X12645000Y-12045000D02*
X12845000Y-12245000D01*
X12845000Y-12045000D02*
X12645000Y-12245000D01*
X13096253Y-12055531D02*
X13105777Y-12046008D01*
X13105777Y-12046008D02*
X13124824Y-12036484D01*
X13124824Y-12036484D02*
X13172443Y-12036484D01*
X13172443Y-12036484D02*
X13191491Y-12046008D01*
X13191491Y-12046008D02*
X13201015Y-12055531D01*
X13201015Y-12055531D02*
X13210539Y-12074579D01*
X13210539Y-12074579D02*
X13210539Y-12093627D01*
X13210539Y-12093627D02*
X13201015Y-12122198D01*
X13201015Y-12122198D02*
X13086729Y-12236484D01*
X13086729Y-12236484D02*
X13210539Y-12236484D01*
X13296253Y-12217436D02*
X13305777Y-12226960D01*
X13305777Y-12226960D02*
X13296253Y-12236484D01*
X13296253Y-12236484D02*
X13286729Y-12226960D01*
X13286729Y-12226960D02*
X13296253Y-12217436D01*
X13296253Y-12217436D02*
X13296253Y-12236484D01*
X13429586Y-12036484D02*
X13448634Y-12036484D01*
X13448634Y-12036484D02*
X13467682Y-12046008D01*
X13467682Y-12046008D02*
X13477205Y-12055531D01*
X13477205Y-12055531D02*
X13486729Y-12074579D01*
X13486729Y-12074579D02*
X13496253Y-12112674D01*
X13496253Y-12112674D02*
X13496253Y-12160293D01*
X13496253Y-12160293D02*
X13486729Y-12198388D01*
X13486729Y-12198388D02*
X13477205Y-12217436D01*
X13477205Y-12217436D02*
X13467682Y-12226960D01*
X13467682Y-12226960D02*
X13448634Y-12236484D01*
X13448634Y-12236484D02*
X13429586Y-12236484D01*
X13429586Y-12236484D02*
X13410539Y-12226960D01*
X13410539Y-12226960D02*
X13401015Y-12217436D01*
X13401015Y-12217436D02*
X13391491Y-12198388D01*
X13391491Y-12198388D02*
X13381967Y-12160293D01*
X13381967Y-12160293D02*
X13381967Y-12112674D01*
X13381967Y-12112674D02*
X13391491Y-12074579D01*
X13391491Y-12074579D02*
X13401015Y-12055531D01*
X13401015Y-12055531D02*
X13410539Y-12046008D01*
X13410539Y-12046008D02*
X13429586Y-12036484D01*
X13620062Y-12036484D02*
X13639110Y-12036484D01*
X13639110Y-12036484D02*
X13658158Y-12046008D01*
X13658158Y-12046008D02*
X13667682Y-12055531D01*
X13667682Y-12055531D02*
X13677205Y-12074579D01*
X13677205Y-12074579D02*
X13686729Y-12112674D01*
X13686729Y-12112674D02*
X13686729Y-12160293D01*
X13686729Y-12160293D02*
X13677205Y-12198388D01*
X13677205Y-12198388D02*
X13667682Y-12217436D01*
X13667682Y-12217436D02*
X13658158Y-12226960D01*
X13658158Y-12226960D02*
X13639110Y-12236484D01*
X13639110Y-12236484D02*
X13620062Y-12236484D01*
X13620062Y-12236484D02*
X13601015Y-12226960D01*
X13601015Y-12226960D02*
X13591491Y-12217436D01*
X13591491Y-12217436D02*
X13581967Y-12198388D01*
X13581967Y-12198388D02*
X13572443Y-12160293D01*
X13572443Y-12160293D02*
X13572443Y-12112674D01*
X13572443Y-12112674D02*
X13581967Y-12074579D01*
X13581967Y-12074579D02*
X13591491Y-12055531D01*
X13591491Y-12055531D02*
X13601015Y-12046008D01*
X13601015Y-12046008D02*
X13620062Y-12036484D01*
X13810539Y-12036484D02*
X13829586Y-12036484D01*
X13829586Y-12036484D02*
X13848634Y-12046008D01*
X13848634Y-12046008D02*
X13858158Y-12055531D01*
X13858158Y-12055531D02*
X13867682Y-12074579D01*
X13867682Y-12074579D02*
X13877205Y-12112674D01*
X13877205Y-12112674D02*
X13877205Y-12160293D01*
X13877205Y-12160293D02*
X13867682Y-12198388D01*
X13867682Y-12198388D02*
X13858158Y-12217436D01*
X13858158Y-12217436D02*
X13848634Y-12226960D01*
X13848634Y-12226960D02*
X13829586Y-12236484D01*
X13829586Y-12236484D02*
X13810539Y-12236484D01*
X13810539Y-12236484D02*
X13791491Y-12226960D01*
X13791491Y-12226960D02*
X13781967Y-12217436D01*
X13781967Y-12217436D02*
X13772443Y-12198388D01*
X13772443Y-12198388D02*
X13762920Y-12160293D01*
X13762920Y-12160293D02*
X13762920Y-12112674D01*
X13762920Y-12112674D02*
X13772443Y-12074579D01*
X13772443Y-12074579D02*
X13781967Y-12055531D01*
X13781967Y-12055531D02*
X13791491Y-12046008D01*
X13791491Y-12046008D02*
X13810539Y-12036484D01*
X13962920Y-12236484D02*
X13962920Y-12103150D01*
X13962920Y-12122198D02*
X13972443Y-12112674D01*
X13972443Y-12112674D02*
X13991491Y-12103150D01*
X13991491Y-12103150D02*
X14020063Y-12103150D01*
X14020063Y-12103150D02*
X14039110Y-12112674D01*
X14039110Y-12112674D02*
X14048634Y-12131722D01*
X14048634Y-12131722D02*
X14048634Y-12236484D01*
X14048634Y-12131722D02*
X14058158Y-12112674D01*
X14058158Y-12112674D02*
X14077205Y-12103150D01*
X14077205Y-12103150D02*
X14105777Y-12103150D01*
X14105777Y-12103150D02*
X14124824Y-12112674D01*
X14124824Y-12112674D02*
X14134348Y-12131722D01*
X14134348Y-12131722D02*
X14134348Y-12236484D01*
X14229586Y-12236484D02*
X14229586Y-12103150D01*
X14229586Y-12122198D02*
X14239110Y-12112674D01*
X14239110Y-12112674D02*
X14258158Y-12103150D01*
X14258158Y-12103150D02*
X14286729Y-12103150D01*
X14286729Y-12103150D02*
X14305777Y-12112674D01*
X14305777Y-12112674D02*
X14315301Y-12131722D01*
X14315301Y-12131722D02*
X14315301Y-12236484D01*
X14315301Y-12131722D02*
X14324824Y-12112674D01*
X14324824Y-12112674D02*
X14343872Y-12103150D01*
X14343872Y-12103150D02*
X14372443Y-12103150D01*
X14372443Y-12103150D02*
X14391491Y-12112674D01*
X14391491Y-12112674D02*
X14401015Y-12131722D01*
X14401015Y-12131722D02*
X14401015Y-12236484D01*
X14791491Y-12026960D02*
X14620063Y-12284103D01*
X15048634Y-12036484D02*
X15067682Y-12036484D01*
X15067682Y-12036484D02*
X15086729Y-12046008D01*
X15086729Y-12046008D02*
X15096253Y-12055531D01*
X15096253Y-12055531D02*
X15105777Y-12074579D01*
X15105777Y-12074579D02*
X15115301Y-12112674D01*
X15115301Y-12112674D02*
X15115301Y-12160293D01*
X15115301Y-12160293D02*
X15105777Y-12198388D01*
X15105777Y-12198388D02*
X15096253Y-12217436D01*
X15096253Y-12217436D02*
X15086729Y-12226960D01*
X15086729Y-12226960D02*
X15067682Y-12236484D01*
X15067682Y-12236484D02*
X15048634Y-12236484D01*
X15048634Y-12236484D02*
X15029586Y-12226960D01*
X15029586Y-12226960D02*
X15020063Y-12217436D01*
X15020063Y-12217436D02*
X15010539Y-12198388D01*
X15010539Y-12198388D02*
X15001015Y-12160293D01*
X15001015Y-12160293D02*
X15001015Y-12112674D01*
X15001015Y-12112674D02*
X15010539Y-12074579D01*
X15010539Y-12074579D02*
X15020063Y-12055531D01*
X15020063Y-12055531D02*
X15029586Y-12046008D01*
X15029586Y-12046008D02*
X15048634Y-12036484D01*
X15201015Y-12217436D02*
X15210539Y-12226960D01*
X15210539Y-12226960D02*
X15201015Y-12236484D01*
X15201015Y-12236484D02*
X15191491Y-12226960D01*
X15191491Y-12226960D02*
X15201015Y-12217436D01*
X15201015Y-12217436D02*
X15201015Y-12236484D01*
X15334348Y-12036484D02*
X15353396Y-12036484D01*
X15353396Y-12036484D02*
X15372444Y-12046008D01*
X15372444Y-12046008D02*
X15381967Y-12055531D01*
X15381967Y-12055531D02*
X15391491Y-12074579D01*
X15391491Y-12074579D02*
X15401015Y-12112674D01*
X15401015Y-12112674D02*
X15401015Y-12160293D01*
X15401015Y-12160293D02*
X15391491Y-12198388D01*
X15391491Y-12198388D02*
X15381967Y-12217436D01*
X15381967Y-12217436D02*
X15372444Y-12226960D01*
X15372444Y-12226960D02*
X15353396Y-12236484D01*
X15353396Y-12236484D02*
X15334348Y-12236484D01*
X15334348Y-12236484D02*
X15315301Y-12226960D01*
X15315301Y-12226960D02*
X15305777Y-12217436D01*
X15305777Y-12217436D02*
X15296253Y-12198388D01*
X15296253Y-12198388D02*
X15286729Y-12160293D01*
X15286729Y-12160293D02*
X15286729Y-12112674D01*
X15286729Y-12112674D02*
X15296253Y-12074579D01*
X15296253Y-12074579D02*
X15305777Y-12055531D01*
X15305777Y-12055531D02*
X15315301Y-12046008D01*
X15315301Y-12046008D02*
X15334348Y-12036484D01*
X15467682Y-12036484D02*
X15601015Y-12036484D01*
X15601015Y-12036484D02*
X15515301Y-12236484D01*
X15705777Y-12122198D02*
X15686729Y-12112674D01*
X15686729Y-12112674D02*
X15677206Y-12103150D01*
X15677206Y-12103150D02*
X15667682Y-12084103D01*
X15667682Y-12084103D02*
X15667682Y-12074579D01*
X15667682Y-12074579D02*
X15677206Y-12055531D01*
X15677206Y-12055531D02*
X15686729Y-12046008D01*
X15686729Y-12046008D02*
X15705777Y-12036484D01*
X15705777Y-12036484D02*
X15743872Y-12036484D01*
X15743872Y-12036484D02*
X15762920Y-12046008D01*
X15762920Y-12046008D02*
X15772444Y-12055531D01*
X15772444Y-12055531D02*
X15781967Y-12074579D01*
X15781967Y-12074579D02*
X15781967Y-12084103D01*
X15781967Y-12084103D02*
X15772444Y-12103150D01*
X15772444Y-12103150D02*
X15762920Y-12112674D01*
X15762920Y-12112674D02*
X15743872Y-12122198D01*
X15743872Y-12122198D02*
X15705777Y-12122198D01*
X15705777Y-12122198D02*
X15686729Y-12131722D01*
X15686729Y-12131722D02*
X15677206Y-12141246D01*
X15677206Y-12141246D02*
X15667682Y-12160293D01*
X15667682Y-12160293D02*
X15667682Y-12198388D01*
X15667682Y-12198388D02*
X15677206Y-12217436D01*
X15677206Y-12217436D02*
X15686729Y-12226960D01*
X15686729Y-12226960D02*
X15705777Y-12236484D01*
X15705777Y-12236484D02*
X15743872Y-12236484D01*
X15743872Y-12236484D02*
X15762920Y-12226960D01*
X15762920Y-12226960D02*
X15772444Y-12217436D01*
X15772444Y-12217436D02*
X15781967Y-12198388D01*
X15781967Y-12198388D02*
X15781967Y-12160293D01*
X15781967Y-12160293D02*
X15772444Y-12141246D01*
X15772444Y-12141246D02*
X15762920Y-12131722D01*
X15762920Y-12131722D02*
X15743872Y-12122198D01*
X15848634Y-12036484D02*
X15981967Y-12036484D01*
X15981967Y-12036484D02*
X15896253Y-12236484D01*
X16048634Y-12036484D02*
X16048634Y-12074579D01*
X16124825Y-12036484D02*
X16124825Y-12074579D01*
X16420063Y-12312674D02*
X16410539Y-12303150D01*
X16410539Y-12303150D02*
X16391491Y-12274579D01*
X16391491Y-12274579D02*
X16381968Y-12255531D01*
X16381968Y-12255531D02*
X16372444Y-12226960D01*
X16372444Y-12226960D02*
X16362920Y-12179341D01*
X16362920Y-12179341D02*
X16362920Y-12141246D01*
X16362920Y-12141246D02*
X16372444Y-12093627D01*
X16372444Y-12093627D02*
X16381968Y-12065055D01*
X16381968Y-12065055D02*
X16391491Y-12046008D01*
X16391491Y-12046008D02*
X16410539Y-12017436D01*
X16410539Y-12017436D02*
X16420063Y-12007912D01*
X16477206Y-12036484D02*
X16601015Y-12036484D01*
X16601015Y-12036484D02*
X16534348Y-12112674D01*
X16534348Y-12112674D02*
X16562920Y-12112674D01*
X16562920Y-12112674D02*
X16581968Y-12122198D01*
X16581968Y-12122198D02*
X16591491Y-12131722D01*
X16591491Y-12131722D02*
X16601015Y-12150769D01*
X16601015Y-12150769D02*
X16601015Y-12198388D01*
X16601015Y-12198388D02*
X16591491Y-12217436D01*
X16591491Y-12217436D02*
X16581968Y-12226960D01*
X16581968Y-12226960D02*
X16562920Y-12236484D01*
X16562920Y-12236484D02*
X16505777Y-12236484D01*
X16505777Y-12236484D02*
X16486729Y-12226960D01*
X16486729Y-12226960D02*
X16477206Y-12217436D01*
X16839111Y-12236484D02*
X16839111Y-12036484D01*
X16924825Y-12236484D02*
X16924825Y-12131722D01*
X16924825Y-12131722D02*
X16915301Y-12112674D01*
X16915301Y-12112674D02*
X16896253Y-12103150D01*
X16896253Y-12103150D02*
X16867682Y-12103150D01*
X16867682Y-12103150D02*
X16848634Y-12112674D01*
X16848634Y-12112674D02*
X16839111Y-12122198D01*
X17048634Y-12236484D02*
X17029587Y-12226960D01*
X17029587Y-12226960D02*
X17020063Y-12217436D01*
X17020063Y-12217436D02*
X17010539Y-12198388D01*
X17010539Y-12198388D02*
X17010539Y-12141246D01*
X17010539Y-12141246D02*
X17020063Y-12122198D01*
X17020063Y-12122198D02*
X17029587Y-12112674D01*
X17029587Y-12112674D02*
X17048634Y-12103150D01*
X17048634Y-12103150D02*
X17077206Y-12103150D01*
X17077206Y-12103150D02*
X17096253Y-12112674D01*
X17096253Y-12112674D02*
X17105777Y-12122198D01*
X17105777Y-12122198D02*
X17115301Y-12141246D01*
X17115301Y-12141246D02*
X17115301Y-12198388D01*
X17115301Y-12198388D02*
X17105777Y-12217436D01*
X17105777Y-12217436D02*
X17096253Y-12226960D01*
X17096253Y-12226960D02*
X17077206Y-12236484D01*
X17077206Y-12236484D02*
X17048634Y-12236484D01*
X17229587Y-12236484D02*
X17210539Y-12226960D01*
X17210539Y-12226960D02*
X17201015Y-12207912D01*
X17201015Y-12207912D02*
X17201015Y-12036484D01*
X17381968Y-12226960D02*
X17362920Y-12236484D01*
X17362920Y-12236484D02*
X17324825Y-12236484D01*
X17324825Y-12236484D02*
X17305777Y-12226960D01*
X17305777Y-12226960D02*
X17296253Y-12207912D01*
X17296253Y-12207912D02*
X17296253Y-12131722D01*
X17296253Y-12131722D02*
X17305777Y-12112674D01*
X17305777Y-12112674D02*
X17324825Y-12103150D01*
X17324825Y-12103150D02*
X17362920Y-12103150D01*
X17362920Y-12103150D02*
X17381968Y-12112674D01*
X17381968Y-12112674D02*
X17391492Y-12131722D01*
X17391492Y-12131722D02*
X17391492Y-12150769D01*
X17391492Y-12150769D02*
X17296253Y-12169817D01*
X17467682Y-12226960D02*
X17486730Y-12236484D01*
X17486730Y-12236484D02*
X17524825Y-12236484D01*
X17524825Y-12236484D02*
X17543873Y-12226960D01*
X17543873Y-12226960D02*
X17553396Y-12207912D01*
X17553396Y-12207912D02*
X17553396Y-12198388D01*
X17553396Y-12198388D02*
X17543873Y-12179341D01*
X17543873Y-12179341D02*
X17524825Y-12169817D01*
X17524825Y-12169817D02*
X17496253Y-12169817D01*
X17496253Y-12169817D02*
X17477206Y-12160293D01*
X17477206Y-12160293D02*
X17467682Y-12141246D01*
X17467682Y-12141246D02*
X17467682Y-12131722D01*
X17467682Y-12131722D02*
X17477206Y-12112674D01*
X17477206Y-12112674D02*
X17496253Y-12103150D01*
X17496253Y-12103150D02*
X17524825Y-12103150D01*
X17524825Y-12103150D02*
X17543873Y-12112674D01*
X17620063Y-12312674D02*
X17629587Y-12303150D01*
X17629587Y-12303150D02*
X17648634Y-12274579D01*
X17648634Y-12274579D02*
X17658158Y-12255531D01*
X17658158Y-12255531D02*
X17667682Y-12226960D01*
X17667682Y-12226960D02*
X17677206Y-12179341D01*
X17677206Y-12179341D02*
X17677206Y-12141246D01*
X17677206Y-12141246D02*
X17667682Y-12093627D01*
X17667682Y-12093627D02*
X17658158Y-12065055D01*
X17658158Y-12065055D02*
X17648634Y-12046008D01*
X17648634Y-12046008D02*
X17629587Y-12017436D01*
X17629587Y-12017436D02*
X17620063Y-12007912D01*
X17981968Y-12312674D02*
X17972444Y-12303150D01*
X17972444Y-12303150D02*
X17953396Y-12274579D01*
X17953396Y-12274579D02*
X17943873Y-12255531D01*
X17943873Y-12255531D02*
X17934349Y-12226960D01*
X17934349Y-12226960D02*
X17924825Y-12179341D01*
X17924825Y-12179341D02*
X17924825Y-12141246D01*
X17924825Y-12141246D02*
X17934349Y-12093627D01*
X17934349Y-12093627D02*
X17943873Y-12065055D01*
X17943873Y-12065055D02*
X17953396Y-12046008D01*
X17953396Y-12046008D02*
X17972444Y-12017436D01*
X17972444Y-12017436D02*
X17981968Y-12007912D01*
X18058158Y-12103150D02*
X18058158Y-12236484D01*
X18058158Y-12122198D02*
X18067682Y-12112674D01*
X18067682Y-12112674D02*
X18086730Y-12103150D01*
X18086730Y-12103150D02*
X18115301Y-12103150D01*
X18115301Y-12103150D02*
X18134349Y-12112674D01*
X18134349Y-12112674D02*
X18143873Y-12131722D01*
X18143873Y-12131722D02*
X18143873Y-12236484D01*
X18267682Y-12236484D02*
X18248634Y-12226960D01*
X18248634Y-12226960D02*
X18239111Y-12217436D01*
X18239111Y-12217436D02*
X18229587Y-12198388D01*
X18229587Y-12198388D02*
X18229587Y-12141246D01*
X18229587Y-12141246D02*
X18239111Y-12122198D01*
X18239111Y-12122198D02*
X18248634Y-12112674D01*
X18248634Y-12112674D02*
X18267682Y-12103150D01*
X18267682Y-12103150D02*
X18296254Y-12103150D01*
X18296254Y-12103150D02*
X18315301Y-12112674D01*
X18315301Y-12112674D02*
X18324825Y-12122198D01*
X18324825Y-12122198D02*
X18334349Y-12141246D01*
X18334349Y-12141246D02*
X18334349Y-12198388D01*
X18334349Y-12198388D02*
X18324825Y-12217436D01*
X18324825Y-12217436D02*
X18315301Y-12226960D01*
X18315301Y-12226960D02*
X18296254Y-12236484D01*
X18296254Y-12236484D02*
X18267682Y-12236484D01*
X18391492Y-12103150D02*
X18467682Y-12103150D01*
X18420063Y-12036484D02*
X18420063Y-12207912D01*
X18420063Y-12207912D02*
X18429587Y-12226960D01*
X18429587Y-12226960D02*
X18448634Y-12236484D01*
X18448634Y-12236484D02*
X18467682Y-12236484D01*
X18686730Y-12103150D02*
X18686730Y-12303150D01*
X18686730Y-12112674D02*
X18705777Y-12103150D01*
X18705777Y-12103150D02*
X18743873Y-12103150D01*
X18743873Y-12103150D02*
X18762920Y-12112674D01*
X18762920Y-12112674D02*
X18772444Y-12122198D01*
X18772444Y-12122198D02*
X18781968Y-12141246D01*
X18781968Y-12141246D02*
X18781968Y-12198388D01*
X18781968Y-12198388D02*
X18772444Y-12217436D01*
X18772444Y-12217436D02*
X18762920Y-12226960D01*
X18762920Y-12226960D02*
X18743873Y-12236484D01*
X18743873Y-12236484D02*
X18705777Y-12236484D01*
X18705777Y-12236484D02*
X18686730Y-12226960D01*
X18896254Y-12236484D02*
X18877206Y-12226960D01*
X18877206Y-12226960D02*
X18867682Y-12207912D01*
X18867682Y-12207912D02*
X18867682Y-12036484D01*
X19058158Y-12236484D02*
X19058158Y-12131722D01*
X19058158Y-12131722D02*
X19048635Y-12112674D01*
X19048635Y-12112674D02*
X19029587Y-12103150D01*
X19029587Y-12103150D02*
X18991492Y-12103150D01*
X18991492Y-12103150D02*
X18972444Y-12112674D01*
X19058158Y-12226960D02*
X19039111Y-12236484D01*
X19039111Y-12236484D02*
X18991492Y-12236484D01*
X18991492Y-12236484D02*
X18972444Y-12226960D01*
X18972444Y-12226960D02*
X18962920Y-12207912D01*
X18962920Y-12207912D02*
X18962920Y-12188865D01*
X18962920Y-12188865D02*
X18972444Y-12169817D01*
X18972444Y-12169817D02*
X18991492Y-12160293D01*
X18991492Y-12160293D02*
X19039111Y-12160293D01*
X19039111Y-12160293D02*
X19058158Y-12150769D01*
X19124825Y-12103150D02*
X19201015Y-12103150D01*
X19153396Y-12036484D02*
X19153396Y-12207912D01*
X19153396Y-12207912D02*
X19162920Y-12226960D01*
X19162920Y-12226960D02*
X19181968Y-12236484D01*
X19181968Y-12236484D02*
X19201015Y-12236484D01*
X19343873Y-12226960D02*
X19324825Y-12236484D01*
X19324825Y-12236484D02*
X19286730Y-12236484D01*
X19286730Y-12236484D02*
X19267682Y-12226960D01*
X19267682Y-12226960D02*
X19258158Y-12207912D01*
X19258158Y-12207912D02*
X19258158Y-12131722D01*
X19258158Y-12131722D02*
X19267682Y-12112674D01*
X19267682Y-12112674D02*
X19286730Y-12103150D01*
X19286730Y-12103150D02*
X19324825Y-12103150D01*
X19324825Y-12103150D02*
X19343873Y-12112674D01*
X19343873Y-12112674D02*
X19353396Y-12131722D01*
X19353396Y-12131722D02*
X19353396Y-12150769D01*
X19353396Y-12150769D02*
X19258158Y-12169817D01*
X19524825Y-12236484D02*
X19524825Y-12036484D01*
X19524825Y-12226960D02*
X19505777Y-12236484D01*
X19505777Y-12236484D02*
X19467682Y-12236484D01*
X19467682Y-12236484D02*
X19448635Y-12226960D01*
X19448635Y-12226960D02*
X19439111Y-12217436D01*
X19439111Y-12217436D02*
X19429587Y-12198388D01*
X19429587Y-12198388D02*
X19429587Y-12141246D01*
X19429587Y-12141246D02*
X19439111Y-12122198D01*
X19439111Y-12122198D02*
X19448635Y-12112674D01*
X19448635Y-12112674D02*
X19467682Y-12103150D01*
X19467682Y-12103150D02*
X19505777Y-12103150D01*
X19505777Y-12103150D02*
X19524825Y-12112674D01*
X19601016Y-12312674D02*
X19610539Y-12303150D01*
X19610539Y-12303150D02*
X19629587Y-12274579D01*
X19629587Y-12274579D02*
X19639111Y-12255531D01*
X19639111Y-12255531D02*
X19648635Y-12226960D01*
X19648635Y-12226960D02*
X19658158Y-12179341D01*
X19658158Y-12179341D02*
X19658158Y-12141246D01*
X19658158Y-12141246D02*
X19648635Y-12093627D01*
X19648635Y-12093627D02*
X19639111Y-12065055D01*
X19639111Y-12065055D02*
X19629587Y-12046008D01*
X19629587Y-12046008D02*
X19610539Y-12017436D01*
X19610539Y-12017436D02*
X19601016Y-12007912D01*
X12845000Y-12465000D02*
G75*
G03*
X12845000Y-12465000I-100000J0D01*
G01*
X13086729Y-12356484D02*
X13210539Y-12356484D01*
X13210539Y-12356484D02*
X13143872Y-12432674D01*
X13143872Y-12432674D02*
X13172443Y-12432674D01*
X13172443Y-12432674D02*
X13191491Y-12442198D01*
X13191491Y-12442198D02*
X13201015Y-12451722D01*
X13201015Y-12451722D02*
X13210539Y-12470769D01*
X13210539Y-12470769D02*
X13210539Y-12518388D01*
X13210539Y-12518388D02*
X13201015Y-12537436D01*
X13201015Y-12537436D02*
X13191491Y-12546960D01*
X13191491Y-12546960D02*
X13172443Y-12556484D01*
X13172443Y-12556484D02*
X13115301Y-12556484D01*
X13115301Y-12556484D02*
X13096253Y-12546960D01*
X13096253Y-12546960D02*
X13086729Y-12537436D01*
X13296253Y-12537436D02*
X13305777Y-12546960D01*
X13305777Y-12546960D02*
X13296253Y-12556484D01*
X13296253Y-12556484D02*
X13286729Y-12546960D01*
X13286729Y-12546960D02*
X13296253Y-12537436D01*
X13296253Y-12537436D02*
X13296253Y-12556484D01*
X13381967Y-12375531D02*
X13391491Y-12366008D01*
X13391491Y-12366008D02*
X13410539Y-12356484D01*
X13410539Y-12356484D02*
X13458158Y-12356484D01*
X13458158Y-12356484D02*
X13477205Y-12366008D01*
X13477205Y-12366008D02*
X13486729Y-12375531D01*
X13486729Y-12375531D02*
X13496253Y-12394579D01*
X13496253Y-12394579D02*
X13496253Y-12413627D01*
X13496253Y-12413627D02*
X13486729Y-12442198D01*
X13486729Y-12442198D02*
X13372443Y-12556484D01*
X13372443Y-12556484D02*
X13496253Y-12556484D01*
X13667682Y-12423150D02*
X13667682Y-12556484D01*
X13620062Y-12346960D02*
X13572443Y-12489817D01*
X13572443Y-12489817D02*
X13696253Y-12489817D01*
X13810539Y-12356484D02*
X13829586Y-12356484D01*
X13829586Y-12356484D02*
X13848634Y-12366008D01*
X13848634Y-12366008D02*
X13858158Y-12375531D01*
X13858158Y-12375531D02*
X13867682Y-12394579D01*
X13867682Y-12394579D02*
X13877205Y-12432674D01*
X13877205Y-12432674D02*
X13877205Y-12480293D01*
X13877205Y-12480293D02*
X13867682Y-12518388D01*
X13867682Y-12518388D02*
X13858158Y-12537436D01*
X13858158Y-12537436D02*
X13848634Y-12546960D01*
X13848634Y-12546960D02*
X13829586Y-12556484D01*
X13829586Y-12556484D02*
X13810539Y-12556484D01*
X13810539Y-12556484D02*
X13791491Y-12546960D01*
X13791491Y-12546960D02*
X13781967Y-12537436D01*
X13781967Y-12537436D02*
X13772443Y-12518388D01*
X13772443Y-12518388D02*
X13762920Y-12480293D01*
X13762920Y-12480293D02*
X13762920Y-12432674D01*
X13762920Y-12432674D02*
X13772443Y-12394579D01*
X13772443Y-12394579D02*
X13781967Y-12375531D01*
X13781967Y-12375531D02*
X13791491Y-12366008D01*
X13791491Y-12366008D02*
X13810539Y-12356484D01*
X13962920Y-12556484D02*
X13962920Y-12423150D01*
X13962920Y-12442198D02*
X13972443Y-12432674D01*
X13972443Y-12432674D02*
X13991491Y-12423150D01*
X13991491Y-12423150D02*
X14020063Y-12423150D01*
X14020063Y-12423150D02*
X14039110Y-12432674D01*
X14039110Y-12432674D02*
X14048634Y-12451722D01*
X14048634Y-12451722D02*
X14048634Y-12556484D01*
X14048634Y-12451722D02*
X14058158Y-12432674D01*
X14058158Y-12432674D02*
X14077205Y-12423150D01*
X14077205Y-12423150D02*
X14105777Y-12423150D01*
X14105777Y-12423150D02*
X14124824Y-12432674D01*
X14124824Y-12432674D02*
X14134348Y-12451722D01*
X14134348Y-12451722D02*
X14134348Y-12556484D01*
X14229586Y-12556484D02*
X14229586Y-12423150D01*
X14229586Y-12442198D02*
X14239110Y-12432674D01*
X14239110Y-12432674D02*
X14258158Y-12423150D01*
X14258158Y-12423150D02*
X14286729Y-12423150D01*
X14286729Y-12423150D02*
X14305777Y-12432674D01*
X14305777Y-12432674D02*
X14315301Y-12451722D01*
X14315301Y-12451722D02*
X14315301Y-12556484D01*
X14315301Y-12451722D02*
X14324824Y-12432674D01*
X14324824Y-12432674D02*
X14343872Y-12423150D01*
X14343872Y-12423150D02*
X14372443Y-12423150D01*
X14372443Y-12423150D02*
X14391491Y-12432674D01*
X14391491Y-12432674D02*
X14401015Y-12451722D01*
X14401015Y-12451722D02*
X14401015Y-12556484D01*
X14791491Y-12346960D02*
X14620063Y-12604103D01*
X15048634Y-12356484D02*
X15067682Y-12356484D01*
X15067682Y-12356484D02*
X15086729Y-12366008D01*
X15086729Y-12366008D02*
X15096253Y-12375531D01*
X15096253Y-12375531D02*
X15105777Y-12394579D01*
X15105777Y-12394579D02*
X15115301Y-12432674D01*
X15115301Y-12432674D02*
X15115301Y-12480293D01*
X15115301Y-12480293D02*
X15105777Y-12518388D01*
X15105777Y-12518388D02*
X15096253Y-12537436D01*
X15096253Y-12537436D02*
X15086729Y-12546960D01*
X15086729Y-12546960D02*
X15067682Y-12556484D01*
X15067682Y-12556484D02*
X15048634Y-12556484D01*
X15048634Y-12556484D02*
X15029586Y-12546960D01*
X15029586Y-12546960D02*
X15020063Y-12537436D01*
X15020063Y-12537436D02*
X15010539Y-12518388D01*
X15010539Y-12518388D02*
X15001015Y-12480293D01*
X15001015Y-12480293D02*
X15001015Y-12432674D01*
X15001015Y-12432674D02*
X15010539Y-12394579D01*
X15010539Y-12394579D02*
X15020063Y-12375531D01*
X15020063Y-12375531D02*
X15029586Y-12366008D01*
X15029586Y-12366008D02*
X15048634Y-12356484D01*
X15201015Y-12537436D02*
X15210539Y-12546960D01*
X15210539Y-12546960D02*
X15201015Y-12556484D01*
X15201015Y-12556484D02*
X15191491Y-12546960D01*
X15191491Y-12546960D02*
X15201015Y-12537436D01*
X15201015Y-12537436D02*
X15201015Y-12556484D01*
X15401015Y-12556484D02*
X15286729Y-12556484D01*
X15343872Y-12556484D02*
X15343872Y-12356484D01*
X15343872Y-12356484D02*
X15324825Y-12385055D01*
X15324825Y-12385055D02*
X15305777Y-12404103D01*
X15305777Y-12404103D02*
X15286729Y-12413627D01*
X15477206Y-12375531D02*
X15486729Y-12366008D01*
X15486729Y-12366008D02*
X15505777Y-12356484D01*
X15505777Y-12356484D02*
X15553396Y-12356484D01*
X15553396Y-12356484D02*
X15572444Y-12366008D01*
X15572444Y-12366008D02*
X15581967Y-12375531D01*
X15581967Y-12375531D02*
X15591491Y-12394579D01*
X15591491Y-12394579D02*
X15591491Y-12413627D01*
X15591491Y-12413627D02*
X15581967Y-12442198D01*
X15581967Y-12442198D02*
X15467682Y-12556484D01*
X15467682Y-12556484D02*
X15591491Y-12556484D01*
X15658158Y-12356484D02*
X15791491Y-12356484D01*
X15791491Y-12356484D02*
X15705777Y-12556484D01*
X15953396Y-12356484D02*
X15915301Y-12356484D01*
X15915301Y-12356484D02*
X15896253Y-12366008D01*
X15896253Y-12366008D02*
X15886729Y-12375531D01*
X15886729Y-12375531D02*
X15867682Y-12404103D01*
X15867682Y-12404103D02*
X15858158Y-12442198D01*
X15858158Y-12442198D02*
X15858158Y-12518388D01*
X15858158Y-12518388D02*
X15867682Y-12537436D01*
X15867682Y-12537436D02*
X15877206Y-12546960D01*
X15877206Y-12546960D02*
X15896253Y-12556484D01*
X15896253Y-12556484D02*
X15934348Y-12556484D01*
X15934348Y-12556484D02*
X15953396Y-12546960D01*
X15953396Y-12546960D02*
X15962920Y-12537436D01*
X15962920Y-12537436D02*
X15972444Y-12518388D01*
X15972444Y-12518388D02*
X15972444Y-12470769D01*
X15972444Y-12470769D02*
X15962920Y-12451722D01*
X15962920Y-12451722D02*
X15953396Y-12442198D01*
X15953396Y-12442198D02*
X15934348Y-12432674D01*
X15934348Y-12432674D02*
X15896253Y-12432674D01*
X15896253Y-12432674D02*
X15877206Y-12442198D01*
X15877206Y-12442198D02*
X15867682Y-12451722D01*
X15867682Y-12451722D02*
X15858158Y-12470769D01*
X16048634Y-12356484D02*
X16048634Y-12394579D01*
X16124825Y-12356484D02*
X16124825Y-12394579D01*
X16420063Y-12632674D02*
X16410539Y-12623150D01*
X16410539Y-12623150D02*
X16391491Y-12594579D01*
X16391491Y-12594579D02*
X16381968Y-12575531D01*
X16381968Y-12575531D02*
X16372444Y-12546960D01*
X16372444Y-12546960D02*
X16362920Y-12499341D01*
X16362920Y-12499341D02*
X16362920Y-12461246D01*
X16362920Y-12461246D02*
X16372444Y-12413627D01*
X16372444Y-12413627D02*
X16381968Y-12385055D01*
X16381968Y-12385055D02*
X16391491Y-12366008D01*
X16391491Y-12366008D02*
X16410539Y-12337436D01*
X16410539Y-12337436D02*
X16420063Y-12327912D01*
X16581968Y-12423150D02*
X16581968Y-12556484D01*
X16534348Y-12346960D02*
X16486729Y-12489817D01*
X16486729Y-12489817D02*
X16610539Y-12489817D01*
X16839111Y-12556484D02*
X16839111Y-12356484D01*
X16924825Y-12556484D02*
X16924825Y-12451722D01*
X16924825Y-12451722D02*
X16915301Y-12432674D01*
X16915301Y-12432674D02*
X16896253Y-12423150D01*
X16896253Y-12423150D02*
X16867682Y-12423150D01*
X16867682Y-12423150D02*
X16848634Y-12432674D01*
X16848634Y-12432674D02*
X16839111Y-12442198D01*
X17048634Y-12556484D02*
X17029587Y-12546960D01*
X17029587Y-12546960D02*
X17020063Y-12537436D01*
X17020063Y-12537436D02*
X17010539Y-12518388D01*
X17010539Y-12518388D02*
X17010539Y-12461246D01*
X17010539Y-12461246D02*
X17020063Y-12442198D01*
X17020063Y-12442198D02*
X17029587Y-12432674D01*
X17029587Y-12432674D02*
X17048634Y-12423150D01*
X17048634Y-12423150D02*
X17077206Y-12423150D01*
X17077206Y-12423150D02*
X17096253Y-12432674D01*
X17096253Y-12432674D02*
X17105777Y-12442198D01*
X17105777Y-12442198D02*
X17115301Y-12461246D01*
X17115301Y-12461246D02*
X17115301Y-12518388D01*
X17115301Y-12518388D02*
X17105777Y-12537436D01*
X17105777Y-12537436D02*
X17096253Y-12546960D01*
X17096253Y-12546960D02*
X17077206Y-12556484D01*
X17077206Y-12556484D02*
X17048634Y-12556484D01*
X17229587Y-12556484D02*
X17210539Y-12546960D01*
X17210539Y-12546960D02*
X17201015Y-12527912D01*
X17201015Y-12527912D02*
X17201015Y-12356484D01*
X17381968Y-12546960D02*
X17362920Y-12556484D01*
X17362920Y-12556484D02*
X17324825Y-12556484D01*
X17324825Y-12556484D02*
X17305777Y-12546960D01*
X17305777Y-12546960D02*
X17296253Y-12527912D01*
X17296253Y-12527912D02*
X17296253Y-12451722D01*
X17296253Y-12451722D02*
X17305777Y-12432674D01*
X17305777Y-12432674D02*
X17324825Y-12423150D01*
X17324825Y-12423150D02*
X17362920Y-12423150D01*
X17362920Y-12423150D02*
X17381968Y-12432674D01*
X17381968Y-12432674D02*
X17391492Y-12451722D01*
X17391492Y-12451722D02*
X17391492Y-12470769D01*
X17391492Y-12470769D02*
X17296253Y-12489817D01*
X17467682Y-12546960D02*
X17486730Y-12556484D01*
X17486730Y-12556484D02*
X17524825Y-12556484D01*
X17524825Y-12556484D02*
X17543873Y-12546960D01*
X17543873Y-12546960D02*
X17553396Y-12527912D01*
X17553396Y-12527912D02*
X17553396Y-12518388D01*
X17553396Y-12518388D02*
X17543873Y-12499341D01*
X17543873Y-12499341D02*
X17524825Y-12489817D01*
X17524825Y-12489817D02*
X17496253Y-12489817D01*
X17496253Y-12489817D02*
X17477206Y-12480293D01*
X17477206Y-12480293D02*
X17467682Y-12461246D01*
X17467682Y-12461246D02*
X17467682Y-12451722D01*
X17467682Y-12451722D02*
X17477206Y-12432674D01*
X17477206Y-12432674D02*
X17496253Y-12423150D01*
X17496253Y-12423150D02*
X17524825Y-12423150D01*
X17524825Y-12423150D02*
X17543873Y-12432674D01*
X17620063Y-12632674D02*
X17629587Y-12623150D01*
X17629587Y-12623150D02*
X17648634Y-12594579D01*
X17648634Y-12594579D02*
X17658158Y-12575531D01*
X17658158Y-12575531D02*
X17667682Y-12546960D01*
X17667682Y-12546960D02*
X17677206Y-12499341D01*
X17677206Y-12499341D02*
X17677206Y-12461246D01*
X17677206Y-12461246D02*
X17667682Y-12413627D01*
X17667682Y-12413627D02*
X17658158Y-12385055D01*
X17658158Y-12385055D02*
X17648634Y-12366008D01*
X17648634Y-12366008D02*
X17629587Y-12337436D01*
X17629587Y-12337436D02*
X17620063Y-12327912D01*
X17981968Y-12632674D02*
X17972444Y-12623150D01*
X17972444Y-12623150D02*
X17953396Y-12594579D01*
X17953396Y-12594579D02*
X17943873Y-12575531D01*
X17943873Y-12575531D02*
X17934349Y-12546960D01*
X17934349Y-12546960D02*
X17924825Y-12499341D01*
X17924825Y-12499341D02*
X17924825Y-12461246D01*
X17924825Y-12461246D02*
X17934349Y-12413627D01*
X17934349Y-12413627D02*
X17943873Y-12385055D01*
X17943873Y-12385055D02*
X17953396Y-12366008D01*
X17953396Y-12366008D02*
X17972444Y-12337436D01*
X17972444Y-12337436D02*
X17981968Y-12327912D01*
X18058158Y-12423150D02*
X18058158Y-12556484D01*
X18058158Y-12442198D02*
X18067682Y-12432674D01*
X18067682Y-12432674D02*
X18086730Y-12423150D01*
X18086730Y-12423150D02*
X18115301Y-12423150D01*
X18115301Y-12423150D02*
X18134349Y-12432674D01*
X18134349Y-12432674D02*
X18143873Y-12451722D01*
X18143873Y-12451722D02*
X18143873Y-12556484D01*
X18267682Y-12556484D02*
X18248634Y-12546960D01*
X18248634Y-12546960D02*
X18239111Y-12537436D01*
X18239111Y-12537436D02*
X18229587Y-12518388D01*
X18229587Y-12518388D02*
X18229587Y-12461246D01*
X18229587Y-12461246D02*
X18239111Y-12442198D01*
X18239111Y-12442198D02*
X18248634Y-12432674D01*
X18248634Y-12432674D02*
X18267682Y-12423150D01*
X18267682Y-12423150D02*
X18296254Y-12423150D01*
X18296254Y-12423150D02*
X18315301Y-12432674D01*
X18315301Y-12432674D02*
X18324825Y-12442198D01*
X18324825Y-12442198D02*
X18334349Y-12461246D01*
X18334349Y-12461246D02*
X18334349Y-12518388D01*
X18334349Y-12518388D02*
X18324825Y-12537436D01*
X18324825Y-12537436D02*
X18315301Y-12546960D01*
X18315301Y-12546960D02*
X18296254Y-12556484D01*
X18296254Y-12556484D02*
X18267682Y-12556484D01*
X18391492Y-12423150D02*
X18467682Y-12423150D01*
X18420063Y-12356484D02*
X18420063Y-12527912D01*
X18420063Y-12527912D02*
X18429587Y-12546960D01*
X18429587Y-12546960D02*
X18448634Y-12556484D01*
X18448634Y-12556484D02*
X18467682Y-12556484D01*
X18686730Y-12423150D02*
X18686730Y-12623150D01*
X18686730Y-12432674D02*
X18705777Y-12423150D01*
X18705777Y-12423150D02*
X18743873Y-12423150D01*
X18743873Y-12423150D02*
X18762920Y-12432674D01*
X18762920Y-12432674D02*
X18772444Y-12442198D01*
X18772444Y-12442198D02*
X18781968Y-12461246D01*
X18781968Y-12461246D02*
X18781968Y-12518388D01*
X18781968Y-12518388D02*
X18772444Y-12537436D01*
X18772444Y-12537436D02*
X18762920Y-12546960D01*
X18762920Y-12546960D02*
X18743873Y-12556484D01*
X18743873Y-12556484D02*
X18705777Y-12556484D01*
X18705777Y-12556484D02*
X18686730Y-12546960D01*
X18896254Y-12556484D02*
X18877206Y-12546960D01*
X18877206Y-12546960D02*
X18867682Y-12527912D01*
X18867682Y-12527912D02*
X18867682Y-12356484D01*
X19058158Y-12556484D02*
X19058158Y-12451722D01*
X19058158Y-12451722D02*
X19048635Y-12432674D01*
X19048635Y-12432674D02*
X19029587Y-12423150D01*
X19029587Y-12423150D02*
X18991492Y-12423150D01*
X18991492Y-12423150D02*
X18972444Y-12432674D01*
X19058158Y-12546960D02*
X19039111Y-12556484D01*
X19039111Y-12556484D02*
X18991492Y-12556484D01*
X18991492Y-12556484D02*
X18972444Y-12546960D01*
X18972444Y-12546960D02*
X18962920Y-12527912D01*
X18962920Y-12527912D02*
X18962920Y-12508865D01*
X18962920Y-12508865D02*
X18972444Y-12489817D01*
X18972444Y-12489817D02*
X18991492Y-12480293D01*
X18991492Y-12480293D02*
X19039111Y-12480293D01*
X19039111Y-12480293D02*
X19058158Y-12470769D01*
X19124825Y-12423150D02*
X19201015Y-12423150D01*
X19153396Y-12356484D02*
X19153396Y-12527912D01*
X19153396Y-12527912D02*
X19162920Y-12546960D01*
X19162920Y-12546960D02*
X19181968Y-12556484D01*
X19181968Y-12556484D02*
X19201015Y-12556484D01*
X19343873Y-12546960D02*
X19324825Y-12556484D01*
X19324825Y-12556484D02*
X19286730Y-12556484D01*
X19286730Y-12556484D02*
X19267682Y-12546960D01*
X19267682Y-12546960D02*
X19258158Y-12527912D01*
X19258158Y-12527912D02*
X19258158Y-12451722D01*
X19258158Y-12451722D02*
X19267682Y-12432674D01*
X19267682Y-12432674D02*
X19286730Y-12423150D01*
X19286730Y-12423150D02*
X19324825Y-12423150D01*
X19324825Y-12423150D02*
X19343873Y-12432674D01*
X19343873Y-12432674D02*
X19353396Y-12451722D01*
X19353396Y-12451722D02*
X19353396Y-12470769D01*
X19353396Y-12470769D02*
X19258158Y-12489817D01*
X19524825Y-12556484D02*
X19524825Y-12356484D01*
X19524825Y-12546960D02*
X19505777Y-12556484D01*
X19505777Y-12556484D02*
X19467682Y-12556484D01*
X19467682Y-12556484D02*
X19448635Y-12546960D01*
X19448635Y-12546960D02*
X19439111Y-12537436D01*
X19439111Y-12537436D02*
X19429587Y-12518388D01*
X19429587Y-12518388D02*
X19429587Y-12461246D01*
X19429587Y-12461246D02*
X19439111Y-12442198D01*
X19439111Y-12442198D02*
X19448635Y-12432674D01*
X19448635Y-12432674D02*
X19467682Y-12423150D01*
X19467682Y-12423150D02*
X19505777Y-12423150D01*
X19505777Y-12423150D02*
X19524825Y-12432674D01*
X19601016Y-12632674D02*
X19610539Y-12623150D01*
X19610539Y-12623150D02*
X19629587Y-12594579D01*
X19629587Y-12594579D02*
X19639111Y-12575531D01*
X19639111Y-12575531D02*
X19648635Y-12546960D01*
X19648635Y-12546960D02*
X19658158Y-12499341D01*
X19658158Y-12499341D02*
X19658158Y-12461246D01*
X19658158Y-12461246D02*
X19648635Y-12413627D01*
X19648635Y-12413627D02*
X19639111Y-12385055D01*
X19639111Y-12385055D02*
X19629587Y-12366008D01*
X19629587Y-12366008D02*
X19610539Y-12337436D01*
X19610539Y-12337436D02*
X19601016Y-12327912D01*
M02*
