M48
; DRILL file {KiCad 7.0.8} date Fri Nov 10 17:38:26 2023
; FORMAT={-:-/ absolute / metric / decimal}
; #@! TF.CreationDate,2023-11-10T17:38:26-07:00
; #@! TF.GenerationSoftware,Kicad,Pcbnew,7.0.8
; #@! TF.FileFunction,Plated,1,2,PTH
FMAT,2
METRIC
; #@! TA.AperFunction,Plated,PTH,ComponentDrill
T1C0.762
; #@! TA.AperFunction,Plated,PTH,ComponentDrill
T2C0.800
%
G90
G05
T1
X131.0Y-90.0
X131.0Y-92.5
X131.0Y-95.0
X135.0Y-90.0
X135.0Y-92.5
X135.0Y-95.0
X135.0Y-97.5
X135.0Y-100.0
X135.0Y-102.5
X150.0Y-87.5
X150.0Y-112.5
X152.54Y-87.5
X152.54Y-112.5
X155.08Y-87.5
X155.08Y-112.5
X157.62Y-87.5
X157.62Y-112.5
X160.16Y-87.5
X160.16Y-112.5
X162.7Y-87.5
X162.7Y-112.5
X165.24Y-87.5
X165.24Y-112.5
X167.78Y-87.5
X167.78Y-112.5
X170.32Y-87.5
X170.32Y-112.5
X172.86Y-87.5
X172.86Y-112.5
X175.4Y-87.5
X175.4Y-112.5
X177.94Y-87.5
X177.94Y-112.5
X180.48Y-87.5
X180.48Y-112.5
X183.02Y-87.5
X183.02Y-112.5
X185.56Y-87.5
X185.56Y-112.5
T2
X139.55Y-87.75
X139.55Y-90.29
X139.55Y-92.83
X139.55Y-95.37
X139.55Y-97.91
X139.55Y-100.45
X139.55Y-102.99
X139.55Y-105.53
T0
M30
